<?xml version="1.0" encoding="UTF-8"?>
<svg version="1.1" xmlns="http://www.w3.org/2000/svg" width="1687" height="603">
<path d="M0 0 C0.99070999 0.00273422 0.99070999 0.00273422 2.00143433 0.00552368 C11.740156 0.0507844 20.83496906 0.38835425 30.1875 3.3125 C31.24710938 3.64121094 32.30671875 3.96992188 33.3984375 4.30859375 C45.8189886 8.65428294 57.14440894 15.13924969 67.125 23.6875 C67.7029834 24.17992187 68.2809668 24.67234375 68.87646484 25.1796875 C74.41788088 30.1320616 78.33262087 35.37875885 83.1875 41.3125 C83.5175 29.4325 83.8475 17.5525 84.1875 5.3125 C106.9575 5.3125 129.7275 5.3125 153.1875 5.3125 C153.23170916 39.15596852 153.26859168 72.9994087 153.28963066 106.84289747 C153.29213164 110.8514011 153.29472033 114.85990467 153.29736328 118.8684082 C153.29815021 120.06528462 153.29815021 120.06528462 153.29895304 121.28634036 C153.30762182 134.1540148 153.32337204 147.02167111 153.34180559 159.88933485 C153.36060337 173.12302966 153.37163744 186.35671508 153.37567699 199.59042269 C153.37840172 207.73605813 153.38696162 215.88164229 153.40333293 224.02726192 C153.41402223 229.63639326 153.41707409 235.24549865 153.41450275 240.8546394 C153.41323971 244.07592465 153.41611952 247.2971043 153.42591095 250.5183773 C153.53796088 289.33021533 152.52937754 333.09208871 123.8984375 362.82421875 C96.46403381 388.0053645 58.47017133 392.55118012 22.8125 392.5 C21.96990631 392.49906342 21.12731262 392.49812683 20.25918579 392.49716187 C-6.84913126 392.43192735 -34.770456 390.63172748 -59.8125 379.3125 C-60.946875 378.80074219 -62.08125 378.28898437 -63.25 377.76171875 C-71.79022508 373.54196131 -78.18459625 368.01669617 -84.8125 361.3125 C-85.92431641 360.21615234 -85.92431641 360.21615234 -87.05859375 359.09765625 C-98.15889053 347.47804734 -106.00082773 331.02316365 -105.91015625 314.79296875 C-105.90693359 313.77138672 -105.90371094 312.74980469 -105.90039062 311.69726562 C-105.88782227 310.11461914 -105.88782227 310.11461914 -105.875 308.5 C-105.87048828 307.42556641 -105.86597656 306.35113281 -105.86132812 305.24414062 C-105.84957729 302.60020317 -105.83314787 299.95638048 -105.8125 297.3125 C-97.22264939 298.32032183 -88.6328767 299.32880434 -80.04319763 300.33808708 C-76.05292365 300.80692205 -72.06262507 301.27554534 -68.07226562 301.74365234 C-64.20775256 302.19700482 -60.34331018 302.65095576 -56.47891235 303.10528946 C-55.01846727 303.27689231 -53.55799855 303.44829407 -52.09750366 303.6194725 C-41.99643406 304.80356121 -31.90255964 306.03796504 -21.8125 307.3125 C-21.41417969 308.71701416 -21.41417969 308.71701416 -21.0078125 310.14990234 C-18.53097297 318.76382826 -16.42182468 325.5841123 -8.27685547 330.13818359 C1.18333672 334.64616105 11.28153533 334.77821439 21.5625 334.6875 C23.52316406 334.70490234 23.52316406 334.70490234 25.5234375 334.72265625 C41.48741957 334.6751444 57.16437887 332.15673098 68.98828125 320.796875 C85.9999723 301.57940518 79.31611752 263.26701933 79.1875 239.3125 C78.44927002 240.19583008 77.71104004 241.07916016 76.95043945 241.98925781 C75.96317911 243.16481914 74.97578598 244.34026895 73.98828125 245.515625 C73.5039563 246.09586426 73.01963135 246.67610352 72.52062988 247.27392578 C56.14679414 266.72771638 33.36444998 278.49786054 8.1875 281.3125 C-19.5546354 283.4815329 -47.25789193 276.94062818 -68.75 258.75 C-70.79478136 256.96164495 -72.80449976 255.14275195 -74.8125 253.3125 C-75.46605469 252.74144531 -76.11960937 252.17039062 -76.79296875 251.58203125 C-100.13846587 230.01101372 -111.57292201 196.12616041 -114.8125 165.3125 C-114.92335938 164.31992187 -115.03421875 163.32734375 -115.1484375 162.3046875 C-119.02163796 121.3743799 -113.67499768 74.25449143 -87.08422852 41.30834961 C-64.73584584 14.47424266 -35.00066992 -0.15309326 0 0 Z M-22.8125 75.3125 C-41.27885137 98.4035243 -42.1408702 130.9308174 -39.31640625 159.1953125 C-36.7912485 179.43647539 -29.98770462 196.99158344 -14.17578125 210.578125 C-1.48916623 220.35098108 11.60770116 222.25885449 27.1875 221.3125 C40.26980749 219.43221707 51.04323872 212.55251271 60.1875 203.3125 C60.81269531 202.72082031 61.43789062 202.12914062 62.08203125 201.51953125 C78.13598444 185.10318634 81.28547661 159.43116533 81.22265625 137.55859375 C80.7162696 111.50050676 75.73029551 88.17618911 56.4375 69.5625 C44.92480565 59.61412595 30.88081058 55.57870697 15.8046875 55.96484375 C0.13675255 57.47072519 -12.11380058 63.93090487 -22.8125 75.3125 Z " fill="#0D3954" transform="translate(1224.8125,177.6875)"/>
<path d="M0 0 C1.43416008 -0.00855011 1.43416008 -0.00855011 2.89729309 -0.01727295 C4.91678786 -0.0266721 6.93629762 -0.03323656 8.95581055 -0.03710938 C11.96627626 -0.04670525 14.97602527 -0.07773184 17.98632812 -0.109375 C51.41719636 -0.29257521 85.37506828 5.25020752 110.26953125 29.203125 C120.46820494 39.93419275 133.83203125 58.70171439 133.83203125 74.203125 C125.57482917 75.77309084 117.31671609 77.33813622 109.0574007 78.89694214 C105.22213175 79.62094347 101.38719643 80.34662315 97.55297852 81.07617188 C93.85141987 81.78041461 90.14904457 82.48020481 86.4460659 83.17694092 C85.03481363 83.44328035 83.62386079 83.71121152 82.2132206 83.98077393 C80.23450416 84.3586072 78.25460182 84.73021362 76.2746582 85.1015625 C75.14880814 85.31474121 74.02295807 85.52791992 72.86299133 85.74755859 C70.1248074 86.15911948 67.59407424 86.2937925 64.83203125 86.203125 C64.41953125 85.29691406 64.00703125 84.39070313 63.58203125 83.45703125 C57.6548083 70.79092331 51.38366936 62.32810814 37.83203125 57.203125 C18.9613017 50.7247471 -6.94456562 52.00364626 -25.18359375 60.11328125 C-30.69431693 63.13983985 -33.3607399 67.27943045 -35.16796875 73.203125 C-35.55304254 77.74341367 -34.54789843 81.21840583 -31.85546875 84.890625 C-18.83150316 98.30833838 10.58547836 101.28768991 28.02563477 105.40249634 C101.92523553 122.89182749 101.92523553 122.89182749 124.83203125 144.203125 C125.47527344 144.79222656 126.11851562 145.38132812 126.78125 145.98828125 C139.47007061 158.9622439 143.61049441 177.94123545 144.01953125 195.453125 C143.73443271 215.72363125 136.85292133 233.74945715 123.83203125 249.203125 C122.90583984 250.33041016 122.90583984 250.33041016 121.9609375 251.48046875 C102.61515533 274.25166104 72.7369585 284.14553122 43.83203125 287.203125 C42.89746094 287.31398438 41.96289062 287.42484375 41 287.5390625 C0.45337724 291.55572928 -45.50159348 286.74905322 -78.40039062 260.66894531 C-95.5838397 246.41902428 -110.94119461 225.87121333 -114.16796875 203.203125 C-112.35685408 201.39201033 -109.55707362 201.54566763 -107.10693359 201.17163086 C-105.15888321 200.87143288 -105.15888321 200.87143288 -103.17147827 200.56517029 C-101.74065743 200.34919449 -100.30979911 200.13346687 -98.87890625 199.91796875 C-97.41733609 199.69540871 -95.95579883 199.47263256 -94.49429321 199.24964905 C-91.42287775 198.78207007 -88.35100904 198.31761676 -85.27880859 197.85522461 C-81.35390042 197.26417032 -77.43032526 196.66474636 -73.50707054 196.06282711 C-70.48433512 195.60016062 -67.46087392 195.14238535 -64.43718338 194.68600655 C-62.99135994 194.46711574 -61.5457753 194.24664127 -60.10044479 194.02451897 C-58.06947402 193.71307239 -56.03759944 193.40834208 -54.00537109 193.10522461 C-52.85144867 192.93059189 -51.69752625 192.75595917 -50.50863647 192.57603455 C-47.03429287 192.18820313 -43.6609359 192.13903147 -40.16796875 192.203125 C-39.81734375 193.234375 -39.46671875 194.265625 -39.10546875 195.328125 C-33.5961137 209.90712587 -27.32691419 220.80227544 -13.16796875 228.203125 C6.37067842 236.17759135 32.27839118 236.36230411 51.83203125 228.265625 C59.23273156 224.6407922 64.60837945 220.81703169 67.64453125 212.953125 C69.48993469 206.89253775 68.70863573 201.88450341 66.76953125 195.953125 C58.32783282 183.97135949 36.71555438 182.09104459 23.27505493 179.00994873 C-57.90949429 160.33966439 -57.90949429 160.33966439 -78.16796875 142.203125 C-78.92335938 141.58824219 -79.67875 140.97335937 -80.45703125 140.33984375 C-94.83697347 128.34052742 -101.95216002 111.49825375 -104.16796875 93.203125 C-105.421908 69.28182239 -98.9958641 48.3363579 -82.984375 30.15625 C-62.33873332 7.84528534 -29.32665978 0.13992471 0 0 Z " fill="#0D3954" transform="translate(537.16796875,177.796875)"/>
<path d="M0 0 C0.99419952 -0.00696899 1.98839905 -0.01393799 3.01272583 -0.02111816 C6.20904824 -0.03842469 9.40519517 -0.0448391 12.6015625 -0.046875 C14.23895386 -0.04838562 14.23895386 -0.04838562 15.90942383 -0.04992676 C51.15924942 -0.02793927 89.67215904 0.80404886 116.7578125 26.60546875 C125.90834169 36.23379456 131.36253319 47.93907618 135.4140625 60.453125 C135.6519751 61.17814209 135.8898877 61.90315918 136.13500977 62.65014648 C136.90797443 65.15206118 137.57026703 67.66793374 138.2265625 70.203125 C138.48253708 71.15177429 138.73851166 72.10042358 139.00224304 73.07781982 C142.24771687 87.29837887 141.69118473 101.87412415 141.69974184 116.37631226 C141.70547488 120.31928863 141.72879835 124.26216202 141.75033569 128.20507812 C141.78865022 135.66532231 141.81299487 143.12553637 141.83146036 150.58585358 C141.86496297 163.92653215 141.92314618 177.26711756 141.98545206 190.6076889 C142.00669821 195.27308426 142.02210613 199.93844959 142.03229165 204.60388184 C142.0394019 207.52402941 142.05029263 210.44415567 142.06193352 213.36428833 C142.06852802 215.32675367 142.07038772 217.28923323 142.07200623 219.25170898 C142.12241436 237.33489515 142.12241436 237.33489515 144.9140625 255.140625 C145.05005859 255.78451172 145.18605469 256.42839844 145.32617188 257.09179688 C147.22734182 265.40843742 150.36134461 273.08500765 153.2265625 281.203125 C124.5165625 281.203125 95.8065625 281.203125 66.2265625 281.203125 C59.49169218 265.48842759 59.49169218 265.48842759 58.4140625 258.953125 C57.7587346 254.43433938 57.7587346 254.43433938 56.2265625 250.203125 C54.9065625 251.523125 53.5865625 252.843125 52.2265625 254.203125 C50.4536932 252.4302557 50.59873147 249.79518548 50.2265625 247.390625 C49.68960377 243.94653817 49.13932677 240.56894325 48.2265625 237.203125 C46.5765625 236.873125 44.9265625 236.543125 43.2265625 236.203125 C43.8865625 235.213125 44.5465625 234.223125 45.2265625 233.203125 C45.0691731 231.09593951 45.0691731 231.09593951 44.4140625 228.890625 C44.21425781 228.10171875 44.01445313 227.3128125 43.80859375 226.5 C43.52048828 225.36304688 43.52048828 225.36304688 43.2265625 224.203125 C42.87619644 222.20603844 42.53487175 220.20713511 42.2265625 218.203125 C47.20282141 219.86748187 48.98358181 221.86704924 51.734375 226.20703125 C54.73334935 232.22853211 56.43417459 238.73942525 58.2265625 245.203125 C58.8865625 243.883125 59.5465625 242.563125 60.2265625 241.203125 C60.8865625 241.203125 61.5465625 241.203125 62.2265625 241.203125 C62.56504902 243.09804506 62.89713161 244.99410966 63.2265625 246.890625 C63.4121875 247.94636719 63.5978125 249.00210938 63.7890625 250.08984375 C64.17724324 252.85216562 64.30916226 255.42054543 64.2265625 258.203125 C65.5465625 257.873125 66.8665625 257.543125 68.2265625 257.203125 C68.5565625 262.483125 68.8865625 267.763125 69.2265625 273.203125 C73.58292025 257.95587287 73.4443332 244.33249661 66.4140625 229.828125 C62.03140797 222.06618825 55.82156851 215.9422348 49.51416016 209.71435547 C48.2265625 208.203125 48.2265625 208.203125 47.2265625 205.203125 C55.39443623 205.8565549 59.72169431 209.37444104 65.2265625 215.203125 C65.8865625 213.883125 66.5465625 212.563125 67.2265625 211.203125 C70.83292289 215.67138284 73.80692841 219.52458865 75.2265625 225.203125 C75.8865625 224.543125 76.5465625 223.883125 77.2265625 223.203125 C78.2165625 223.203125 79.2065625 223.203125 80.2265625 223.203125 C83.57250908 228.38394551 84.79482746 232.05090064 85.2265625 238.203125 C87.7015625 237.213125 87.7015625 237.213125 90.2265625 236.203125 C91.98749554 240.84558482 93.67236021 245.48645893 95.2265625 250.203125 C95.64998562 240.17034949 95.94237845 231.36782393 91.2265625 222.203125 C90.83726562 221.42710937 90.44796875 220.65109375 90.046875 219.8515625 C81.54784336 205.21713524 64.56347733 199.56768423 49.2265625 195.203125 C49.2265625 194.543125 49.2265625 193.883125 49.2265625 193.203125 C57.18902686 189.38114211 66.14177081 188.6915867 74.65625 191.22265625 C75.92855469 191.70798828 75.92855469 191.70798828 77.2265625 192.203125 C76.58734285 189.72685401 76.58734285 189.72685401 75.2265625 187.203125 C72.78367622 185.89244167 72.78367622 185.89244167 70.2265625 185.203125 C69.5665625 184.873125 68.9065625 184.543125 68.2265625 184.203125 C68.2265625 183.543125 68.2265625 182.883125 68.2265625 182.203125 C77.93204597 180.31137822 85.95811305 182.49352811 95.2265625 185.203125 C94.58203125 184.42582031 93.9375 183.64851562 93.2734375 182.84765625 C91.40628295 180.43532108 90.66270423 179.14708166 90.2265625 176.203125 C96.34431146 175.70371692 99.25152203 176.95411898 104.2265625 180.203125 C101.73819581 174.12045087 95.7923758 171.2886614 89.9765625 168.828125 C74.48136447 166.245592 63.06265259 170.72636179 50.0625 178.59375 C47.2265625 180.203125 47.2265625 180.203125 45.2265625 180.203125 C45.82929167 171.46355206 49.65858014 166.69910442 55.2265625 160.203125 C53.2465625 159.873125 51.2665625 159.543125 49.2265625 159.203125 C51.65114222 156.52078265 54.30166647 154.83455775 57.4140625 153.015625 C58.31511719 152.48582031 59.21617187 151.95601562 60.14453125 151.41015625 C60.83160156 151.01183594 61.51867187 150.61351562 62.2265625 150.203125 C59.9165625 150.203125 57.6065625 150.203125 55.2265625 150.203125 C56.96901149 146.02995966 58.87752084 145.00056533 62.8515625 143.15234375 C66.89915708 141.53463736 71.02797448 140.36939945 75.2265625 139.203125 C71.2665625 138.873125 67.3065625 138.543125 63.2265625 138.203125 C65.4815625 132.565625 65.4815625 132.565625 68.7265625 129.953125 C69.335 129.45296875 69.9434375 128.9528125 70.5703125 128.4375 C72.2265625 127.203125 72.2265625 127.203125 74.2265625 126.203125 C62.46448377 127.68295269 52.63098462 132.85729951 45.2265625 142.203125 C41.9233148 146.99811467 38.83083184 151.99458632 36.2265625 157.203125 C35.5665625 157.203125 34.9065625 157.203125 34.2265625 157.203125 C34.16710449 156.35886963 34.16710449 156.35886963 34.10644531 155.49755859 C32.64835983 133.48653212 32.64835983 133.48653212 22.71484375 114.19140625 C21.2265625 112.203125 21.2265625 112.203125 20.2265625 109.203125 C20.98799561 108.91066895 21.74942871 108.61821289 22.53393555 108.31689453 C25.994114 106.98765874 29.4540902 105.65789731 32.9140625 104.328125 C34.11224609 103.86792969 35.31042969 103.40773438 36.54492188 102.93359375 C37.70185547 102.48886719 38.85878906 102.04414063 40.05078125 101.5859375 C41.11385498 101.17746582 42.17692871 100.76899414 43.2722168 100.34814453 C45.93115747 99.3176155 48.58125667 98.26809048 51.2265625 97.203125 C50.93678559 87.14786626 50.29779207 78.37468689 43.9140625 70.265625 C34.36494506 62.93723254 21.66790001 63.20211033 10.16796875 64.42138672 C-0.97229377 65.96593091 -9.94898289 68.97539606 -17.20703125 77.81640625 C-19.61187991 81.48065196 -21.17948318 85.38219415 -22.73046875 89.46875 C-23.62391038 91.81110632 -24.6347442 93.97510458 -25.7734375 96.203125 C-45.53506715 94.07632996 -65.28420301 91.83853199 -85.01882935 89.47393799 C-87.23063318 89.21001512 -89.44277474 88.94890732 -91.65524292 88.69061279 C-94.78026927 88.32499776 -97.90387811 87.94899937 -101.02734375 87.5703125 C-101.96953766 87.46207153 -102.91173157 87.35383057 -103.88247681 87.24230957 C-104.74827362 87.13511597 -105.61407043 87.02792236 -106.50610352 86.91748047 C-107.63895531 86.7823555 -107.63895531 86.7823555 -108.79469299 86.64450073 C-110.7734375 86.203125 -110.7734375 86.203125 -113.7734375 84.203125 C-108.09554075 57.51701028 -98.94687626 34.61797066 -76.00390625 18.234375 C-53.65384509 4.18113219 -26.00461071 0.12370043 0 0 Z " fill="#0D3954" transform="translate(936.7734375,178.796875)"/>
<path d="M0 0 C1.15086594 -0.00855011 1.15086594 -0.00855011 2.32498169 -0.01727295 C3.94352875 -0.02666225 5.56209441 -0.03323256 7.18066406 -0.03710938 C9.59216186 -0.04671311 12.00276761 -0.07775146 14.4140625 -0.109375 C28.87064077 -0.20873896 42.98318884 1.56576723 56.8203125 5.890625 C57.64337891 6.14408691 58.46644531 6.39754883 59.31445312 6.65869141 C92.73555183 17.36448917 120.06365631 41.72334258 136.84765625 72.29296875 C155.55874265 109.41413289 157.77046667 155.2166682 145.0078125 194.578125 C137.63595509 216.00110317 124.94376317 235.37819925 108.7578125 251.203125 C108.0978125 251.203125 107.4378125 251.203125 106.7578125 251.203125 C105.00432249 240.95789094 103.45467344 230.90085442 103.06640625 220.5 C102.87279987 217.22329226 102.87279987 217.22329226 101.85791016 214.28173828 C100.26145854 208.84914623 99.62865777 203.24421516 98.84765625 197.6484375 C98.58910606 195.82601028 98.58910606 195.82601028 98.32533264 193.96676636 C97.96233571 191.39681846 97.60191401 188.82650568 97.24389648 186.25585938 C96.70186252 182.37502162 96.14737379 178.49610658 95.59179688 174.6171875 C93.78302729 161.81775705 92.14323002 149.13394139 91.7578125 136.203125 C94.7278125 136.533125 97.6978125 136.863125 100.7578125 137.203125 C100.47613313 129.12319385 100.47613313 129.12319385 96.7578125 122.203125 C94.49323945 120.38743168 92.18616065 118.80675113 89.7578125 117.203125 C90.0878125 115.223125 90.4178125 113.243125 90.7578125 111.203125 C89.29597192 111.43172558 87.83825831 111.68682892 86.3828125 111.953125 C85.16464844 112.16195312 85.16464844 112.16195312 83.921875 112.375 C81.64710953 113.03643992 81.64710953 113.03643992 80.34375 114.96875 C79.50618518 117.25790189 79.50618518 117.25790189 80.7109375 119.57421875 C82.10065035 123.06405735 81.70666917 124.72720847 80.5078125 128.265625 C78.46317313 132.19986 77.24010267 133.68184496 73.04199219 135.15820312 C62.82631259 137.5475804 52.1504657 139.07993092 41.7578125 137.203125 C42.51860387 129.72200989 42.51860387 129.72200989 43.796875 126.94921875 C44.85526947 123.92461993 44.83944104 121.35340167 44.78100586 118.17358398 C44.72389211 112.70569439 44.7298194 108.64811706 47.97265625 104.08984375 C54.51658443 98.203125 54.51658443 98.203125 57.7578125 98.203125 C58.0878125 96.883125 58.4178125 95.563125 58.7578125 94.203125 C57.55125 93.7390625 57.55125 93.7390625 56.3203125 93.265625 C53.7578125 92.203125 53.7578125 92.203125 52.7578125 91.203125 C52.71688313 88.87015067 52.71539527 86.53607275 52.7578125 84.203125 C53.45648437 84.37070312 54.15515625 84.53828125 54.875 84.7109375 C55.78507812 84.91460937 56.69515625 85.11828125 57.6328125 85.328125 C58.53773438 85.53695312 59.44265625 85.74578125 60.375 85.9609375 C61.16132812 86.04085937 61.94765625 86.12078125 62.7578125 86.203125 C63.4178125 85.543125 64.0778125 84.883125 64.7578125 84.203125 C64.7578125 82.883125 64.7578125 81.563125 64.7578125 80.203125 C65.4178125 79.543125 66.0778125 78.883125 66.7578125 78.203125 C66.7578125 77.543125 66.7578125 76.883125 66.7578125 76.203125 C68.24236967 74.57718144 69.77623075 73.18865352 71.5078125 71.828125 C73.03090012 70.23556717 73.03090012 70.23556717 72.5078125 67.890625 C72.2603125 67.00375 72.0128125 66.116875 71.7578125 65.203125 C71.41836455 63.20415372 71.08359634 61.20436861 70.7578125 59.203125 C71.56605469 59.16574219 72.37429688 59.12835938 73.20703125 59.08984375 C74.27566406 59.02410156 75.34429688 58.95835937 76.4453125 58.890625 C77.50105469 58.83261719 78.55679687 58.77460938 79.64453125 58.71484375 C83.01676894 58.16056127 85.03635831 57.24800245 87.7578125 55.203125 C87.7578125 54.543125 87.7578125 53.883125 87.7578125 53.203125 C86.88898438 53.06777344 86.02015625 52.93242187 85.125 52.79296875 C73.98597576 50.71218905 73.98597576 50.71218905 70.015625 45.11328125 C69.60054687 44.48292969 69.18546875 43.85257813 68.7578125 43.203125 C67.75794513 41.915731 66.73705264 40.64437758 65.6953125 39.390625 C65.02822266 38.54564453 65.02822266 38.54564453 64.34765625 37.68359375 C60.49136216 34.09259753 55.75961859 33.79685276 50.6953125 33.390625 C49.48746094 33.28105469 48.27960938 33.17148438 47.03515625 33.05859375 C43.40038112 33.21888777 42.39020509 33.82869516 39.7578125 36.203125 C38.2728125 36.76 38.2728125 36.76 36.7578125 37.328125 C32.41808144 40.04045691 31.10048082 43.35417425 29.7578125 48.203125 C29.11943199 53.59788986 29.85138658 58.87787275 30.7578125 64.203125 C29.5409375 63.81125 28.3240625 63.419375 27.0703125 63.015625 C23.3090284 62.54397191 21.34737053 63.26080257 18.40625 65.48046875 C15.06528766 68.25277665 11.92472424 71.23547009 8.7578125 74.203125 C7.98566406 74.72003906 7.21351563 75.23695313 6.41796875 75.76953125 C4.55744287 77.10528661 4.55744287 77.10528661 4.1484375 79.46484375 C4.10203125 80.26535156 4.055625 81.06585938 4.0078125 81.890625 C3.95109375 82.69886719 3.894375 83.50710938 3.8359375 84.33984375 C3.81015625 84.95472656 3.784375 85.56960938 3.7578125 86.203125 C-0.87677887 86.52646858 -3.66992416 86.29265005 -7.2421875 83.203125 C-8.4469362 80.50448791 -9.3748878 78.00800913 -10.2421875 75.203125 C-12.96044433 66.70239456 -15.75913133 58.35580282 -23.9296875 53.703125 C-28.80245905 51.82577295 -33.77060011 51.8206186 -38.9296875 51.765625 C-39.74977295 51.7553125 -40.5698584 51.745 -41.41479492 51.734375 C-47.95222777 51.83007393 -52.23405991 53.14829677 -56.9296875 57.953125 C-62.08236368 65.19472395 -63.40539094 72.95281339 -65.2421875 81.515625 C-68.15965532 94.76506468 -72.04536004 107.56773656 -76.421875 120.40356445 C-82.4568063 138.20892637 -87.61655913 157.33336468 -81.84765625 175.8046875 C-80.77243131 180.06396564 -81.759352 183.7303665 -83.09765625 187.8125 C-83.31767599 192.9740442 -80.91645082 196.30801114 -78.3046875 200.640625 C-77.84255859 201.46111328 -77.38042969 202.28160156 -76.90429688 203.12695312 C-73.00977666 209.74816592 -68.03792096 216.19172218 -60.4921875 218.703125 C-52.13202293 220.214196 -43.35198975 218.23057556 -35.2421875 216.203125 C-34.90267131 217.76429319 -34.57086206 219.32713838 -34.2421875 220.890625 C-34.0565625 221.76074219 -33.8709375 222.63085938 -33.6796875 223.52734375 C-33.25246703 226.14025464 -33.16602549 228.56125538 -33.2421875 231.203125 C-32.5821875 231.203125 -31.9221875 231.203125 -31.2421875 231.203125 C-30.93435921 247.96266517 -31.86176711 264.50224114 -33.2421875 281.203125 C-38.30587983 280.63036803 -42.84443348 279.52151778 -47.6171875 277.703125 C-48.64440918 277.31217651 -48.64440918 277.31217651 -49.69238281 276.91333008 C-62.63555268 271.81802183 -74.55092978 265.13711798 -85.2421875 256.203125 C-86.23734375 255.37167969 -87.2325 254.54023438 -88.2578125 253.68359375 C-113.9052473 231.55518739 -127.94160659 198.04729167 -131.01513672 164.69921875 C-131.50714831 157.12329831 -131.57765179 149.542876 -131.6171875 141.953125 C-131.62513336 141.15241577 -131.63307922 140.35170654 -131.64126587 139.5267334 C-131.75372634 124.76662777 -130.0008372 110.62123928 -125.6796875 96.453125 C-125.43138184 95.63585937 -125.18307617 94.81859375 -124.92724609 93.9765625 C-120.28458086 79.45547527 -113.40014315 65.40750263 -104.2421875 53.203125 C-103.63117188 52.37167969 -103.02015625 51.54023438 -102.390625 50.68359375 C-80.56982361 22.17287588 -47.8240401 5.65883 -12.56323242 0.68408203 C-8.36702607 0.16850167 -4.22453389 0.02523109 0 0 Z " fill="#0D3954" transform="translate(1534.2421875,177.796875)"/>
<path d="M0 0 C2.74649447 3.31793006 4.45349566 6.90666893 6.16015625 10.82421875 C6.46174149 11.50528687 6.76332672 12.18635498 7.0740509 12.88806152 C8.07517345 15.15238257 9.06885012 17.41989092 10.0625 19.6875 C10.7738336 21.30072135 11.48559387 22.91375463 12.19775391 24.52661133 C14.08900802 28.81371094 15.97365122 33.10368374 17.85638428 37.39453125 C19.34363957 40.78290472 20.83373848 44.17002412 22.32377625 47.55717468 C26.08011842 56.09693549 29.82870914 64.6400811 33.57389832 73.18473816 C36.96555431 80.92263628 40.36129302 88.65873719 43.75830078 96.39428711 C45.24454579 99.77882425 46.72984862 103.1637724 48.21435547 106.54907227 C51.72688966 114.55743194 55.24597232 122.56274817 58.78540039 130.55926514 C60.45704386 134.33692054 62.12537828 138.11603311 63.79345703 141.89526367 C64.58965378 143.6966145 65.38747174 145.49724973 66.18701172 147.29711914 C67.29545315 149.79263818 68.39828551 152.29056792 69.5 154.7890625 C69.82621338 155.51948761 70.15242676 156.24991272 70.48852539 157.00247192 C70.79137451 157.69211029 71.09422363 158.38174866 71.40625 159.09228516 C71.79780273 159.97601303 71.79780273 159.97601303 72.19726562 160.87759399 C73.32261111 163.85297425 74.12608924 166.94131235 75 170 C45.96 170.33 16.92 170.66 -13 171 C-25.6875 139.25 -25.6875 139.25 -29.6628418 129.29785156 C-30.86015201 126.30290177 -30.86015201 126.30290177 -32.05769348 123.30804443 C-32.58279476 121.99453339 -33.10755829 120.6808873 -33.6320343 119.36712646 C-34.43574347 117.35411812 -35.24042559 115.34150252 -36.0456543 113.32910156 C-36.29576704 112.70343544 -36.54587978 112.07776932 -36.8035717 111.43314362 C-38.84181743 106.35245812 -40.96486236 101.30986489 -43.12336731 96.27923584 C-44 94 -44 94 -44 92 C-58.33958677 92.10951235 -72.67914242 92.22256955 -87.01867199 92.33933926 C-93.68374239 92.3935401 -100.34881714 92.44669769 -107.01391602 92.49731445 C-142.68176025 92.76907464 -178.33910907 93.23918913 -214 94 C-214.41511841 94.94637329 -214.41511841 94.94637329 -214.83862305 95.91186523 C-216.1022238 98.76279047 -217.39433364 101.59987112 -218.6875 104.4375 C-219.34008789 105.92733398 -219.34008789 105.92733398 -220.00585938 107.44726562 C-220.44091797 108.39150391 -220.87597656 109.33574219 -221.32421875 110.30859375 C-221.71697998 111.18314209 -222.10974121 112.05769043 -222.5144043 112.95874023 C-224 115 -224 115 -226.42578125 115.8515625 C-230.32429427 116.07636295 -233.68361319 114.83158286 -237.3125 113.5625 C-238.10068115 113.29171631 -238.8888623 113.02093262 -239.70092773 112.74194336 C-255.22719737 107.22470294 -271.17705539 99.62696764 -280.1640625 85.12109375 C-282.15852365 80.06038159 -282.01103525 73.71715724 -280.125 68.6484375 C-278.9039742 66.5678738 -277.58649179 64.81546999 -276 63 C-275.56171875 62.46890625 -275.1234375 61.9378125 -274.671875 61.390625 C-265.97604203 52.51172186 -251.40705588 50.46115112 -239.76171875 48.2109375 C-239.10936941 48.08444195 -238.45702007 47.9579464 -237.78490257 47.82761765 C-216.44561064 43.72728994 -194.85533894 41.10265793 -173.32556152 38.22589111 C-114.34521889 30.34063093 -56.07879099 20.48528728 0 0 Z " fill="#0D3954" transform="translate(349,290)"/>
<path d="M0 0 C0.33 0 0.66 0 1 0 C1.85011545 33.86075244 -1.51018348 63.80582065 -25.734375 89.63671875 C-26.48203125 90.41660156 -27.2296875 91.19648438 -28 92 C-28.68578125 92.74894531 -29.3715625 93.49789062 -30.078125 94.26953125 C-78.67293416 145.65404241 -168.49629717 150.33536728 -234 159 C-295.53802126 162.78005378 -295.53802126 162.78005378 -347.8046875 189.22265625 C-351.44876422 194.64113635 -353.02781696 200.47102638 -352 207 C-347.25054215 225.29106683 -335.7003973 238.29100964 -320 248 C-286.03334817 267.68240834 -244.49249757 273.55291466 -205.80004883 274.57104492 C-204.96884521 274.5991626 -204.1376416 274.62728027 -203.28125 274.65625 C-202.18393555 274.68428711 -202.18393555 274.68428711 -201.06445312 274.71289062 C-198.71510186 275.0396216 -197.05421836 275.83972559 -195 277 C-198.81684107 280.45124326 -202.48530699 282.13872431 -207.375 283.5 C-208.09961426 283.7072168 -208.82422852 283.91443359 -209.57080078 284.12792969 C-228.47308795 289.28920651 -247.71954784 291.2340422 -267.25 291.25 C-267.99678009 291.25067474 -268.74356018 291.25134949 -269.51296997 291.25204468 C-309.5618879 291.19488917 -347.85379926 280.96889372 -377.5 252.9375 C-392.30160708 237.73811282 -400.63982445 219.25974558 -401.25 197.9375 C-400.65295716 176.16299625 -390.54929922 157.72215826 -375 143 C-333.64809222 105.05054916 -268.91940491 107.68335056 -216.46842575 104.33856201 C-110.51793009 100.33437199 -110.51793009 100.33437199 -22.203125 48.84765625 C-16.4043809 41.35247106 -12.83413474 33.60194461 -9.9375 24.625 C-9.26050792 22.60326209 -8.58084204 20.58241745 -7.8984375 18.5625 C-7.57584961 17.60472656 -7.25326172 16.64695313 -6.92089844 15.66015625 C-2.29365525 2.29365525 -2.29365525 2.29365525 0 0 Z " fill="#E2AB36" transform="translate(401,158)"/>
<path d="M0 0 C0.80991898 0.00359528 1.61983795 0.00719055 2.45429993 0.01089478 C3.30300659 0.01074875 4.15171326 0.01060272 5.02613831 0.01045227 C7.84523532 0.01115168 10.66426712 0.01894539 13.48335266 0.02676392 C15.43248458 0.028628 17.38161696 0.03005195 19.33074951 0.03105164 C24.47151473 0.03487761 29.61225188 0.04470858 34.75300598 0.05575562 C39.99449789 0.06596802 45.23599431 0.07054889 50.47749329 0.07559204 C60.76982335 0.08633078 71.06213255 0.10340815 81.35444641 0.12442017 C81.92186554 1.42186913 81.92186554 1.42186913 82.50074768 2.74552917 C89.69213648 19.18865427 96.88608594 35.63061281 104.10444641 52.06192017 C105.23926333 54.64568812 106.3740212 57.229482 107.5087738 59.8132782 C108.28354702 61.57739953 109.05834746 63.3415089 109.83317566 65.10560608 C112.63093093 71.47575818 115.42662031 77.84681471 118.22163391 84.21817017 C119.42183819 86.9536272 120.62208187 89.68906695 121.82234192 92.42449951 C122.57761455 94.14601357 123.33274787 95.86758875 124.08772278 97.5892334 C125.14758699 100.00608498 126.2080178 102.42268736 127.26850891 104.83926392 C127.77190796 105.98787148 127.77190796 105.98787148 128.28547668 107.15968323 C130.05693969 111.19548113 131.84467174 115.22323057 133.6542511 119.24209595 C134.02690094 120.07197525 134.39955078 120.90185455 134.78349304 121.75688171 C135.49791222 123.34576264 136.21540698 124.93326527 136.93638611 126.5191803 C139.35444641 131.90198846 139.35444641 131.90198846 139.35444641 134.12442017 C125.0516127 137.06342801 110.71040208 139.73582532 96.33076477 142.27139282 C92.86839302 142.88299679 89.40732502 143.50165626 85.94624329 144.12051392 C83.72952173 144.51286675 81.51272754 144.90480954 79.29585266 145.29629517 C77.75532982 145.57276886 77.75532982 145.57276886 76.1836853 145.85482788 C74.74949501 146.10574188 74.74949501 146.10574188 73.28633118 146.36172485 C72.45174881 146.50954407 71.61716644 146.65736328 70.7572937 146.80966187 C68.26254088 147.13645923 65.86758159 147.17907826 63.35444641 147.12442017 C62.95765686 146.25043579 62.56086731 145.37645142 62.15205383 144.47598267 C53.91907285 126.34363232 45.66934903 108.21939489 37.35444641 90.12442017 C31.70992305 102.0259091 26.38145204 114.05623137 21.10444641 126.12442017 C20.29470719 127.97214506 19.48481217 129.81980168 18.67475891 131.66738892 C17.19436076 135.04589912 15.71417668 138.42450135 14.23628235 141.80410767 C13.91075378 142.53339478 13.58522522 143.26268188 13.24983215 144.0140686 C12.33306575 146.10020832 12.33306575 146.10020832 11.65144348 148.21133423 C10.98042297 150.13223267 10.98042297 150.13223267 9.35444641 153.12442017 C5.25406713 154.12285828 1.10135339 154.34325433 -3.10307312 154.60513306 C-4.36523651 154.68514053 -5.6273999 154.76514801 -6.92781067 154.84757996 C-8.29465178 154.93092103 -9.66150389 155.01408193 -11.02836609 155.09707642 C-12.44836956 155.18516092 -13.86836247 155.27341562 -15.28834534 155.36183167 C-18.26210892 155.54624547 -21.23600321 155.72834211 -24.21000671 155.90884399 C-27.9889744 156.13842116 -31.76753156 156.37410426 -35.54600716 156.61162663 C-38.48011827 156.79530329 -41.41443817 156.97545654 -44.34882736 157.15463066 C-45.7401043 157.2400285 -47.13131467 157.32651927 -48.52244949 157.41420174 C-56.90896812 157.94068723 -65.24218619 158.24305984 -73.64555359 158.12442017 C-71.73792325 152.08381208 -69.52778236 146.28789893 -66.94242859 140.50723267 C-66.58838455 139.70617096 -66.23434052 138.90510925 -65.86956787 138.07977295 C-65.11043251 136.36283109 -64.34956806 134.64665284 -63.58711243 132.93118286 C-61.53362669 128.30953827 -59.49440312 123.68160429 -57.45414734 119.05410767 C-57.04150131 118.11889282 -56.62885529 117.18367798 -56.20370483 116.22012329 C-52.56432369 107.96250138 -48.99711556 99.67543078 -45.45805359 91.37442017 C-37.97562649 73.83380727 -30.37419164 56.34526243 -22.76396179 38.85977173 C-21.81933697 36.68766144 -20.87491549 34.5154627 -19.93070984 32.34317017 C-19.47742813 31.30062073 -19.02414642 30.25807129 -18.55712891 29.18392944 C-15.31289452 21.70530626 -12.12920027 14.20274412 -9.01446533 6.66921997 C-6.24426211 0.01170397 -6.24426211 0.01170397 0 0 Z " fill="#0D3954" transform="translate(181.6455535888672,94.87557983398438)"/>
<path d="M0 0 C24.09 0 48.18 0 73 0 C73 91.08 73 182.16 73 276 C48.91 276 24.82 276 0 276 C0 184.92 0 93.84 0 0 Z " fill="#0D3954" transform="translate(709,183)"/>
<path d="M0 0 C3 5.625 3 5.625 3 9 C1.68 9 0.36 9 -1 9 C-0.65066406 9.51949219 -0.30132813 10.03898437 0.05859375 10.57421875 C4.57820738 17.50087873 4.57820738 17.50087873 5 22 C4.01 22 3.02 22 2 22 C2.45052734 23.12148438 2.45052734 23.12148438 2.91015625 24.265625 C3.48056641 25.74289062 3.48056641 25.74289062 4.0625 27.25 C4.44535156 28.22453125 4.82820312 29.1990625 5.22265625 30.203125 C6.01113787 33.04007395 6.02437812 34.29409552 5 37 C3.68 36.01 2.36 35.02 1 34 C1.474375 35.134375 1.94875 36.26875 2.4375 37.4375 C4.1348234 41.91298952 4.68094105 46.24712186 5 51 C1.07166208 49.49645473 -0.44891448 47.25937398 -2.75 43.8125 C-10.32542636 33.17082964 -20.55045724 26.29803362 -33.125 22.5625 C-38.43379089 21.79186906 -43.64647167 21.83939415 -49 22 C-48.20335937 22.31453125 -47.40671875 22.6290625 -46.5859375 22.953125 C-35.68546638 27.35574837 -35.68546638 27.35574837 -31 31 C-31 31.33 -31 31.66 -31 32 C-35.95 32.495 -35.95 32.495 -41 33 C-39.97519531 33.30292969 -38.95039062 33.60585938 -37.89453125 33.91796875 C-36.53359972 34.34032681 -35.17293647 34.76355003 -33.8125 35.1875 C-33.13896484 35.38408203 -32.46542969 35.58066406 -31.77148438 35.78320312 C-26.95223508 37.31125778 -24.31248879 39.17294984 -21 43 C-22.98 43.66 -24.96 44.32 -27 45 C-26.19175781 45.24234375 -25.38351562 45.4846875 -24.55078125 45.734375 C-13.56566231 49.17964753 -13.56566231 49.17964753 -10 53 C-10 53.66 -10 54.32 -10 55 C-11.65 55.33 -13.3 55.66 -15 56 C-13.9171875 57.0209375 -13.9171875 57.0209375 -12.8125 58.0625 C-5 65.875 -5 65.875 -5 70 C-5.6084375 69.82984375 -6.216875 69.6596875 -6.84375 69.484375 C-8.74137474 68.95973757 -10.64140495 68.4437694 -12.54296875 67.93359375 C-14.96764041 67.27879542 -17.3865395 66.60242084 -19.80078125 65.91015625 C-35.74575145 61.46509385 -50.7342041 61.6275643 -65.6640625 69.52734375 C-69.48438687 71.93580911 -72.76437231 74.86379103 -76 78 C-75.32453125 77.79503906 -74.6490625 77.59007812 -73.953125 77.37890625 C-73.06109375 77.10949219 -72.1690625 76.84007812 -71.25 76.5625 C-70.36828125 76.29566406 -69.4865625 76.02882813 -68.578125 75.75390625 C-67.72734375 75.50511719 -66.8765625 75.25632812 -66 75 C-65.0409375 74.70609375 -65.0409375 74.70609375 -64.0625 74.40625 C-61.26829231 73.85587576 -58.5947029 73.90657932 -55.75 73.9375 C-54.67234375 73.94652344 -53.5946875 73.95554687 -52.484375 73.96484375 C-51.66453125 73.97644531 -50.8446875 73.98804688 -50 74 C-50.66 75.65 -51.32 77.3 -52 79 C-51.42894531 78.7834375 -50.85789062 78.566875 -50.26953125 78.34375 C-43.23514569 75.92812634 -36.42044789 75.16951383 -29 76 C-28.34 76.66 -27.68 77.32 -27 78 C-27.99 78.66 -28.98 79.32 -30 80 C-28.90300781 80.25394531 -27.80601562 80.50789063 -26.67578125 80.76953125 C-25.22124786 81.11674245 -23.76682658 81.46442358 -22.3125 81.8125 C-21.59126953 81.97814453 -20.87003906 82.14378906 -20.12695312 82.31445312 C-15.9381841 83.32817348 -12.60188755 84.52059417 -9 87 C-10.62722448 90.25444896 -14.16348505 90.62216084 -17.4375 91.75 C-31.94401978 97.0147221 -41.46496822 104.12178279 -48.6796875 118.078125 C-52.49490106 126.24607048 -52.49490106 126.24607048 -54 135 C-51.69 131.7 -49.38 128.4 -47 125 C-45.02 125.99 -45.02 125.99 -43 127 C-42.63648438 126.40832031 -42.27296875 125.81664062 -41.8984375 125.20703125 C-38.72424755 120.21785577 -35.76108581 116.51413477 -31 113 C-30.67 114.32 -30.34 115.64 -30 117 C-29.34 117 -28.68 117 -28 117 C-27.773125 116.4225 -27.54625 115.845 -27.3125 115.25 C-24.90712855 111.12650609 -21.69668586 109.04616274 -17.1875 107.75 C-16.135625 107.5025 -15.08375 107.255 -14 107 C-15.03068742 111.89576526 -16.18223527 116.7191068 -17.52148438 121.54077148 C-19.21622215 127.67807774 -20.75198002 133.61348546 -21 140 C-21.07734375 141.65902344 -21.07734375 141.65902344 -21.15625 143.3515625 C-21.36171866 151.62167601 -20.48687245 158.91872649 -18.65625 166.953125 C-18 170 -18 170 -18 173 C-46.63468335 179.9937245 -79.13318284 179.17434571 -105 164 C-108.2078148 161.8646775 -111.12453345 159.56218615 -114 157 C-114.99386719 156.14535156 -114.99386719 156.14535156 -116.0078125 155.2734375 C-130.61902613 141.80820141 -138.41518973 121.98775551 -139.21484375 102.41015625 C-139.82837076 79.13008904 -135.04728956 56.95112995 -118.671875 39.44921875 C-99.12484105 21.53110429 -71.66684983 16.22909571 -46.72460938 10.3416748 C-42.14168275 9.25855608 -37.56114466 8.16538632 -32.98052979 7.07254028 C-30.55577912 6.49462893 -28.13047878 5.91901697 -25.70452881 5.34616089 C-19.56436004 3.88877865 -13.48116336 2.33630662 -7.42926025 0.54446411 C-4.87846633 -0.02723904 -2.60540203 -0.09682606 0 0 Z " fill="#0D3954" transform="translate(955,290)"/>
<path d="M0 0 C10.28959955 0.76219256 19.12604207 4.07473085 26 12 C28.77590459 15.95989257 31.32331333 20.03496888 33.85449219 24.15380859 C42.60855627 38.26255382 51.0098668 46.06109329 65.984375 53.02880859 C67.38733932 53.70480085 68.77210671 54.41933989 70.140625 55.16259766 C70.83671875 55.53819824 71.5328125 55.91379883 72.25 56.30078125 C72.87390625 56.64923096 73.4978125 56.99768066 74.140625 57.35668945 C76.49456155 58.17110946 77.69304168 57.86601053 80 57 C81.73026102 55.52109931 81.73026102 55.52109931 83 54 C87.10115385 55.30711312 88.68516496 56.5625508 90.9375 60.1875 C99.12572238 70.99044885 114.68731269 74.2000828 127.04956055 78.27319336 C140.32563592 82.77615217 140.32563592 82.77615217 145 88 C145.82568359 89.99633789 145.82568359 89.99633789 146 92 C145.34 92.99 144.68 93.98 144 95 C134.45651375 93.34828948 125.01384149 91.30289812 115.55859375 89.2109375 C97.17442051 84.10395261 97.17442051 84.10395261 79 86 C81.15235103 89.82640183 83.34329491 93.62406642 85.625 97.375 C86.02976562 98.04273437 86.43453125 98.71046875 86.8515625 99.3984375 C87.92338916 101.15596867 87.92338916 101.15596867 90 102 C93.27633366 102.27817927 96.55254147 102.44691811 99.8359375 102.62109375 C103 103 103 103 107 105 C106.67 107.97 106.34 110.94 106 114 C113.26 116.97 120.52 119.94 128 123 C128 124.32 128 125.64 128 127 C123.57798922 130.01447419 118.37600889 129.06549654 113.28710938 128.83398438 C108.53612613 128.71280714 106.01619724 129.21220008 102 132 C99.27620145 131.74662339 97.4354048 131.2177024 95 130 C91.68407184 130.0088307 88.37983985 130.13193904 85.06640625 130.2578125 C82 130 82 130 79 127 C79.99 123.7 80.98 120.4 82 117 C80.81921875 115.83082031 79.6384375 114.66164063 78.421875 113.45703125 C76.86444998 111.90898831 75.3071657 110.36080378 73.75 108.8125 C72.97269531 108.04357422 72.19539063 107.27464844 71.39453125 106.48242188 C68.37697045 103.47775663 65.43445893 100.54345477 62.7734375 97.21484375 C60.71707712 94.64665799 58.46366717 92.77456955 55.875 90.75 C55.00617188 90.06421875 54.13734375 89.3784375 53.2421875 88.671875 C48.82050739 85.3748731 44.89915573 85.36242281 39.4609375 85.3984375 C33.31221186 86.46717762 29.99409986 90.46823285 26 95 C25.28328125 95.78503906 24.5665625 96.57007812 23.828125 97.37890625 C22.17839223 99.22330748 20.57215422 101.08946822 19 103 C15.52329933 101.12070234 12.83805588 99.57399755 11 96 C11.1621825 92.43198496 12.17005606 89.51560492 13.5 86.25 C14.77158478 83.09503021 15.14367064 80.51690646 15.25 77.125 C15.61762654 71.69415333 18.02112939 68.55616165 21.40625 64.421875 C23.45673683 61.30593913 24.13556289 59.76864844 24 56 C22.22431623 52.76746634 19.93701818 49.98848207 17.625 47.125 C12.93603924 41.0547493 8.53885817 35.02510453 4.8125 28.3125 C4.4633252 27.69068848 4.11415039 27.06887695 3.75439453 26.42822266 C0.71258351 20.82266412 -2.46699863 14.76271167 -2.3125 8.25 C-2.30863281 7.53328125 -2.30476563 6.8165625 -2.30078125 6.078125 C-1.96056983 3.72757336 -1.16284049 2.0569768 0 0 Z " fill="#E1AB36" transform="translate(298,17)"/>
<path d="M0 0 C15.0665625 -0.061875 15.0665625 -0.061875 30.4375 -0.125 C33.5923999 -0.14320801 36.7472998 -0.16141602 39.99780273 -0.18017578 C42.51806468 -0.18602087 45.03832852 -0.19111639 47.55859375 -0.1953125 C48.85124146 -0.20554443 50.14388916 -0.21577637 51.47570801 -0.22631836 C63.38969466 -0.22860797 74.03561938 1.05025043 82.859375 9.85546875 C89.89052482 18.57479069 91.09902841 28.02220489 90 39 C87.8957634 48.10583337 82.3846955 54.54834592 75 60 C77.20506792 63.64781752 79.41465555 67.29287771 81.625 70.9375 C82.24246094 71.95908203 82.85992187 72.98066406 83.49609375 74.03320312 C86.84269482 79.54628804 90.25763803 84.96876806 93.94677734 90.26000977 C95 92 95 92 95 94 C71.95108272 96.52271879 71.95108272 96.52271879 65.86865234 92.63916016 C61.57307962 87.97550736 59.35929856 81.88962718 57.29492188 75.98242188 C54.9590552 69.47018362 54.9590552 69.47018362 50 65 C41.08557683 63.07799612 32.07032739 63.78196328 23 64 C23 73.9 23 83.8 23 94 C15.41 94 7.82 94 0 94 C0 62.98 0 31.96 0 0 Z M23 21 C23 28.26 23 35.52 23 43 C28.03591769 43.06898517 33.07018692 43.12868238 38.10620117 43.16479492 C39.81817184 43.1798534 41.53010411 43.20030455 43.24194336 43.22631836 C45.70696505 43.2628319 48.17147535 43.27975562 50.63671875 43.29296875 C51.39836838 43.30845261 52.16001801 43.32393646 52.94474792 43.33988953 C57.4880849 43.34131864 60.42164466 42.86643124 64 40 C66.36665555 36.1064699 67.37195705 33.26363312 66.5 28.8125 C65.53037711 24.84512636 63.38849864 23.17317086 60 21 C57.00656068 20.657092 54.3987739 20.53083345 51.41796875 20.609375 C50.60378983 20.61503479 49.7896109 20.62069458 48.95075989 20.62652588 C46.36239647 20.64883226 43.7754416 20.69901555 41.1875 20.75 C39.42775444 20.77007253 37.66798707 20.78832198 35.90820312 20.8046875 C31.60449584 20.84526937 27.30381544 20.92356322 23 21 Z " fill="#E2AB36" transform="translate(189,507)"/>
<path d="M0 0 C27.72 0 55.44 0 84 0 C84 6.93 84 13.86 84 21 C64.2 21 44.4 21 24 21 C24 26.28 24 31.56 24 37 C40.5 37 57 37 74 37 C74 43.6 74 50.2 74 57 C57.5 57 41 57 24 57 C24 62.28 24 67.56 24 73 C43.8 73 63.6 73 84 73 C84 79.93 84 86.86 84 94 C56.28 94 28.56 94 0 94 C0 62.98 0 31.96 0 0 Z " fill="#E2AB36" transform="translate(659,507)"/>
<path d="M0 0 C2.51890735 2.18863104 4.81500066 4.47942056 7 7 C2.59156563 12.29012124 -2.07559794 17.18808428 -7 22 C-10.97278668 20.09599164 -14.63849347 17.77523921 -18.3671875 15.4375 C-27.40151241 10.50481222 -38.59213223 10.68282718 -48.515625 12.72265625 C-53.93761371 14.48278131 -53.93761371 14.48278131 -57.78515625 18.51953125 C-59.14661472 20.83902692 -59.14661472 20.83902692 -59 23 C-49.50169893 26.02264297 -39.91269121 27.12540476 -30.04833984 28.15405273 C-16.95959602 29.54019243 -3.58713191 31.09043092 6 41 C9.7622929 46.99615431 10.76451843 53.02103892 10 60 C7.62183859 69.269099 2.41762191 75.98912165 -5.5 81.25 C-21.76094812 90.17279912 -41.73561597 90.400163 -59.2734375 85.328125 C-68.74121007 81.95386643 -77.53360514 77.99790944 -84 70 C-82.70396588 67.17131143 -81.30810402 65.0298979 -79.1796875 62.765625 C-78.64472656 62.19199219 -78.10976563 61.61835937 -77.55859375 61.02734375 C-77.00300781 60.44082031 -76.44742188 59.85429688 -75.875 59.25 C-75.31167969 58.64800781 -74.74835937 58.04601562 -74.16796875 57.42578125 C-72.78275854 55.94665849 -71.3919271 54.47280359 -70 53 C-69.53851562 53.37511719 -69.07703125 53.75023437 -68.6015625 54.13671875 C-59.39485575 61.36016259 -49.63662379 66.40156822 -37.75 66.375 C-36.62609863 66.37258301 -36.62609863 66.37258301 -35.47949219 66.37011719 C-27.8779673 66.20265379 -22.33138697 64.10761217 -15.9375 60.0625 C-13.71447448 57.69605348 -13.26660399 56.19924794 -13 53 C-21.82769782 50.70479857 -30.77658977 50.12961185 -39.84179688 49.47363281 C-54.37648103 48.40229694 -67.6630933 46.36606083 -77.703125 34.9765625 C-81.86886048 28.62758011 -81.7244949 21.30755963 -81 14 C-80.09128155 10.96930117 -78.80233543 8.58751127 -77 6 C-76.29875 4.96875 -75.5975 3.9375 -74.875 2.875 C-57.30378074 -16.90609653 -19.83062769 -13.59357544 0 0 Z " fill="#E2AB36" transform="translate(1026,515)"/>
<path d="M0 0 C1.32 0 2.64 0 4 0 C7.34181377 19.87369919 10.29061186 39.78599817 13.03173828 59.7512207 C13.15555878 60.65241638 13.27937927 61.55361206 13.4069519 62.4821167 C13.63887233 64.17334209 13.86983402 65.86469936 14.09963989 67.55621338 C15.00626663 74.18866824 16.14258988 80.74401808 17.4375 87.3125 C17.82516765 89.46091937 18.20513503 91.61057945 18.58300781 93.76074219 C19.00418285 96.02246198 19.49655129 98.26138275 19.9921875 100.5078125 C22.08841858 111.01659532 22.08841858 111.01659532 19.52734375 115.68359375 C16.89637978 118.21527606 14.0962258 120.10758412 11 122 C9.57961539 122.93320281 8.16041841 123.86821485 6.7421875 124.8046875 C-1.49082772 130.12048567 -9.74049012 134.71378179 -19 138 C-18.29157163 131.39390548 -16.31441941 125.46905675 -14.171875 119.203125 C-12.13417723 113.03009941 -10.18962013 106.77096764 -11.5859375 100.2734375 C-13.49056987 97.21129375 -15.92774839 94.96728468 -18.625 92.625 C-19.16769531 92.14168213 -19.71039062 91.65836426 -20.26953125 91.16040039 C-21.83944252 89.76551931 -23.41895721 88.38223216 -25 87 C-25.70898438 86.36707031 -26.41796875 85.73414063 -27.1484375 85.08203125 C-31.10251256 81.57007851 -35.1442438 78.15857332 -39.1875 74.75 C-40.66283203 73.50476563 -40.66283203 73.50476563 -42.16796875 72.234375 C-44.90843501 69.96780591 -44.90843501 69.96780591 -47.8125 68.34765625 C-50 67 -50 67 -50.8125 64.6875 C-52.19520868 61.55821193 -53.31898378 60.96783027 -56.125 59.125 C-58.2890625 57.625 -58.2890625 57.625 -60 56 C-60.5 52.125 -60.5 52.125 -60 49 C-59.01 49 -58.02 49 -57 49 C-56.67 50.32 -56.34 51.64 -56 53 C-51.18532235 52.04682895 -51.18532235 52.04682895 -47.36328125 49.22265625 C-45.9231724 46.8747424 -45.20292511 44.84438954 -44.5 42.1875 C-43.63358858 39.06566839 -42.70079063 36.17649058 -41.3125 33.25 C-39.95454367 29.88744146 -39.7376213 27.58584223 -40 24 C-33.75213381 21.0360527 -27.62344568 19.77603187 -20.8515625 18.5390625 C-14.48662599 17.32517223 -14.48662599 17.32517223 -9 14 C-8.19698432 11.88271077 -8.19698432 11.88271077 -8.0625 9.5625 C-7.40770085 5.61444633 -7.2597694 5.21205666 -3.9375 2.5 C-2.968125 2.005 -1.99875 1.51 -1 1 C-0.67 0.67 -0.34 0.34 0 0 Z " fill="#0D3954" transform="translate(1619,318)"/>
<path d="M0 0 C0.9583374 0.00523682 1.9166748 0.01047363 2.90405273 0.01586914 C4.45576172 0.02070313 4.45576172 0.02070313 6.03881836 0.02563477 C7.12743164 0.03401367 8.21604492 0.04239258 9.33764648 0.05102539 C10.97636719 0.05779297 10.97636719 0.05779297 12.64819336 0.06469727 C15.35723144 0.07652713 18.06616248 0.09300996 20.77514648 0.11352539 C21.15383881 0.87313065 21.53253113 1.6327359 21.92269897 2.4153595 C25.53766495 9.66554629 29.1546856 16.91470377 32.77387047 24.16278553 C34.63329276 27.88679139 36.49198945 31.61115527 38.34887695 35.33642578 C49.3595514 57.44490628 49.3595514 57.44490628 60.78149414 79.34277344 C61.44718656 80.59908649 62.11172746 81.85601035 62.77514648 83.11352539 C63.15386902 83.82594391 63.53259155 84.53836243 63.92279053 85.27236938 C64.29091858 85.9815451 64.65904663 86.69072083 65.03833008 87.42138672 C65.37158295 88.05756424 65.70483582 88.69374176 66.04818726 89.34919739 C66.77514648 91.11352539 66.77514648 91.11352539 66.77514648 94.11352539 C58.52514648 94.11352539 50.27514648 94.11352539 41.77514648 94.11352539 C40.29014648 91.18477539 38.80514648 88.25602539 37.27514648 85.23852539 C36.8052832 84.31700684 36.33541992 83.39548828 35.85131836 82.44604492 C35.48586914 81.7201416 35.12041992 80.99423828 34.74389648 80.24633789 C34.3668457 79.50270996 33.98979492 78.75908203 33.60131836 77.99291992 C32.77514648 76.11352539 32.77514648 76.11352539 32.77514648 74.11352539 C17.26514648 74.44352539 1.75514648 74.77352539 -14.22485352 75.11352539 C-17.52485352 81.38352539 -20.82485352 87.65352539 -24.22485352 94.11352539 C-32.47485352 94.11352539 -40.72485352 94.11352539 -49.22485352 94.11352539 C-47.6275778 89.32169824 -45.82074613 85.11571064 -43.49829102 80.68383789 C-43.1219603 79.95620239 -42.74562958 79.22856689 -42.3578949 78.47888184 C-41.53862027 76.8950471 -40.7175625 75.31213374 -39.89492798 73.7300415 C-37.65213789 69.41527211 -35.42386761 65.09304181 -33.19750977 60.76977539 C-32.72349228 59.84943512 -32.24947479 58.92909485 -31.76109314 57.98086548 C-24.65520837 44.1509183 -17.75443028 30.21695293 -10.83374023 16.29370117 C-10.33310562 15.28827271 -9.83247101 14.28284424 -9.31666565 13.24694824 C-8.37146142 11.3485077 -7.42797411 9.4492111 -6.48643494 7.5489502 C-6.06987137 6.71255005 -5.6533078 5.8761499 -5.22412109 5.0144043 C-4.67840202 3.91511093 -4.67840202 3.91511093 -4.12165833 2.79360962 C-2.70412169 0.13798053 -2.70412169 0.13798053 0 0 Z M8.77514648 27.11352539 C7.16642974 30.13195633 5.56401599 33.153691 3.96264648 36.17602539 C3.51083008 37.02358398 3.05901367 37.87114258 2.59350586 38.74438477 C2.15200195 39.57905273 1.71049805 40.4137207 1.25561523 41.27368164 C0.85238037 42.03302002 0.44914551 42.7923584 0.03369141 43.57470703 C-1.51285499 46.69450063 -2.85319293 49.91298402 -4.22485352 53.11352539 C4.35514648 53.11352539 12.93514648 53.11352539 21.77514648 53.11352539 C20.44309441 49.11736916 19.25397756 45.82814059 17.39233398 42.15258789 C16.94760742 41.26958008 16.50288086 40.38657227 16.04467773 39.47680664 C15.58448242 38.57317383 15.12428711 37.66954102 14.65014648 36.73852539 C14.1822168 35.81168945 13.71428711 34.88485352 13.23217773 33.92993164 C12.08345593 31.65593133 10.93102767 29.38389257 9.77514648 27.11352539 C9.44514648 27.11352539 9.11514648 27.11352539 8.77514648 27.11352539 Z " fill="#E2AB36" transform="translate(389.224853515625,506.886474609375)"/>
<path d="M0 0 C24.09 0 48.18 0 73 0 C73 22.44 73 44.88 73 68 C48.91 68 24.82 68 0 68 C0 45.56 0 23.12 0 0 Z " fill="#0D3954" transform="translate(709,79)"/>
<path d="M0 0 C9.24 0 18.48 0 28 0 C29.815 3.91875 31.63 7.8375 33.5 11.875 C38.51793154 22.68753342 43.55439855 33.49138394 48.61816406 44.28253174 C49.33010625 45.80048838 50.04120898 47.31883904 50.75146484 48.83758545 C51.75251146 50.97748099 52.75669448 53.11587655 53.76171875 55.25390625 C54.06015182 55.89333664 54.3585849 56.53276703 54.6660614 57.1915741 C55.96751679 59.95202539 57.30207168 62.45310752 59 65 C59.39867783 64.20042374 59.79735565 63.40084747 60.20811462 62.57704163 C63.95842991 55.0564066 67.71064972 47.53672562 71.46503353 40.01812077 C73.39531115 36.15233817 75.32483996 32.28618555 77.25268555 28.41918945 C79.1118148 24.69009688 80.97287421 20.96197362 82.83529854 17.23452568 C83.54690515 15.80945914 84.25780547 14.3840397 84.96800041 12.95826912 C85.95981301 10.96742665 86.95408813 8.9778331 87.94897461 6.98852539 C88.51523056 5.85379288 89.08148651 4.71906036 89.66490173 3.54994202 C91 1 91 1 92 0 C93.78071246 -0.08726223 95.5648314 -0.10699041 97.34765625 -0.09765625 C98.42724609 -0.09443359 99.50683594 -0.09121094 100.61914062 -0.08789062 C102.32360352 -0.07532227 102.32360352 -0.07532227 104.0625 -0.0625 C105.77276367 -0.05573242 105.77276367 -0.05573242 107.51757812 -0.04882812 C110.34510351 -0.03699747 113.1725264 -0.0205141 116 0 C115.42656439 3.47846993 114.55607517 6.21101671 112.88378906 9.30883789 C112.43485291 10.15216171 111.98591675 10.99548553 111.52337646 11.86436462 C111.02581848 12.78697586 110.5282605 13.7095871 110.015625 14.66015625 C104.74251764 24.60196938 99.63621269 34.615625 94.609375 44.68359375 C94.06892799 45.76519209 94.06892799 45.76519209 93.51756287 46.8686409 C91.30219915 51.30272308 89.08981865 55.7382873 86.878479 60.17437744 C84.96869174 64.00438458 83.05649351 67.83318768 81.14453125 71.66210938 C77.42740034 79.10693356 73.71305182 86.55314056 70 94 C62.41 94 54.82 94 47 94 C37.82166281 76.83066698 29.13395693 59.42193402 20.4375 42.00537109 C18.27928092 37.68315152 16.11738225 33.36278394 13.95448112 29.04290581 C12.28198091 25.70150228 10.61137039 22.35915686 8.94134903 19.01651382 C8.14369574 17.42053989 7.34544747 15.82486317 6.54659653 14.22948837 C5.44173048 12.02227744 4.33941063 9.81381404 3.23779297 7.60498047 C2.74239265 6.61721619 2.74239265 6.61721619 2.23698425 5.60949707 C0 1.11428069 0 1.11428069 0 0 Z " fill="#E2AB36" transform="translate(485,507)"/>
<path d="M0 0 C34.65 0 69.3 0 105 0 C105 6.93 105 13.86 105 21 C91.47 21 77.94 21 64 21 C64 45.09 64 69.18 64 94 C56.41 94 48.82 94 41 94 C41 69.91 41 45.82 41 21 C27.47 21 13.94 21 0 21 C0 14.07 0 7.14 0 0 Z " fill="#E2AB36" transform="translate(26,507)"/>
<path d="M0 0 C7.92 0 15.84 0 24 0 C24 24.09 24 48.18 24 73 C43.8 73 63.6 73 84 73 C84 79.93 84 86.86 84 94 C56.28 94 28.56 94 0 94 C0 62.98 0 31.96 0 0 Z " fill="#E2AB36" transform="translate(801,507)"/>
<path d="M0 0 C3.87017901 1.01846816 6.87893881 2.51462707 10.1875 4.6875 C23.50757097 12.80134854 39.25200479 16.35831848 54.2121582 20.24755859 C55.40800537 20.56289551 56.60385254 20.87823242 57.8359375 21.203125 C58.90376465 21.47801758 59.9715918 21.75291016 61.07177734 22.03613281 C66.34633771 23.77233127 69.2939507 25.72235996 71.8125 30.6875 C72.23144531 31.49574219 72.65039062 32.30398437 73.08203125 33.13671875 C73.53642578 34.05904297 73.53642578 34.05904297 74 35 C74.66644531 34.7834375 75.33289063 34.566875 76.01953125 34.34375 C76.94121094 34.0653125 77.86289062 33.786875 78.8125 33.5 C79.70582031 33.2215625 80.59914063 32.943125 81.51953125 32.65625 C92.78686313 30.53176991 103.19828088 33.31980487 114.17382812 35.8671875 C128.20937334 38.98125458 138.49508944 39.08731305 151 31.6875 C151.99 31.130625 152.98 30.57375 154 30 C154.66 30.33 155.32 30.66 156 31 C151.02025623 39.7145516 142.68416374 44.78176614 133.1394043 47.53710938 C129.31927155 48.36364957 125.45675034 48.19038463 121.5625 48.1875 C120.66015625 48.18814453 119.7578125 48.18878906 118.828125 48.18945312 C112.90090381 48.14281548 107.34995506 47.53039793 101.51953125 46.4453125 C93.7430836 45.46138905 85.82388925 45.85959122 78 46 C80.19749977 50.35749955 82.49790925 52.2504178 86.6875 54.6875 C88.48882361 55.74119254 90.26951592 56.8336126 92 58 C92 58.66 92 59.32 92 60 C85.73586789 60.30608827 80.89733892 59.37053039 75 57.3125 C74.24460937 57.06822266 73.48921875 56.82394531 72.7109375 56.57226562 C64.81107958 53.89147192 58.656291 50.62400461 54.09765625 43.515625 C52.70027761 41.58614844 51.24600472 40.74866824 49 40 C50.13304992 36.60085025 51.12518475 35.94745549 54 34 C45.09027915 29.01424947 36.25678789 24.58495982 26.6875 21 C15.74668691 16.82715198 6.08468689 11.43089182 0 1 C0 0.67 0 0.34 0 0 Z " fill="#E0AA35" transform="translate(572,0)"/>
<path d="M0 0 C10.12840925 9.1307863 13.40079629 28.22372182 14.625 41.5 C14.74875 42.655 14.8725 43.81 15 45 C15.99 45.495 15.99 45.495 17 46 C16.34 46 15.68 46 15 46 C14.79117188 46.56976563 14.58234375 47.13953125 14.3671875 47.7265625 C7.66187591 58.87653778 -12.22491152 65.86734735 -24 69 C-24.99 69 -25.98 69 -27 69 C-28.1482685 66.703463 -28.11561175 65.41686833 -28.09765625 62.8671875 C-28.09443359 62.06152344 -28.09121094 61.25585938 -28.08789062 60.42578125 C-28.07951172 59.58402344 -28.07113281 58.74226563 -28.0625 57.875 C-28.05798828 57.02550781 -28.05347656 56.17601562 -28.04882812 55.30078125 C-28.03702874 53.20049091 -28.01909306 51.1002367 -28 49 C-27.34 49 -26.68 49 -26 49 C-25.01 51.97 -24.02 54.94 -23 58 C-23.09539063 56.87722656 -23.19078125 55.75445312 -23.2890625 54.59765625 C-23.89809853 46.67665205 -24.3792314 39.69751335 -22 32 C-21.34 32 -20.68 32 -20 32 C-18.515 35.465 -18.515 35.465 -17 39 C-17.02320313 37.99839844 -17.04640625 36.99679687 -17.0703125 35.96484375 C-17.08908789 34.62240336 -17.10728618 33.27995482 -17.125 31.9375 C-17.14820313 30.62652344 -17.17140625 29.31554687 -17.1953125 27.96484375 C-16.99417522 23.88175701 -16.27165462 20.85000947 -15 17 C-10.125 21.75 -10.125 21.75 -9 24 C-8.97421875 23.2265625 -8.9484375 22.453125 -8.921875 21.65625 C-8.47762749 13.49825033 -7.27971344 7.64412605 -1.75 1.5 C-1.1725 1.005 -0.595 0.51 0 0 Z " fill="#0D3953" transform="translate(966,393)"/>
<path d="M0 0 C-0.17152939 4.37399957 -0.41548523 6.41011449 -3.55078125 9.57421875 C-7.09412723 12.34357894 -10.76273013 13.48481826 -15.0625 14.625 C-19.75506394 15.9146926 -23.92297738 17.25019527 -28 20 C-27.21625 20.78375 -26.4325 21.5675 -25.625 22.375 C-24.08333333 23.91666667 -22.54166667 25.45833333 -21 27 C-21 27.99 -21 28.98 -21 30 C-23.08219049 30.81542431 -25.16579761 31.62723189 -27.25 32.4375 C-28.41015625 32.88996094 -29.5703125 33.34242188 -30.765625 33.80859375 C-36.5771089 35.94929736 -41.5358635 36.18299331 -47.6875 36.1875 C-48.97817383 36.20586914 -48.97817383 36.20586914 -50.29492188 36.22460938 C-56.15873993 36.23786593 -61.31831915 35.45639843 -67 34 C-66.67 33.01 -66.34 32.02 -66 31 C-63.8203125 30.05078125 -63.8203125 30.05078125 -61.125 29.3125 C-60.24070312 29.06113281 -59.35640625 28.80976562 -58.4453125 28.55078125 C-56 28 -56 28 -53 28 C-55.3569793 22.54173214 -57.90207342 19.39610507 -63.375 16.9296875 C-70.70134234 14.33494126 -78.8285838 14.98147184 -86.5 15.0625 C-93.41268719 15.12484362 -100.35297069 15.17539141 -107 13 C-107.66 12.34 -108.32 11.68 -109 11 C-98.14183188 5.04073195 -81.31298609 6.74812359 -69.3125 6.5625 C-67.55969727 6.51101807 -67.55969727 6.51101807 -65.77148438 6.45849609 C-57.54258721 6.41723372 -50.40019238 7.75925754 -44.28198242 13.65576172 C-42.875 15.3125 -42.875 15.3125 -41 18 C-40.5875 17.62488281 -40.175 17.24976562 -39.75 16.86328125 C-31.01143426 9.1195076 -24.6698058 6.45690459 -13 5 C-8.84787174 4.23910446 -3.34094559 0 0 0 Z " fill="#E0AA35" transform="translate(622,97)"/>
<path d="M0 0 C7.9853771 0.68102714 19.11534303 2.11534303 25 8 C24.81343167 11.82465067 23.70783639 14.65288999 22 18 C19.13985727 24.04153338 19.18729089 30.41672508 19 37 C8.43932064 40.52022645 -4.00085275 39.09695624 -15 39 C-14.453517 33.78913368 -13.17629234 29.38943947 -11.09375 24.5703125 C-10.80898804 23.89451141 -10.52422607 23.21871033 -10.23083496 22.52243042 C-9.63284371 21.10739337 -9.03094075 19.69400352 -8.42529297 18.28222656 C-7.4950822 16.11353464 -6.57664565 13.94014658 -5.66015625 11.765625 C-5.07619042 10.38773686 -4.49157826 9.01012243 -3.90625 7.6328125 C-3.63018921 6.98184601 -3.35412842 6.33087952 -3.06970215 5.66018677 C-1.11763914 1.11763914 -1.11763914 1.11763914 0 0 Z " fill="#0D3953" transform="translate(1550,427)"/>
<path d="M0 0 C2.3125 0.125 2.3125 0.125 5 1 C7.99283581 5.33445186 8.31100973 8.81650457 8 14 C6.10546875 13.8046875 6.10546875 13.8046875 4 13 C2.98828125 10.8203125 2.98828125 10.8203125 2.3125 8.125 C2.08175781 7.24070312 1.85101562 6.35640625 1.61328125 5.4453125 C1.41089844 4.63835937 1.20851563 3.83140625 1 3 C0.67 2.01 0.34 1.02 0 0 Z " fill="#0C3752" transform="translate(1625,299)"/>
<path d="M0 0 C1.98 0.66 3.96 1.32 6 2 C4.4722133 5.43752007 2.49818944 8.18953688 0 11 C-0.66 11 -1.32 11 -2 11 C-1.85957123 9.35369672 -1.71250671 7.70795821 -1.5625 6.0625 C-1.48128906 5.14597656 -1.40007812 4.22945313 -1.31640625 3.28515625 C-1 1 -1 1 0 0 Z " fill="#0B3750" transform="translate(1524,266)"/>
<path d="M0 0 C0.66 0 1.32 0 2 0 C1.74481529 2.27264504 1.47030939 4.54312705 1.1875 6.8125 C1.03667969 8.07707031 0.88585938 9.34164063 0.73046875 10.64453125 C0.01844789 13.91525811 -0.36608673 15.058842 -3 17 C-3.34548714 10.66606918 -2.29342747 5.89738492 0 0 Z " fill="#0C334B" transform="translate(1513,325)"/>
</svg>
