<svg width="44" height="29" viewBox="0 0 44 29" fill="none" xmlns="http://www.w3.org/2000/svg">
<path d="M12.5937 13.6323C13.643 13.6323 13.6279 13.6323 13.6373 14.7013C13.6373 14.9834 13.5837 15.0915 13.2772 15.0774C12.7714 15.0492 12.2618 15.0614 11.7541 15.0774C11.5482 15.0831 11.4805 15.0332 11.472 14.8104C11.425 13.6323 11.4166 13.6323 12.5937 13.6323Z" fill="black"/>
<path d="M30.4547 15.0672C29.4054 15.0672 29.4158 15.0672 29.4102 13.9981C29.4102 13.7161 29.4628 13.608 29.7693 13.6221C30.2752 13.6503 30.7847 13.638 31.2925 13.6221C31.4984 13.6164 31.567 13.6653 31.5745 13.8891C31.6262 15.0672 31.6318 15.0672 30.4547 15.0672Z" fill="black"/>
<path d="M12.5491 18.6541C11.465 18.6541 11.4792 18.6541 11.4707 17.572C11.4707 17.2664 11.5647 17.1959 11.8467 17.2138C12.3385 17.2354 12.833 17.2354 13.3248 17.2138C13.5899 17.2015 13.635 17.2984 13.6388 17.5409C13.6501 18.6541 13.6576 18.6541 12.5491 18.6541Z" fill="black"/>
<path d="M30.463 18.6239C29.4081 18.6549 29.4222 18.6549 29.4062 17.5944C29.4062 17.2691 29.5003 17.1948 29.804 17.2127C30.2812 17.24 30.7596 17.24 31.2368 17.2127C31.5283 17.1957 31.5988 17.2982 31.5706 17.5634C31.533 17.915 31.722 18.4011 31.4963 18.5872C31.2707 18.7734 30.8184 18.6239 30.463 18.6239Z" fill="black"/>
<path d="M30.4509 11.4802C29.4045 11.4802 29.4167 11.4802 29.4082 10.4084C29.4082 10.1263 29.4703 10.022 29.7711 10.038C30.2779 10.0643 30.7866 10.0549 31.2943 10.038C31.5039 10.0323 31.566 10.0887 31.5763 10.3078C31.6205 11.4802 31.628 11.4802 30.4509 11.4802Z" fill="black"/>
<path d="M12.5315 22.2409C11.4738 22.2409 11.4879 22.2409 11.4728 21.1842C11.4681 20.8636 11.5575 20.7808 11.8668 20.7987C12.3585 20.8259 12.8531 20.8194 13.3448 20.7987C13.5874 20.7893 13.6344 20.873 13.6391 21.0995C13.6626 22.2409 13.6701 22.2409 12.5315 22.2409Z" fill="black"/>
<path d="M30.4706 22.2419C29.4091 22.2419 29.4223 22.2419 29.4082 21.1889C29.4082 20.8749 29.4806 20.7809 29.7984 20.7987C30.3042 20.8279 30.8138 20.8147 31.3215 20.7987C31.5171 20.794 31.6036 20.8514 31.5697 21.0498C31.5683 21.0648 31.5683 21.0799 31.5697 21.0949C31.6073 22.2419 31.6073 22.2419 30.4706 22.2419Z" fill="black"/>
<path d="M12.5192 11.4802C11.4699 11.4802 11.4803 11.4802 11.4746 10.4112C11.4746 10.1292 11.5273 10.021 11.8338 10.0351C12.3396 10.0634 12.8492 10.0521 13.3569 10.0351C13.5628 10.0295 13.6314 10.0784 13.639 10.3022C13.6907 11.4802 13.6963 11.4802 12.5192 11.4802Z" fill="black"/>
<path d="M43.0395 22.1563C43.0274 21.5153 42.7973 20.8976 42.3871 20.4048C41.9769 19.9121 41.4111 19.5738 40.783 19.4457C40.1025 19.3468 39.4132 19.3241 38.7277 19.378C37.9719 19.3773 37.2466 19.6764 36.7111 20.2098C36.1756 20.7432 35.8736 21.4673 35.8713 22.2231C35.8638 22.6415 35.8713 23.0608 35.8713 23.4782C35.8713 23.592 35.9024 23.7321 35.7266 23.7547C35.2743 23.8605 34.84 24.0322 34.4376 24.2643V21.8921C34.4376 20.7817 34.4376 20.7959 33.3253 20.7968C33.0235 20.7968 32.9944 20.9058 32.9972 21.1569C33.0104 22.1131 32.9925 23.0693 33.0084 24.0254C33.0084 24.3075 32.9586 24.4015 32.6512 24.4015C31.2164 24.3827 29.7817 24.3865 28.3469 24.4015C28.0649 24.4015 27.9709 24.3508 27.9709 24.0433C27.9815 18.7832 27.9815 13.5231 27.9709 8.26295C27.9709 7.92824 28.0818 7.88688 28.3742 7.88688C29.7638 7.90192 31.1534 7.90662 32.543 7.88688C32.9013 7.88124 33.0131 7.94893 33.0131 8.33629C32.9953 11.6834 33.0028 15.0315 33.0028 18.3786C33.0028 19.379 33.0028 19.3649 34.0267 19.3827C34.3454 19.3884 34.4498 19.331 34.4488 18.9794C34.4338 15.1246 34.4395 11.2697 34.4395 7.4149C34.4395 6.69282 34.2044 6.46435 33.4663 6.46435C31.7918 6.46435 30.1183 6.44649 28.4457 6.47658C28.0292 6.4841 27.9652 6.35248 27.9756 5.98298C28.0019 5.01175 27.9859 4.04051 27.9831 3.06835C27.9831 2.40268 27.7349 2.162 27.0579 2.15917C26.5201 2.15917 25.9814 2.13943 25.4455 2.16669C25.1531 2.18174 25.0929 2.07925 25.1098 1.81412C25.1324 1.47282 25.123 1.12682 25.1098 0.779889C25.1199 0.678546 25.1079 0.576219 25.0746 0.479964C25.0414 0.383709 24.9876 0.295815 24.9171 0.222347C24.8465 0.148898 24.761 0.0916222 24.6662 0.0544518C24.5714 0.0172814 24.4696 0.00111116 24.368 0.00705151C22.47 -0.0023505 20.5721 -0.0023505 18.6742 0.00705151C18.5763 0.00145819 18.4783 0.0166641 18.3868 0.0516686C18.2952 0.0866731 18.2121 0.140671 18.1429 0.210124C18.0738 0.279606 18.02 0.362953 17.9854 0.454672C17.9507 0.54639 17.9358 0.64441 17.9417 0.742287C17.9286 1.11837 17.9239 1.49445 17.9417 1.86301C17.954 2.09994 17.8797 2.16669 17.6437 2.16011C17.0796 2.14318 16.5079 2.15165 15.94 2.16011C15.3251 2.16011 15.0713 2.41678 15.0675 3.03073C15.0675 4.04709 15.0534 5.06345 15.0741 6.07887C15.0807 6.38913 15.0074 6.47563 14.6877 6.47187C12.954 6.45401 11.2212 6.46153 9.48745 6.46435C8.87068 6.46435 8.61305 6.72009 8.61117 7.33028C8.61117 8.36451 8.61117 9.39214 8.61117 10.4235C8.61117 11.4916 8.61115 11.4784 9.6576 11.4925C9.96222 11.4925 10.0619 11.4343 10.0544 11.109C10.0299 10.1537 10.0544 9.19657 10.0393 8.24039C10.0346 7.97337 10.0892 7.88688 10.3769 7.8897C11.8267 7.90663 13.2761 7.90663 14.7253 7.8897C14.9923 7.8897 15.075 7.94047 15.0741 8.22723C15.0641 13.5024 15.0641 18.7775 15.0741 24.0527C15.0741 24.3752 14.9547 24.4034 14.6905 24.4015C13.2859 24.3912 11.8812 24.3855 10.4765 24.4015C10.14 24.4015 10.0327 24.3366 10.0346 23.9728C10.0506 20.6539 10.044 17.3378 10.044 14.0208C10.044 12.8794 10.044 12.8859 8.90734 12.9094C8.68545 12.9094 8.59331 12.9536 8.60366 13.2009C8.6234 13.7086 8.6102 14.2173 8.6102 14.725V24.3066C8.26367 24.0523 7.86734 23.8742 7.44717 23.7838C7.20648 23.7415 7.16514 23.6371 7.17172 23.4284C7.183 22.994 7.18488 22.5597 7.17172 22.1281C7.14357 21.4042 6.84215 20.7178 6.32821 20.2072C5.81427 19.6965 5.126 19.3996 4.4019 19.3761C3.93932 19.363 3.47578 19.3705 3.01226 19.3761C2.61185 19.3561 2.2117 19.4201 1.83758 19.5642C1.46346 19.7083 1.12371 19.9292 0.840221 20.2127C0.556735 20.4962 0.335803 20.836 0.19171 21.2101C0.0476157 21.5842 -0.016482 21.9844 0.00360032 22.3848C0.00360032 24.1336 0.00360032 25.8814 0.00360032 27.6302C0.00360032 28.5093 0.191642 28.6973 1.08577 28.6973H41.9676C42.0616 28.6973 42.1472 28.6973 42.2365 28.6973C42.3452 28.71 42.4553 28.698 42.5587 28.6622C42.6621 28.6263 42.756 28.5676 42.8336 28.4905C42.9111 28.4133 42.9703 28.3196 43.0066 28.2164C43.0429 28.1132 43.0554 28.0031 43.0433 27.8944C43.0498 25.982 43.0611 24.0687 43.0395 22.1563ZM2.88532 26.9269C2.8684 27.1958 2.81387 27.2701 2.53745 27.2701C1.43741 27.2701 1.43743 27.2804 1.43743 26.1682V24.5538C1.43743 23.8092 1.43273 23.0627 1.43743 22.3162C1.42715 22.1143 1.45939 21.9126 1.53212 21.7241C1.60484 21.5355 1.7164 21.3644 1.85956 21.2218C2.00262 21.0792 2.17407 20.9682 2.36277 20.8962C2.55147 20.8241 2.75323 20.7925 2.95493 20.8034C3.40247 20.8034 3.84998 20.7949 4.29752 20.8034C4.48798 20.8027 4.67667 20.84 4.85261 20.9129C5.02854 20.9859 5.18824 21.0931 5.32236 21.2283C5.45665 21.3636 5.5627 21.5241 5.63437 21.7007C5.70603 21.8773 5.74185 22.0664 5.73978 22.2569C5.73527 22.3314 5.73527 22.4062 5.73978 22.4807C5.79443 22.6448 5.81333 22.8187 5.79522 22.9908C5.77711 23.1628 5.72239 23.329 5.63477 23.4782C5.54714 23.6273 5.42864 23.756 5.28719 23.8556C5.14573 23.9552 4.98459 24.0234 4.81462 24.0555C4.23778 24.2791 3.74348 24.6743 3.39846 25.1878C3.05344 25.7013 2.87431 26.3083 2.88532 26.9269ZM8.19938 27.2729C7.62115 27.2306 7.03725 27.2626 6.45526 27.2626C5.85918 27.2626 5.26124 27.239 4.66892 27.272C4.31916 27.2908 4.25711 27.1479 4.32105 26.8639C4.35356 26.6887 4.40004 26.5164 4.46015 26.3487C4.65346 25.8987 4.99726 25.5299 5.4326 25.3056C5.86794 25.0812 6.36775 25.0152 6.8464 25.1189C7.27912 25.1689 7.68381 25.3582 7.99945 25.6584C8.31508 25.9586 8.52455 26.3534 8.59614 26.783C8.65161 27.1046 8.63656 27.3067 8.20219 27.2748L8.19938 27.2729ZM13.9901 27.2626H12.5553C11.8229 27.2626 11.0914 27.2513 10.359 27.2691C10.1033 27.2748 10.0422 27.1977 10.0384 26.9476C10.0262 25.8278 10.0177 25.8278 11.1243 25.8278C12.3193 25.8278 13.5153 25.8382 14.7103 25.8203C15.0055 25.8203 15.0779 25.8983 15.076 26.1879C15.0685 27.2635 15.076 27.2626 13.9901 27.2626ZM19.6435 1.43051C20.8971 1.43991 22.1507 1.43991 23.4043 1.43051C23.6215 1.43051 23.6816 1.49069 23.6779 1.70506C23.6653 2.48166 23.6653 3.25857 23.6779 4.03581C23.6779 4.25299 23.6158 4.31787 23.4024 4.3094C22.7753 4.29624 22.1473 4.3094 21.522 4.3094C20.8968 4.3094 20.2669 4.30001 19.6416 4.31411C19.4244 4.31411 19.3642 4.25394 19.368 4.03863C19.3799 3.26202 19.3799 2.4851 19.368 1.70787C19.368 1.49256 19.4282 1.43427 19.6425 1.43615L19.6435 1.43051ZM22.9652 23.3062C22.9483 23.9183 22.9596 24.5285 22.9596 25.1433C22.9596 25.7413 22.9492 26.3393 22.9643 26.9363C22.9709 27.1742 22.9267 27.2757 22.654 27.2682C21.9075 27.2485 21.16 27.2447 20.4135 27.2682C20.1136 27.2785 20.0807 27.1657 20.0826 26.9109C20.0951 25.7006 20.0951 24.4902 20.0826 23.2799C20.0826 23.042 20.1202 22.9404 20.3928 22.948C21.1394 22.9677 21.8868 22.9715 22.6333 22.948C22.9333 22.9395 22.9718 23.0514 22.9643 23.3071L22.9652 23.3062ZM26.0764 27.271C25.6291 27.2386 25.18 27.2386 24.7328 27.271C24.4573 27.2861 24.384 27.209 24.3868 26.9297C24.4019 25.4508 24.3953 23.9719 24.3934 22.4948C24.3934 21.7586 24.1649 21.5283 23.4363 21.5273C22.1664 21.5273 20.8965 21.5273 19.6266 21.5273C18.8744 21.5273 18.6544 21.7502 18.6534 22.523C18.6534 23.9719 18.6393 25.4207 18.6629 26.8696C18.6685 27.2193 18.5641 27.2945 18.2416 27.2729C17.7944 27.2405 17.3453 27.2405 16.8981 27.2729C16.5455 27.302 16.4919 27.1732 16.4929 26.8526C16.5042 23.0288 16.5004 19.2041 16.5004 15.3822C16.5004 11.5875 16.5004 7.7938 16.4929 3.99915C16.4929 3.6729 16.5549 3.57323 16.9009 3.58075C17.9351 3.60238 17.9351 3.58076 17.9351 4.61498C17.9351 5.56553 18.1082 5.74322 19.0484 5.74322H24.0229C24.9302 5.74322 25.1089 5.55988 25.1089 4.63472C25.1089 4.39591 25.123 4.15615 25.1089 3.91828C25.0948 3.68041 25.1399 3.58639 25.4145 3.58263C26.5484 3.56759 26.5483 3.55631 26.5483 4.6996C26.5483 12.0645 26.5515 19.4294 26.5578 26.7943C26.5578 27.1836 26.4787 27.3133 26.0792 27.2767L26.0764 27.271ZM31.9874 27.2616H30.4624C29.745 27.2616 29.0277 27.2531 28.3112 27.2616C28.0799 27.2616 27.9765 27.2362 27.9727 26.9579C27.9577 25.8212 27.9455 25.8222 29.0869 25.8222C30.2669 25.8222 31.4477 25.8353 32.6277 25.8137C32.953 25.8071 33.0141 25.9077 33.0103 26.2105C32.9972 27.2588 33.0103 27.2588 31.9874 27.2588V27.2616ZM38.3657 27.272C37.7715 27.2325 37.1736 27.2616 36.5794 27.2616C35.9532 27.2616 35.3261 27.2503 34.699 27.2672C34.4696 27.2738 34.4046 27.193 34.4413 26.9852C34.4638 26.8231 34.4952 26.6624 34.5354 26.5038C34.6977 26.0176 35.0325 25.6077 35.4765 25.3515C35.9204 25.0953 36.4429 25.0106 36.9451 25.1133C37.3938 25.1568 37.8149 25.3502 38.1402 25.6624C38.4655 25.9745 38.6761 26.3872 38.738 26.8338C38.7775 27.1272 38.7569 27.2973 38.3714 27.272H38.3657ZM41.2907 27.272C40.9494 27.2409 40.5442 27.3744 40.2791 27.2296C40.0139 27.0849 40.1775 26.6364 40.091 26.327C39.9554 25.7196 39.6537 25.1619 39.2196 24.7159C38.7855 24.27 38.236 23.9535 37.6324 23.8017C37.3428 23.7208 37.2892 23.6136 37.3005 23.356C37.3174 22.9687 37.2939 22.5804 37.309 22.193C37.3209 21.8316 37.4695 21.4882 37.7248 21.2322C37.9802 20.9762 38.3231 20.8266 38.6844 20.8137C39.1912 20.7958 39.6989 20.7977 40.2038 20.8137C40.5738 20.8191 40.9269 20.9687 41.1881 21.2308C41.4493 21.4928 41.5978 21.8465 41.6019 22.2165C41.6198 23.0072 41.6019 23.7979 41.6019 24.5886C41.6019 25.3643 41.5944 26.139 41.6075 26.9147C41.6141 27.1648 41.5887 27.303 41.2832 27.2748L41.2907 27.272Z" fill="black"/>
<path d="M19.3722 7.86234C19.3722 8.6098 19.3723 8.6098 18.6398 8.6098C17.9375 8.6098 17.9375 8.6098 17.9375 7.92251C17.9375 7.17505 17.9375 7.17505 18.6699 7.17505C19.3722 7.17505 19.3722 7.17505 19.3722 7.86234Z" fill="black"/>
<path d="M21.5588 7.17505C22.2376 7.17505 22.2376 7.17504 22.2376 7.8407C22.2376 8.60979 22.2376 8.6098 21.4855 8.6098C20.8066 8.6098 20.8066 8.60979 20.8066 7.94413C20.8066 7.17504 20.8066 7.17505 21.5588 7.17505Z" fill="black"/>
<path d="M25.1105 13.5939C25.1105 14.346 25.1105 14.346 24.3415 14.346C23.6758 14.346 23.6758 14.346 23.6758 13.6672C23.6758 12.915 23.6758 12.915 24.4449 12.915C25.1105 12.915 25.1105 12.915 25.1105 13.5939Z" fill="black"/>
<path d="M19.3723 16.5084C19.3723 17.2192 19.3723 17.2192 18.6483 17.2192C17.9244 17.2192 17.9375 17.2192 17.9375 16.4952C17.9375 15.7713 17.9375 15.7844 18.6615 15.7844C19.3854 15.7844 19.3723 15.7844 19.3723 16.5084Z" fill="black"/>
<path d="M22.2414 16.5319C22.2414 17.2192 22.2414 17.2192 21.539 17.2192C20.8066 17.2192 20.8066 17.2192 20.8066 16.4727C20.8066 15.7844 20.8066 15.7844 21.509 15.7844C22.2414 15.7844 22.2414 15.7844 22.2414 16.5319Z" fill="black"/>
<path d="M25.1105 16.5291C25.1105 17.2201 25.1105 17.2201 24.411 17.2201C23.6758 17.2201 23.6758 17.2201 23.6758 16.4755C23.6758 15.7844 23.6758 15.7844 24.3753 15.7844C25.1105 15.7844 25.1105 15.7844 25.1105 16.5291Z" fill="black"/>
<path d="M19.3722 19.3301C19.3722 20.0888 19.3722 20.0888 18.606 20.0888C17.9375 20.0888 17.9375 20.0888 17.9375 19.4128C17.9375 18.6541 17.9375 18.6541 18.7038 18.6541C19.3723 18.6541 19.3722 18.6541 19.3722 19.3301Z" fill="black"/>
<path d="M22.2404 19.4128C22.2404 20.0888 22.2404 20.0888 21.571 20.0888C20.8047 20.0888 20.8047 20.0888 20.8047 19.3301C20.8047 18.6541 20.8047 18.6541 21.4741 18.6541C22.2404 18.6541 22.2404 18.6541 22.2404 19.4128Z" fill="black"/>
<path d="M23.6758 10.7609C23.6758 10.0454 23.6758 10.0454 24.395 10.0454C25.1143 10.0454 25.1105 10.0454 25.1105 10.7647C25.1105 11.4839 25.1105 11.4802 24.3913 11.4802C23.672 11.4802 23.6758 11.4802 23.6758 10.7609Z" fill="black"/>
<path d="M22.2414 10.7959C22.2414 11.4785 22.2414 11.4785 21.5334 11.4785C20.8067 11.4785 20.8066 11.4785 20.8066 10.7705C20.8066 10.0437 20.8066 10.0437 21.5146 10.0437C22.2414 10.0437 22.2414 10.0437 22.2414 10.7959Z" fill="black"/>
<path d="M18.6201 14.3498C17.9375 14.3498 17.9375 14.3498 17.9375 13.6418C17.9375 12.915 17.9375 12.915 18.6455 12.915C19.3722 12.915 19.3722 12.915 19.3722 13.623C19.3722 14.3498 19.3723 14.3498 18.6201 14.3498Z" fill="black"/>
<path d="M18.6314 11.4802C17.9375 11.4802 17.9375 11.4802 17.9375 10.7835C17.9375 10.0454 17.9375 10.0454 18.6784 10.0454C19.3722 10.0454 19.3722 10.0454 19.3722 10.7421C19.3722 11.4802 19.3723 11.4802 18.6314 11.4802Z" fill="black"/>
<path d="M25.1114 7.90465C25.1114 8.6098 25.1114 8.6098 24.426 8.6098C23.6738 8.6098 23.6738 8.6098 23.6738 7.8802C23.6738 7.17505 23.6738 7.17505 24.3592 7.17505C25.1114 7.17505 25.1114 7.17505 25.1114 7.90465Z" fill="black"/>
<path d="M21.5221 14.3498C20.8066 14.3498 20.8066 14.3498 20.8066 13.6305C20.8066 12.9113 20.8067 12.915 21.5259 12.915C22.2452 12.915 22.2414 12.915 22.2414 13.6343C22.2414 14.3535 22.2414 14.3498 21.5221 14.3498Z" fill="black"/>
<path d="M24.413 18.6541C25.1125 18.6541 25.1125 18.6541 25.1125 19.3451C25.1125 20.0897 25.1125 20.0897 24.3764 20.0897C23.6778 20.0897 23.6778 20.0897 23.6778 19.3987C23.6769 18.6541 23.6768 18.6541 24.413 18.6541Z" fill="black"/>
</svg>
