<svg width="44" height="36" viewBox="0 0 44 36" fill="none" xmlns="http://www.w3.org/2000/svg">
<path d="M8.01274 26.3329C12.4381 26.3329 16.0255 22.7455 16.0255 18.3202C16.0255 13.8948 12.4381 10.3074 8.01274 10.3074C3.58742 10.3074 0 13.8948 0 18.3202C0 22.7455 3.58742 26.3329 8.01274 26.3329Z" fill="#D1EFFF"/>
<path d="M11.2031 28.4461C11.4975 28.1852 11.7551 27.7871 12.0952 27.699C12.4688 27.602 12.6426 28.1183 12.9002 28.3613C14.3658 29.8182 16.1201 30.952 18.0504 31.6898C19.9806 32.4276 22.0439 32.7532 24.1076 32.6454C26.0424 32.5815 27.9453 32.133 29.705 31.3261C31.4647 30.5191 33.0462 29.3699 34.3571 27.9454C34.6515 27.6388 34.8031 27.6265 35.1009 27.9142C35.6863 28.4717 35.7108 28.4595 35.1243 29.0504C32.5464 31.6838 29.1571 33.3727 25.5025 33.8452C22.8599 34.1715 20.1777 33.8506 17.6867 32.9101C15.1956 31.9695 12.9706 30.4376 11.2031 28.4461Z" fill="black"/>
<path d="M24.0451 1.31459C27.7454 1.42348 31.2929 2.81489 34.0806 5.25073C34.2723 5.41242 34.3438 5.51723 34.1252 5.7146C33.8844 5.93761 33.7014 6.32899 33.4438 6.3747C33.2431 6.4115 32.9711 6.02681 32.7258 5.8339C29.9992 3.68973 26.6139 2.5564 23.146 2.62674C19.678 2.69708 16.3415 3.96675 13.7041 6.21972C13.4722 6.41931 13.3697 6.41262 13.1768 6.18292C12.539 5.43918 12.5278 5.44699 13.3016 4.84486C16.3665 2.46057 20.1634 1.21293 24.0451 1.31459Z" fill="black"/>
<path d="M35.7585 16.0523C35.7183 15.691 35.6379 15.5461 35.2165 15.6476C34.4014 15.8449 34.407 15.8115 34.4929 16.6578C34.636 18.0983 34.4842 19.5529 34.0468 20.9329C32.9676 20.0888 31.7085 19.5047 30.3671 19.2258C30.4969 19.1355 30.6209 19.0371 30.7384 18.9314C31.8423 17.8184 32.496 16.3368 32.5738 14.7711C32.6422 13.6499 32.42 12.5301 31.9288 11.5199C31.4375 10.5098 30.6936 9.64361 29.7694 9.00517C28.8453 8.36686 27.772 7.9779 26.6535 7.87593C25.535 7.77396 24.4091 7.96243 23.3847 8.42311C23.2945 8.4739 23.1908 8.4958 23.0877 8.48583C22.9846 8.47586 22.8871 8.4345 22.8083 8.36735C22.4648 8.12748 22.0734 7.96489 21.6611 7.89078C21.2488 7.81667 20.8254 7.8328 20.4199 7.93806C20.0141 8.04305 19.6358 8.23478 19.3112 8.50005C18.9867 8.76532 18.7235 9.09782 18.5399 9.47462C18.5007 9.59048 18.4215 9.68854 18.3164 9.7511C18.2113 9.81366 18.0872 9.83662 17.9667 9.81582C17.5134 9.80112 17.0629 9.89233 16.651 10.0822C16.2391 10.2721 15.8772 10.5554 15.5939 10.9097C15.3106 11.2639 15.1136 11.6794 15.019 12.1231C14.9243 12.5667 14.9346 13.0263 15.0487 13.4654C15.129 13.7798 15.1222 13.9315 14.8011 14.0809C14.4751 14.2246 14.1924 14.4513 13.9813 14.7383C13.7702 15.0253 13.638 15.3627 13.598 15.7167C13.5165 16.2676 13.3422 16.8007 13.0828 17.2934C12.9082 17.619 12.8206 17.9842 12.8286 18.3537C12.8367 18.7231 12.9399 19.0842 13.1285 19.4019C13.3597 19.8332 13.5109 20.3028 13.5746 20.788C13.6146 21.1691 13.7539 21.533 13.9785 21.8435C14.2031 22.154 14.5051 22.4002 14.8546 22.5575C15.2438 22.7231 15.5951 22.9663 15.8871 23.2723C16.1896 23.6357 16.591 23.9036 17.0426 24.0436C17.4942 24.1835 17.9767 24.1894 18.4317 24.0606C18.7817 23.9779 19.1482 23.9973 19.4876 24.1164C19.4508 24.1978 19.414 24.2691 19.385 24.3394C19.2649 24.5857 19.2042 24.8566 19.2075 25.1306C19.2108 25.4045 19.2781 25.6739 19.4041 25.9172C19.5299 26.1605 19.7109 26.3709 19.9326 26.5318C20.1543 26.6927 20.4104 26.7995 20.6807 26.8438C21.3003 26.9576 21.9402 26.8581 22.496 26.5617C23.65 26.0074 24.9172 25.729 26.1972 25.7483C27.4773 25.7677 28.7353 26.0843 29.8721 26.6732C29.7383 26.7736 29.6558 26.8416 29.5677 26.8962C27.3243 28.4159 24.5918 29.0375 21.9117 28.6379C20.4259 28.4322 18.9972 27.9276 17.7119 27.1545C16.4265 26.3814 15.3112 25.3559 14.4332 24.1398C13.555 22.9239 12.9323 21.5426 12.6027 20.0794C12.2731 18.6162 12.2432 17.1014 12.5152 15.6264C12.9632 13.2068 14.2015 11.0042 16.0358 9.36389C17.87 7.72355 20.1967 6.73815 22.6511 6.56209C25.0299 6.39064 27.4006 6.9904 29.4117 8.27245C31.4229 9.5545 32.9673 11.4506 33.816 13.6795C33.9275 13.9638 33.9275 14.402 34.175 14.4912C34.4226 14.5804 34.7605 14.3541 35.0671 14.2894C35.3247 14.2348 35.3571 14.1266 35.2812 13.878C34.3381 10.9416 32.339 8.45948 29.6712 6.91213C27.0033 5.36478 23.8562 4.86221 20.8391 5.50167C17.7407 6.16916 15.0148 7.99598 13.2196 10.608C11.4243 13.22 10.6956 16.4195 11.1827 19.5513C11.6251 22.3762 13.0288 24.9618 15.1569 26.8715C17.2849 28.7811 20.0068 29.8978 22.8629 30.0329C24.8061 30.1494 26.7486 29.7939 28.5247 28.9968C30.3007 28.1998 31.8575 26.9848 33.0622 25.4556C34.1376 24.16 34.9326 22.6553 35.3967 21.0368C35.8608 19.4182 35.984 17.7209 35.7585 16.0523ZM23.9556 9.95408C23.8708 9.67532 23.9389 9.58611 24.1787 9.49022C25.3998 9.03138 26.748 9.04322 27.9609 9.52343C29.1738 10.0036 30.1647 10.9179 30.7407 12.0883C31.3092 13.2541 31.4243 14.5895 31.0635 15.8353C30.7027 17.0811 29.8917 18.1484 28.7882 18.8299C28.67 18.922 28.5254 18.9736 28.3756 18.9771C27.1796 18.9115 25.9804 19.017 24.8142 19.2904C24.7574 19.295 24.7004 19.295 24.6436 19.2904C25.2547 18.2033 24.6325 17.2956 24.1898 16.2909C25.6851 17.2142 26.8357 17.1952 27.8181 16.2909C28.2295 15.9091 28.5072 15.405 28.61 14.8532C28.7128 14.3014 28.6354 13.7311 28.3891 13.2268C28.1401 12.7238 27.7364 12.3139 27.2373 12.0572C26.7382 11.8006 26.1699 11.7106 25.6159 11.8006C25.0081 11.905 24.456 12.2184 24.0547 12.6867C23.6534 13.1549 23.4283 13.7486 23.4182 14.3652L22.1325 13.6237C22.2027 13.4765 22.3422 13.4721 22.447 13.4197C23.0699 13.1163 23.5637 12.6004 23.8397 11.9649C24.1158 11.3295 24.1557 10.6163 23.9523 9.95408H23.9556ZM24.745 14.3853C24.745 14.0415 24.8804 13.7115 25.1218 13.4667C25.3633 13.2219 25.6913 13.082 26.0351 13.0773C26.2089 13.0759 26.3812 13.1091 26.542 13.175C26.7028 13.2408 26.849 13.338 26.9719 13.4609C27.0947 13.5838 27.1919 13.7299 27.2577 13.8907C27.3236 14.0515 27.3568 14.2238 27.3554 14.3976C27.3496 14.7413 27.209 15.069 26.964 15.31C26.7189 15.5511 26.389 15.6863 26.0452 15.6866C25.7021 15.6817 25.3747 15.5428 25.1326 15.2997C24.8905 15.0565 24.753 14.7284 24.7495 14.3853H24.745ZM21.1714 9.1557C21.6037 9.16304 22.0156 9.341 22.3172 9.65077C22.6188 9.96054 22.7856 10.377 22.7815 10.8093C22.7744 11.2416 22.5965 11.6535 22.2867 11.955C21.9768 12.2565 21.5601 12.4231 21.1278 12.4184C20.6954 12.4113 20.2834 12.2334 19.9817 11.9236C19.68 11.6138 19.5132 11.1972 19.5177 10.7647C19.5239 10.332 19.7016 9.91935 20.0119 9.61762C20.3222 9.31589 20.7386 9.14974 21.1714 9.1557ZM17.8975 11.1126C18.1139 11.1126 18.2466 11.1528 18.2912 11.4048C18.402 12.0413 18.7445 12.6144 19.2524 13.0138C19.2934 13.037 19.3287 13.069 19.3557 13.1076C19.3827 13.1462 19.4007 13.1903 19.4084 13.2368C19.4168 13.2824 19.4151 13.3294 19.4034 13.3743C19.3916 13.4192 19.3702 13.4609 19.3405 13.4966C19.2167 13.7461 19.0304 13.9593 18.7998 14.1156C18.5693 14.2719 18.3023 14.366 18.0247 14.3887C17.7993 14.4015 17.5737 14.3687 17.3614 14.292C17.1491 14.2153 16.9543 14.0965 16.7892 13.9426C16.6239 13.7894 16.4913 13.6043 16.3993 13.3985C16.3074 13.1927 16.2579 12.9704 16.254 12.7451C16.2587 12.3116 16.4343 11.8975 16.7427 11.5928C17.0512 11.2881 17.4674 11.1176 17.9009 11.1182L17.8975 11.1126ZM17.689 22.8207C17.5664 22.8338 17.4425 22.8162 17.3284 22.7695C17.2144 22.7228 17.1138 22.6484 17.0357 22.5531C16.5685 22.0574 16.013 21.6532 15.3977 21.3611C15.2536 21.2978 15.1291 21.1971 15.0371 21.0695C14.9451 20.9418 14.8891 20.7919 14.8747 20.6352C14.7967 19.9866 14.5941 19.3592 14.2781 18.7875C14.1873 18.6355 14.1402 18.4614 14.142 18.2844C14.1438 18.1073 14.1944 17.9342 14.2882 17.784C14.5919 17.2217 14.7907 16.6089 14.8747 15.9754C14.9417 15.7349 15.07 15.516 15.2471 15.3401C15.4242 15.1641 15.6441 15.0372 15.885 14.9718C15.9965 14.9584 16.0521 15.0454 16.1268 15.0989C16.458 15.3509 16.8395 15.5288 17.2454 15.6205C17.6513 15.7123 18.0722 15.7158 18.4796 15.6308C18.8869 15.5459 19.2713 15.3743 19.6066 15.1279C19.9419 14.8815 20.2204 14.5658 20.4231 14.2024C20.5659 13.9638 20.6461 13.9605 20.819 14.1534C21.2364 14.6027 21.7395 14.964 22.2987 15.216C22.4502 15.2796 22.5818 15.3826 22.6799 15.5144C22.778 15.6463 22.8388 15.802 22.8562 15.9653C22.9352 16.6137 23.1378 17.2409 23.4528 17.813C23.5318 17.9619 23.5741 18.1275 23.5762 18.296C23.5784 18.4645 23.5402 18.6311 23.465 18.782C23.3618 19.1322 23.1829 19.4555 22.9408 19.729C22.6988 20.0024 22.3997 20.2193 22.0645 20.3642C21.6979 20.5222 21.3854 20.7839 21.1655 21.1171C20.9456 21.4503 20.8279 21.8405 20.8269 22.2398C20.8057 22.5843 20.4633 22.8374 19.9448 22.8263C19.1997 22.6911 18.4364 22.6911 17.6913 22.8263L17.689 22.8207ZM31.5502 25.1846C31.504 25.3191 31.4111 25.4326 31.2883 25.5044C31.1656 25.5762 31.0211 25.6016 30.8812 25.576C30.6304 25.5747 30.3846 25.5058 30.1697 25.3764C28.8874 24.7567 27.4817 24.4348 26.0575 24.4348C24.6333 24.4348 23.2275 24.7567 21.9452 25.3764C21.6599 25.5378 21.3309 25.605 21.0052 25.5682C20.5591 25.4901 20.4131 25.1879 20.6194 24.7999C20.8226 24.5334 21.0866 24.3196 21.3894 24.1762C21.6923 24.0328 22.0252 23.9641 22.36 23.9759C22.8128 24.0962 23.2937 24.0507 23.7159 23.8477C25.8713 22.6356 27.9943 23.163 30.1163 23.9291C30.5482 24.0515 30.9497 24.2631 31.2949 24.5501C31.4699 24.7241 31.6573 24.9482 31.5502 25.188V25.1846ZM33.1547 22.4081C33.0287 22.6702 32.7612 22.7159 32.4557 22.7136C32.2361 22.7019 32.0227 22.6372 31.8335 22.5252C30.5423 21.8915 29.1235 21.561 27.6853 21.5589C26.247 21.5567 24.8272 21.883 23.5342 22.5129C23.2724 22.6605 22.9731 22.728 22.6734 22.707C22.1683 22.64 22.0043 22.2977 22.2686 21.8707C22.4046 21.6637 22.5985 21.5012 22.8261 21.4035C24.3313 20.6476 25.9922 20.2539 27.6765 20.2539C29.3608 20.2539 31.0218 20.6476 32.527 21.4035C32.689 21.4754 32.8338 21.5811 32.9518 21.7134C33.1224 21.9142 33.2864 22.1372 33.1626 22.4092L33.1547 22.4081Z" fill="black"/>
<path d="M42.0818 0C41.7997 0 41.7217 0.0613386 41.7239 0.352368C41.7384 2.31152 41.724 4.27179 41.7373 6.23094C41.7373 6.47736 41.6883 6.56545 41.4273 6.54761C40.9925 6.5226 40.5565 6.5226 40.1216 6.54761C39.8373 6.56433 39.7614 6.48628 39.7637 6.19636C39.7793 4.45465 39.7715 2.71293 39.7715 0.971215C39.7715 0.00223254 39.7715 0.0145036 38.8148 0.00112295C38.5315 0.00112295 38.4557 0.0646825 38.4579 0.354597C38.4724 2.31375 38.458 4.27402 38.4713 6.23317C38.4713 6.48071 38.4189 6.56767 38.1603 6.54871C37.7254 6.52369 37.2894 6.52369 36.8545 6.54871C36.5691 6.56656 36.4943 6.48516 36.4977 6.19636C36.5133 4.45465 36.5055 2.71293 36.5055 0.971215C36.5055 -0.00668785 36.5055 0.00336095 35.5019 0.0022459C35.2522 0.0022459 35.1864 0.0602273 35.1875 0.31446C35.1975 3.81238 35.1876 7.30919 35.1976 10.806C35.1944 11.2863 35.3464 11.7547 35.6308 12.1416C35.9153 12.5286 36.3171 12.8134 36.7764 12.9536C37.0162 13.0272 37.0943 13.1097 37.0854 13.3628C36.9813 16.6002 36.8839 19.8372 36.7932 23.0738C36.6973 26.2153 36.6017 29.3572 36.5066 32.4994C36.4966 32.6897 36.5056 32.8806 36.5334 33.0692C36.6361 33.7277 36.9854 34.3225 37.5106 34.733C38.0357 35.1434 38.6973 35.3387 39.3612 35.2792C40.0185 35.217 40.6277 34.9079 41.066 34.4141C41.5043 33.9203 41.739 33.2787 41.7228 32.6187C41.7083 31.4222 41.6615 30.2247 41.6236 29.0282C41.5935 28.0804 41.5901 28.0971 40.6401 28.0983C40.3112 28.0983 40.2721 28.2098 40.2844 28.503C40.3424 29.8902 40.3959 31.2773 40.4148 32.6644C40.4186 32.8385 40.3871 33.0115 40.3221 33.1731C40.2571 33.3347 40.1601 33.4814 40.0369 33.6044C39.9137 33.7274 39.767 33.8242 39.6054 33.889C39.4439 33.9538 39.2709 33.9852 39.0969 33.9813C38.753 33.9757 38.4252 33.8348 38.1845 33.5891C37.9439 33.3434 37.8097 33.0128 37.8113 32.6689C37.8113 32.3154 37.8246 31.9619 37.8358 31.6084C38.0156 25.7604 38.1952 19.9115 38.3744 14.062C38.4045 13.0751 38.3955 13.0997 39.3779 13.0584C39.7938 13.0428 39.8484 13.1866 39.8585 13.5557C39.9663 17.6509 40.0863 21.7451 40.2186 25.838C40.2499 26.8282 40.2654 26.8171 41.2511 26.7914C41.5087 26.7847 41.5656 26.7067 41.5567 26.4569C41.4853 24.4989 41.4274 22.5397 41.3683 20.5817C41.2939 18.1746 41.2229 15.7672 41.1552 13.3595C41.1552 13.2123 41.0917 13.0651 41.3337 12.9781C41.8615 12.8471 42.3245 12.5302 42.6378 12.0857C42.9511 11.6411 43.0938 11.0985 43.0397 10.5573V0.96788C43.0386 0.00112787 43.0386 0.0133806 42.0818 0ZM41.7284 10.7369C41.7367 10.8734 41.716 11.0101 41.6678 11.1381C41.6196 11.266 41.5448 11.3824 41.4485 11.4795C41.352 11.5766 41.236 11.6521 41.1082 11.7011C40.9804 11.7501 40.8437 11.7715 40.707 11.7638C39.6477 11.7742 38.588 11.7742 37.528 11.7638C37.3913 11.7715 37.2546 11.7501 37.1268 11.7011C36.999 11.6521 36.883 11.5766 36.7865 11.4795C36.6902 11.3824 36.6154 11.2661 36.5672 11.1381C36.5189 11.0101 36.4983 10.8734 36.5066 10.7369C36.4966 9.86713 36.5133 8.9985 36.4988 8.12875C36.4988 7.89125 36.5724 7.83884 36.7932 7.84218C37.5659 7.85556 38.342 7.84218 39.1158 7.84218C39.8897 7.84218 40.6647 7.84999 41.4385 7.84218C41.6615 7.84218 41.7395 7.89013 41.7351 8.12875C41.7239 8.99738 41.7384 9.86489 41.7239 10.7357L41.7284 10.7369Z" fill="black"/>
<path d="M11.0294 10.5727C11.7612 8.93716 12.0263 7.13106 11.7954 5.35421C11.6958 3.82451 11.1261 2.36294 10.1641 1.16943C9.89788 0.811878 9.55225 0.520999 9.15453 0.319694C8.75681 0.118388 8.31782 0.0121449 7.87206 0.00933459C7.4263 0.00652427 6.98601 0.107222 6.58578 0.303496C6.18555 0.499771 5.8363 0.78627 5.5656 1.14043C5.19759 1.55948 4.89365 2.03067 4.66357 2.53871C3.88689 4.30556 3.64462 6.26119 3.96667 8.16416C4.11956 9.59344 4.70892 10.9409 5.65476 12.0234C5.70235 12.0803 5.73704 12.1468 5.7563 12.2185C5.77556 12.2901 5.77903 12.3651 5.76637 12.4382C5.72623 13.6357 5.68486 14.8322 5.65476 16.0286C5.628 16.9931 5.63255 16.9809 6.61491 17.0043C6.88698 17.011 6.94932 16.9329 6.95601 16.6698C6.97274 15.5402 7.01968 14.4118 7.03863 13.2823C7.03863 13.0302 7.09318 12.931 7.3619 13.0135C7.72558 13.093 8.10211 13.093 8.46579 13.0135C8.47583 13.1161 8.48926 13.2098 8.49261 13.3023C8.65615 18.662 8.81893 24.0217 8.98098 29.3814C9.01332 30.4697 9.05455 31.558 9.06905 32.6463C9.07353 32.8202 9.043 32.9933 8.97921 33.1551C8.91542 33.317 8.81966 33.4644 8.69773 33.5885C8.57561 33.7126 8.42976 33.8109 8.26883 33.8773C8.1079 33.9438 7.93524 33.9772 7.76113 33.9754C7.58737 33.974 7.41568 33.938 7.25601 33.8694C7.09634 33.8009 6.95192 33.7012 6.83119 33.5763C6.71029 33.4513 6.61547 33.3036 6.5523 33.1416C6.48912 32.9796 6.4589 32.8067 6.46328 32.6329C6.46328 32.2794 6.47881 31.926 6.48996 31.5714C6.61558 27.4494 6.74123 23.3278 6.86686 19.2065C6.89362 18.3056 6.88241 18.3145 5.97476 18.2844C5.65697 18.2721 5.56783 18.3524 5.56002 18.6769C5.49646 21.2482 5.40955 23.8184 5.33707 26.3897C5.27462 28.4983 5.19433 30.6057 5.16311 32.7165C5.16716 33.3572 5.40888 33.9736 5.84151 34.4462C6.27414 34.9188 6.86684 35.214 7.50469 35.2745C8.14008 35.3362 8.77611 35.1642 9.29377 34.7906C9.81144 34.4171 10.1752 33.8675 10.3168 33.2451C10.3924 32.7886 10.4085 32.3242 10.3647 31.8635C10.1722 25.443 9.97599 19.0225 9.77603 12.6021C9.76693 12.5161 9.7783 12.4292 9.8091 12.3484C9.83991 12.2676 9.88935 12.1952 9.95338 12.1371C10.4113 11.69 10.7804 11.1603 11.0416 10.576L11.0294 10.5727ZM9.00548 11.2306C8.86333 11.3981 8.68641 11.5327 8.48702 11.625C8.28764 11.7173 8.07068 11.7651 7.85096 11.7651C7.63124 11.7651 7.41415 11.7173 7.21476 11.625C7.01538 11.5327 6.83846 11.3981 6.69631 11.2306C6.30097 10.8538 5.9934 10.3947 5.79536 9.88581C4.91133 7.75026 4.90932 5.35146 5.78978 3.21443C5.97813 2.73145 6.26265 2.29178 6.62607 1.92209C6.7701 1.73346 6.95562 1.58058 7.16835 1.47536C7.38108 1.37014 7.61526 1.31539 7.8526 1.31539C8.08993 1.31539 8.32398 1.37014 8.53671 1.47536C8.74944 1.58058 8.93509 1.73346 9.07912 1.92209C9.75224 2.67686 10.1973 3.60717 10.3625 4.6049C10.4971 5.2019 10.5599 5.8128 10.5498 6.42467C10.5949 7.70666 10.3343 8.98097 9.78937 10.1423C9.5961 10.548 9.33181 10.9158 9.00889 11.2283L9.00548 11.2306Z" fill="black"/>
<path d="M21.7989 17.8298C21.5826 18.142 21.3672 18.4698 21.1297 18.7821C21.0706 18.8601 20.9859 18.7553 20.9246 18.714C20.3938 18.3639 19.8676 18.0037 19.3313 17.6614C19.1707 17.5588 19.1941 17.483 19.2799 17.3425C19.8375 16.4193 19.8319 16.417 20.7139 17.008C21.0183 17.2109 21.3239 17.4128 21.6249 17.6179C21.6963 17.6648 21.8067 17.6882 21.7989 17.8298Z" fill="black"/>
<path d="M17.4702 17.3648C17.2952 17.8866 17.0989 18.4642 16.9127 19.043C16.8837 19.131 16.8235 19.1333 16.7544 19.1165C16.702 19.1043 16.6518 19.0797 16.6005 19.0652C15.6248 18.7675 15.6248 18.7675 15.9437 17.8097C15.956 17.7729 15.9761 17.7361 15.9884 17.6982C16.3229 16.7002 16.3986 16.6712 17.3554 17.1407C17.4334 17.1808 17.5026 17.1987 17.4702 17.3648Z" fill="black"/>
<path d="M19.9081 19.6628C20.0834 19.9347 20.2052 20.2374 20.2672 20.5549C20.3084 20.6664 20.459 20.8336 20.2672 20.9039C19.6963 21.118 19.113 21.2975 18.5332 21.4882C18.5179 21.4957 18.5012 21.4996 18.4842 21.4996C18.4672 21.4996 18.4505 21.4957 18.4352 21.4882C18.4201 21.4803 18.407 21.469 18.397 21.4553C18.3869 21.4416 18.3802 21.4258 18.3772 21.409C18.3671 21.3712 18.3547 21.3339 18.3403 21.2975C17.9556 20.323 17.9556 20.323 18.9447 19.9918L19.9081 19.6628Z" fill="black"/>
</svg>
