<svg width="44" height="27" viewBox="0 0 44 27" fill="none" xmlns="http://www.w3.org/2000/svg">
<path d="M11.3081 20.095C14.765 20.095 17.5674 17.2926 17.5674 13.8357C17.5674 10.3788 14.765 7.57642 11.3081 7.57642C7.85121 7.57642 5.04883 10.3788 5.04883 13.8357C5.04883 17.2926 7.85121 20.095 11.3081 20.095Z" fill="#D1EFFF"/>
<path d="M12.6882 3.53293H8.0638C7.9239 3.53947 7.78371 3.53364 7.64484 3.5155C7.48201 3.49879 7.33167 3.42069 7.22439 3.29706C7.11711 3.17344 7.06095 3.01359 7.06735 2.85003C7.05174 2.68602 7.09969 2.52228 7.20132 2.39261C7.30295 2.26294 7.45049 2.17724 7.61347 2.1532C7.73752 2.13036 7.86376 2.1216 7.98977 2.12707C11.129 2.12707 14.2679 2.12707 17.4066 2.12707C17.5325 2.12192 17.6586 2.1298 17.7829 2.15058C17.9452 2.17153 18.0932 2.25396 18.1964 2.38087C18.2997 2.50778 18.3503 2.66948 18.3377 2.83261C18.348 2.99592 18.2955 3.157 18.1909 3.28283C18.0863 3.40866 17.9375 3.48973 17.7751 3.50941C17.6364 3.52972 17.496 3.53613 17.3561 3.52857L12.6882 3.53293Z" fill="black"/>
<path d="M16.6096 1.41544C15.5888 1.41544 14.567 1.41544 13.5462 1.41544C13.0331 1.41544 12.7213 1.15412 12.7056 0.738632C12.6899 0.323145 13.0218 0.00609729 13.5418 0.00435521C15.5702 -0.00145174 17.5983 -0.00145174 19.626 0.00435521C20.1626 0.00435521 20.4684 0.286551 20.457 0.733395C20.4466 1.16456 20.1522 1.4137 19.6304 1.41544C18.6235 1.41805 17.6165 1.41544 16.6096 1.41544Z" fill="black"/>
<path d="M42.9815 18.1326C42.8143 16.8552 42.2688 15.6571 41.415 14.6923C40.5613 13.7276 39.4384 13.0404 38.1908 12.7191C37.0766 12.4954 35.9355 12.4367 34.8042 12.5449C34.2459 12.5818 33.6872 12.4793 33.1784 12.2465C32.6696 12.0137 32.2267 11.6579 31.8897 11.2113C30.3888 9.4071 28.5173 7.94699 26.4021 6.93012C25.074 6.19756 23.6006 5.76719 22.087 5.66973C17.0298 5.62009 11.9725 5.64709 6.91522 5.65319C6.60944 5.62848 6.3019 5.67038 6.01387 5.77598C5.72584 5.88159 5.46416 6.04839 5.24682 6.26491C5.02948 6.48142 4.86165 6.74249 4.75495 7.03011C4.64824 7.31774 4.6052 7.62508 4.62874 7.93095C4.63572 8.11065 4.5772 8.28677 4.46409 8.42657C2.59657 10.7714 0.833587 13.1798 0 16.1248V19.2362C0.00848369 19.4191 0.0359447 19.6007 0.0818994 19.778C0.331888 21.1281 0.737789 22.1559 2.02606 22.6977C2.10681 22.7328 2.1789 22.7851 2.23728 22.8511C2.29566 22.917 2.33892 22.9948 2.36402 23.0792C2.68413 23.8671 3.205 24.5575 3.87482 25.0815C4.54463 25.6055 5.34002 25.9449 6.18179 26.066C7.02355 26.1872 7.88238 26.0858 8.67277 25.7719C9.46316 25.458 10.1575 24.9426 10.6868 24.2769C10.7484 24.1879 10.8319 24.1164 10.9293 24.0692C11.0267 24.022 11.1346 24.0009 11.2425 24.0078C17.7295 24.0159 24.2164 24.0159 30.7034 24.0078C30.8113 24.0003 30.9193 24.0209 31.0168 24.0676C31.1144 24.1143 31.1981 24.1855 31.2599 24.2743C31.7229 24.8615 32.3155 25.3336 32.9912 25.6538C33.667 25.974 34.4076 26.1336 35.1552 26.12C35.903 26.1065 36.6375 25.9202 37.3013 25.5757C37.9651 25.2312 38.5403 24.7378 38.9817 24.1341C39.051 24.0318 39.143 23.9471 39.2507 23.8867C39.3583 23.8262 39.4786 23.7916 39.6019 23.7857C40.4372 23.6985 41.2708 23.594 42.107 23.5165C42.2935 23.5182 42.4774 23.4735 42.6424 23.3866C42.8074 23.2996 42.9481 23.173 43.0521 23.0183V18.3094C43.0175 18.2555 42.9935 18.1955 42.9815 18.1326ZM28.1242 9.89167C28.2479 9.88445 28.3718 9.90285 28.4881 9.94571C28.6044 9.98858 28.7107 10.055 28.8001 10.1408C29.1938 10.5127 29.6084 10.8629 30.0135 11.2217L29.956 11.3089H27.0214C23.5608 11.3089 20.101 11.3045 16.6413 11.3167C16.3181 11.3167 16.1813 11.247 16.2284 10.9073C16.2754 10.5676 16.0847 10.139 16.3068 9.94915C16.494 9.78801 16.9165 9.89777 17.2397 9.89689L28.1277 9.88993L28.1242 9.89167ZM16.224 13.0466C16.2171 12.7661 16.3007 12.6982 16.5724 12.6982C18.7004 12.7086 20.8292 12.7043 22.9572 12.7043C25.0573 12.7043 27.1582 12.7121 29.2583 12.6964C29.5797 12.6964 29.6651 12.7835 29.6503 13.0962C29.7008 14.1865 29.6571 15.279 29.5196 16.3618C29.3179 17.3074 28.802 18.1569 28.056 18.772C27.3099 19.3871 26.3776 19.7316 25.4109 19.7492C23.7594 19.7829 22.1073 19.7829 20.4547 19.7492C19.3445 19.7197 18.2882 19.2649 17.5036 18.479C16.7191 17.693 16.2663 16.6357 16.2388 15.5256C16.2162 14.6998 16.2458 13.8732 16.224 13.0466ZM6.87601 24.7046C6.42087 24.7048 5.97015 24.6152 5.5497 24.4409C5.12924 24.2666 4.74732 24.0111 4.42578 23.689C4.10416 23.3667 3.84928 22.9842 3.67574 22.5633C3.50221 22.1424 3.41343 21.6914 3.41449 21.2361C3.41366 20.7809 3.50281 20.33 3.67681 19.9094C3.8508 19.4887 4.10623 19.1066 4.42839 18.785C4.75059 18.4635 5.13315 18.2087 5.55408 18.0355C5.97502 17.8623 6.42605 17.7739 6.88125 17.7755C7.33652 17.7746 7.78748 17.8636 8.20825 18.0375C8.62902 18.2113 9.01133 18.4665 9.33323 18.7885C9.65502 19.1105 9.91006 19.4928 10.0837 19.9136C10.2574 20.3343 10.3464 20.7853 10.3454 21.2405C10.3451 21.6958 10.2552 22.1466 10.0807 22.5672C9.90623 22.9878 9.65062 23.3699 9.32845 23.6916C9.00628 24.0134 8.62386 24.2685 8.20307 24.4425C7.78227 24.6165 7.33134 24.7058 6.87601 24.7055V24.7046ZM35.0568 24.7046C34.6016 24.7032 34.1512 24.6121 33.7313 24.4363C33.3115 24.2605 32.9304 24.0036 32.6101 23.6803C32.2896 23.3569 32.0362 22.9735 31.8643 22.552C31.6924 22.1304 31.6054 21.6791 31.6084 21.2239C31.6088 20.7688 31.6991 20.3182 31.8743 19.8982C32.0495 19.4781 32.3061 19.0968 32.6292 18.7763C32.9523 18.4559 33.3356 18.2025 33.757 18.0307C34.1784 17.8589 34.6296 17.7722 35.0847 17.7755C35.5397 17.7759 35.9901 17.8663 36.41 18.0415C36.8299 18.2167 37.2111 18.4732 37.5314 18.7963C37.8518 19.1194 38.1051 19.5028 38.2767 19.9242C38.4483 20.3456 38.5349 20.7968 38.5314 21.2518C38.5312 21.7071 38.441 22.1579 38.2659 22.5783C38.0909 22.9986 37.8344 23.3803 37.5114 23.7012C37.1885 24.0221 36.8053 24.2761 36.3839 24.4484C35.9625 24.6208 35.5112 24.7081 35.0559 24.7055L35.0568 24.7046ZM41.3283 22.1855C40.9229 22.2096 40.5193 22.257 40.1193 22.3275C39.878 22.3667 39.8319 22.2918 39.8737 22.0662C39.983 21.4273 39.9643 20.7731 39.8186 20.1414C39.673 19.5098 39.4033 18.9135 39.0253 18.3869C38.6474 17.8604 38.1687 17.4141 37.6169 17.0741C37.0652 16.7341 36.4513 16.5071 35.8111 16.4062C34.5517 16.2299 33.2728 16.5457 32.2402 17.288C31.2077 18.0304 30.5009 19.1421 30.267 20.3921C30.1574 21.1199 30.1938 21.8622 30.3741 22.5758H11.584C11.8024 21.8106 11.8288 21.0034 11.6607 20.2257C11.4927 19.4479 11.1355 18.7236 10.6206 18.1169C10.2253 17.6227 9.73355 17.2142 9.17528 16.9162C8.61702 16.6182 8.00395 16.437 7.37339 16.3835C6.71414 16.318 6.0484 16.3867 5.4165 16.5858C4.78459 16.7848 4.19962 17.1099 3.69693 17.5414C3.19424 17.9729 2.78429 18.5019 2.49186 19.0964C2.19943 19.6909 2.03059 20.3385 1.99557 21.0001C1.84531 20.8723 1.72457 20.7135 1.64171 20.5345C1.55884 20.3556 1.51583 20.1607 1.51563 19.9635C1.47469 18.8425 1.46163 17.7223 1.41807 16.6013C1.40414 16.2529 1.51474 16.144 1.87013 16.1658C2.38753 16.2015 2.90667 16.1841 3.42494 16.1719C3.94321 16.1597 4.2298 15.8844 4.22283 15.4498C4.21586 15.0151 3.92318 14.7704 3.39969 14.7643C3.17583 14.7643 2.9511 14.7643 2.72724 14.7643H1.98948C2.46984 13.7201 3.0448 12.722 3.70716 11.7827C4.30696 10.8867 4.95691 10.0253 5.65393 9.20268C5.78957 9.05389 5.8943 8.87963 5.96204 8.69003C6.02978 8.50043 6.05917 8.29925 6.04851 8.09819C6.02586 7.25764 6.23927 7.05905 7.07809 7.05905H21.5801C23.2071 7.13718 24.7882 7.62398 26.1774 8.47449H25.7419H9.39158C9.23916 8.44946 9.08278 8.46713 8.93979 8.52555C8.7968 8.58398 8.6728 8.68087 8.58152 8.80547C8.5074 8.90918 8.46595 9.03268 8.46253 9.16011C8.45912 9.28753 8.49389 9.41307 8.56235 9.5206C8.96252 10.2533 9.50444 10.8992 10.1566 11.4205C10.8087 11.9418 11.5581 12.3281 12.361 12.5571C13.0483 12.6978 13.7514 12.7453 14.4514 12.6982C14.7537 12.6886 14.8173 12.7896 14.8199 13.0753C14.7853 14.0833 14.8019 15.0924 14.8696 16.0987C15.035 17.4658 15.6843 18.7285 16.6999 19.6585C17.7155 20.5885 19.0304 21.1243 20.4068 21.169C22.0879 21.1934 23.7693 21.1934 25.451 21.169C26.9001 21.1273 28.28 20.5402 29.3149 19.5251C30.3499 18.51 30.9636 17.1417 31.0335 15.6937C31.0648 14.8122 31.0413 13.9289 31.0492 13.0457C31.0492 12.9307 30.9812 12.7748 31.145 12.7156C31.2064 12.6998 31.2711 12.7022 31.3311 12.7227C31.3911 12.7431 31.4439 12.7806 31.4829 12.8306C31.9077 13.2176 32.4053 13.5162 32.9466 13.7091C33.488 13.902 34.0623 13.9853 34.6361 13.9542C35.7259 13.8601 36.8233 13.9105 37.8999 14.104C38.9962 14.397 39.9594 15.0559 40.6297 15.9715C40.4259 15.9916 40.2683 16.0003 40.1123 16.0255C39.9443 16.0492 39.791 16.1343 39.6822 16.2645C39.5735 16.3947 39.5169 16.5607 39.5235 16.7302C39.526 16.9002 39.5925 17.063 39.7097 17.1862C39.8269 17.3094 39.9862 17.3839 40.1559 17.3948C40.4066 17.4257 40.66 17.4274 40.9111 17.4C41.3109 17.3426 41.4607 17.5272 41.5095 17.8861C41.5717 18.2023 41.6118 18.5225 41.6297 18.8442C41.6297 19.839 41.6297 20.8337 41.6401 21.8284C41.6401 22.0706 41.5887 22.1768 41.3222 22.1873L41.3283 22.1855ZM13.6501 11.2975C13.0729 11.2998 12.5023 11.1756 11.9783 10.9336C11.4543 10.6916 10.9897 10.3378 10.6171 9.89689C12.0108 9.89689 13.3113 9.89689 14.6109 9.89689C14.7798 9.89689 14.8391 9.95787 14.819 10.1164C14.8182 10.1303 14.8182 10.1443 14.819 10.1582C14.7624 11.6155 15.1431 11.3036 13.6501 11.3028V11.2975Z" fill="black"/>
<path d="M35.0535 18.7954C34.7317 18.7959 34.4132 18.8602 34.1164 18.9846C33.8196 19.109 33.5504 19.291 33.3244 19.5201C33.098 19.7495 32.9194 20.0217 32.799 20.3208C32.6787 20.6198 32.6189 20.9398 32.6233 21.2622C32.6286 21.9119 32.8913 22.533 33.3539 22.9892C33.8165 23.4454 34.4412 23.6996 35.0909 23.6959C35.4128 23.6941 35.7311 23.6286 36.0276 23.5031C36.324 23.3777 36.5927 23.1948 36.8182 22.9651C37.0436 22.7351 37.2212 22.4627 37.3408 22.1637C37.4604 21.8647 37.5196 21.545 37.515 21.223C37.5149 20.9013 37.4509 20.5829 37.3266 20.2862C37.2023 19.9896 37.0203 19.7205 36.7912 19.4948C36.5623 19.269 36.2908 19.0908 35.9925 18.9707C35.6942 18.8507 35.375 18.7911 35.0535 18.7954ZM35.0535 22.2726C34.9174 22.2724 34.7827 22.2448 34.6574 22.1916C34.5322 22.1383 34.419 22.0604 34.3244 21.9625C34.2298 21.8646 34.1558 21.7487 34.1069 21.6217C34.0579 21.4946 34.035 21.359 34.0396 21.223C34.0407 21.0869 34.0689 20.9523 34.1224 20.8272C34.1759 20.702 34.2538 20.5888 34.3514 20.4939C34.449 20.399 34.5645 20.3244 34.6911 20.2745C34.8178 20.2246 34.9531 20.2002 35.0892 20.203C35.2254 20.2055 35.3597 20.2349 35.4845 20.2894C35.6093 20.344 35.7221 20.4227 35.8165 20.5209C35.9108 20.6191 35.9849 20.735 36.0344 20.8619C36.0839 20.9888 36.1078 21.1243 36.1048 21.2604C36.1044 21.3966 36.0766 21.5313 36.0232 21.6565C35.9698 21.7817 35.8918 21.895 35.7938 21.9895C35.6957 22.084 35.5797 22.1579 35.4525 22.2066C35.3253 22.2554 35.1896 22.2773 35.0535 22.2726Z" fill="black"/>
<path d="M6.88235 18.7952C6.56052 18.7926 6.24138 18.8541 5.9435 18.9759C5.64562 19.0978 5.37495 19.2777 5.14723 19.5051C4.91962 19.7326 4.73949 20.0031 4.61732 20.3008C4.49515 20.5985 4.4334 20.9176 4.4356 21.2394C4.43409 21.5612 4.49626 21.8801 4.61854 22.1777C4.74083 22.4753 4.92081 22.7459 5.14811 22.9736C5.37507 23.2017 5.64492 23.3826 5.94212 23.506C6.23931 23.6293 6.55798 23.6926 6.87975 23.6922C7.52965 23.6906 8.15251 23.432 8.61239 22.9728C9.07227 22.5135 9.3318 21.891 9.33433 21.2411C9.33493 20.9193 9.27182 20.6005 9.14863 20.3031C9.02545 20.0058 8.84462 19.7358 8.61659 19.5086C8.38889 19.2812 8.11842 19.101 7.82078 18.9786C7.52313 18.8562 7.20419 18.7938 6.88235 18.7952ZM6.88235 22.2724C6.74608 22.2738 6.6109 22.2482 6.48458 22.197C6.35826 22.1459 6.24329 22.0703 6.14632 21.9745C6.04948 21.8788 5.97254 21.7649 5.91992 21.6393C5.8673 21.5138 5.84005 21.379 5.83972 21.2429C5.84086 20.9675 5.95065 20.7036 6.14523 20.5087C6.33981 20.3138 6.60346 20.2036 6.87887 20.202C7.01498 20.2012 7.14987 20.2274 7.27577 20.2792C7.40166 20.3309 7.51604 20.4071 7.61227 20.5034C7.70847 20.5998 7.78458 20.7143 7.83617 20.8404C7.88775 20.9664 7.91379 21.1015 7.91278 21.2376C7.9149 21.3738 7.88971 21.509 7.83869 21.6353C7.78768 21.7616 7.71187 21.8763 7.61575 21.9728C7.51962 22.069 7.40523 22.145 7.27927 22.1963C7.15331 22.2477 7.01835 22.2741 6.88235 22.2724Z" fill="black"/>
</svg>
