<svg width="929" height="930" viewBox="0 0 929 930" fill="none" xmlns="http://www.w3.org/2000/svg">
<g opacity="0.4">
<path d="M464.5 788.439C286.082 788.439 141.444 643.679 141.444 465.111C141.444 286.543 286.082 141.783 464.5 141.783" fill="#003E68"/>
<path d="M104.317 465.112C104.317 266.028 265.583 104.625 464.5 104.625" stroke="#1D262D" stroke-miterlimit="10"/>
<path d="M464.5 825.597C265.583 825.597 104.317 664.195 104.317 465.111" stroke="#1D262D" stroke-width="4" stroke-miterlimit="10"/>
<path d="M104.317 465.112C104.317 266.028 265.583 104.625 464.5 104.625" stroke="#1D262D" stroke-miterlimit="10"/>
<path d="M464.5 825.597C265.583 825.597 104.317 664.195 104.317 465.111" stroke="#1D262D" stroke-width="4" stroke-miterlimit="10"/>
<path d="M71.0596 465.111C71.0596 247.64 247.212 71.3398 464.5 71.3398" stroke="#1D262D" stroke-miterlimit="10"/>
<path d="M464.5 858.882C247.212 858.882 71.0596 682.582 71.0596 465.111" stroke="#1D262D" stroke-width="4" stroke-miterlimit="10"/>
<path d="M71.0596 465.111C71.0596 247.64 247.212 71.3398 464.5 71.3398" stroke="#1D262D" stroke-miterlimit="10"/>
<path d="M464.5 858.882C247.212 858.882 71.0596 682.582 71.0596 465.111" stroke="#1D262D" stroke-width="4" stroke-miterlimit="10"/>
<path d="M37.9417 465.111C37.9417 229.323 228.91 38.1943 464.5 38.1943" stroke="#1D262D" stroke-miterlimit="10"/>
<path d="M464.5 892.028C228.91 892.028 37.9417 700.899 37.9417 465.111" stroke="#1D262D" stroke-width="4" stroke-miterlimit="10"/>
<path d="M2 465.111C2 209.47 209.074 2.22217 464.5 2.22217" stroke="#1D262D" stroke-miterlimit="10"/>
<path d="M464.5 928C209.074 928 2 720.752 2 465.111" stroke="#1D262D" stroke-width="4" stroke-miterlimit="10"/>
<path d="M464.5 141.56C642.918 141.56 787.556 286.32 787.556 464.888C787.556 643.456 642.918 788.216 464.5 788.216" fill="#E0F2FF"/>
<path d="M824.683 464.888C824.683 663.972 663.417 825.374 464.5 825.374" stroke="#1D262D" stroke-miterlimit="10"/>
<path d="M464.5 104.403C663.417 104.403 824.683 265.805 824.683 464.889" stroke="#1D262D" stroke-width="4" stroke-miterlimit="10"/>
<path d="M824.683 464.888C824.683 663.972 663.417 825.374 464.5 825.374" stroke="#1D262D" stroke-miterlimit="10"/>
<path d="M464.5 104.403C663.417 104.403 824.683 265.805 824.683 464.889" stroke="#1D262D" stroke-width="4" stroke-miterlimit="10"/>
<path d="M857.94 464.888C857.94 682.359 681.788 858.659 464.5 858.659" stroke="#1D262D" stroke-miterlimit="10"/>
<path d="M464.5 71.1175C681.788 71.1175 857.94 247.418 857.94 464.889" stroke="#1D262D" stroke-width="4" stroke-miterlimit="10"/>
<path d="M857.94 464.888C857.94 682.359 681.788 858.659 464.5 858.659" stroke="#1D262D" stroke-miterlimit="10"/>
<path d="M464.5 71.1175C681.788 71.1175 857.94 247.418 857.94 464.889" stroke="#1D262D" stroke-width="4" stroke-miterlimit="10"/>
<path d="M891.058 464.888C891.058 700.676 700.09 891.805 464.5 891.805" stroke="#1D262D" stroke-miterlimit="10"/>
<path d="M464.5 37.9717C700.09 37.9717 891.058 229.1 891.058 464.889" stroke="#1D262D" stroke-width="4" stroke-miterlimit="10"/>
<path d="M927 464.888C927 720.529 719.926 927.777 464.5 927.777" stroke="#1D262D" stroke-miterlimit="10"/>
<path d="M464.5 1.99979C719.926 1.99979 927 209.248 927 464.889" stroke="#1D262D" stroke-width="4" stroke-miterlimit="10"/>
</g>
</svg>
