<svg width="983" height="84" viewBox="0 0 983 84" fill="none" xmlns="http://www.w3.org/2000/svg">
<path opacity="0.5" d="M29.7596 80.865L28.3452 81.3645L28.6986 82.365H29.7596V80.865ZM2.12059 2.60999V1.10999H-7.59959e-06L0.706215 3.10953L2.12059 2.60999ZM16.7726 2.60999L18.1939 2.13048L17.8496 1.10999H16.7726V2.60999ZM38.4176 66.768V68.268H40.5067L39.8389 66.2885L38.4176 66.768ZM33.9776 66.768L32.5631 66.2688L31.8575 68.268H33.9776V66.768ZM56.6216 2.60999V1.10999H55.5603L55.2071 2.11075L56.6216 2.60999ZM67.1666 2.60999L68.5864 2.12607L68.2401 1.10999H67.1666V2.60999ZM89.0336 66.768V68.268H91.1296L90.4534 66.2841L89.0336 66.768ZM85.1486 66.768L83.7295 66.2819L83.0492 68.268H85.1486V66.768ZM107.127 2.60999V1.10999H106.055L105.708 2.12388L107.127 2.60999ZM121.002 2.60999L122.415 3.11309L123.128 1.10999H121.002V2.60999ZM93.1406 80.865V82.365H94.1988L94.5537 81.3681L93.1406 80.865ZM81.3746 80.865L79.9591 81.3612L80.3109 82.365H81.3746V80.865ZM60.2846 20.703V19.203H58.1693L58.869 21.1992L60.2846 20.703ZM62.8376 20.703L64.2515 21.2039L64.9603 19.203H62.8376V20.703ZM41.5256 80.865V82.365H42.5856L42.9395 81.3659L41.5256 80.865ZM29.7596 80.865L31.174 80.3654L3.53496 2.11044L2.12059 2.60999L0.706215 3.10953L28.3452 81.3645L29.7596 80.865ZM2.12059 2.60999V4.10999H16.7726V2.60999V1.10999H2.12059V2.60999ZM16.7726 2.60999L15.3513 3.08949L36.9963 67.2475L38.4176 66.768L39.8389 66.2885L18.1939 2.13048L16.7726 2.60999ZM38.4176 66.768V65.268H33.9776V66.768V68.268H38.4176V66.768ZM33.9776 66.768L35.3921 67.2672L58.0361 3.10922L56.6216 2.60999L55.2071 2.11075L32.5631 66.2688L33.9776 66.768ZM56.6216 2.60999V4.10999H67.1666V2.60999V1.10999H56.6216V2.60999ZM67.1666 2.60999L65.7468 3.0939L87.6138 67.2519L89.0336 66.768L90.4534 66.2841L68.5864 2.12607L67.1666 2.60999ZM89.0336 66.768V65.268H85.1486V66.768V68.268H89.0336V66.768ZM85.1486 66.768L86.5676 67.2541L108.546 3.0961L107.127 2.60999L105.708 2.12388L83.7295 66.2819L85.1486 66.768ZM107.127 2.60999V4.10999H121.002V2.60999V1.10999H107.127V2.60999ZM121.002 2.60999L119.588 2.10688L91.7275 80.3619L93.1406 80.865L94.5537 81.3681L122.415 3.11309L121.002 2.60999ZM93.1406 80.865V79.365H81.3746V80.865V82.365H93.1406V80.865ZM81.3746 80.865L82.7901 80.3688L61.7001 20.2068L60.2846 20.703L58.869 21.1992L79.9591 81.3612L81.3746 80.865ZM60.2846 20.703V22.203H62.8376V20.703V19.203H60.2846V20.703ZM62.8376 20.703L61.4237 20.2021L40.1117 80.3641L41.5256 80.865L42.9395 81.3659L64.2515 21.2039L62.8376 20.703ZM41.5256 80.865V79.365H29.7596V80.865V82.365H41.5256V80.865ZM134.02 80.865H132.52V82.365H134.02V80.865ZM134.02 2.60999V1.10999H132.52V2.60999H134.02ZM148.228 2.60999H149.728V1.10999H148.228V2.60999ZM148.228 35.244H146.728V36.744H148.228V35.244ZM188.521 35.244V36.744H190.021V35.244H188.521ZM188.521 2.60999V1.10999H187.021V2.60999H188.521ZM202.729 2.60999H204.229V1.10999H202.729V2.60999ZM202.729 80.865V82.365H204.229V80.865H202.729ZM188.521 80.865H187.021V82.365H188.521V80.865ZM188.521 47.121H190.021V45.621H188.521V47.121ZM148.228 47.121V45.621H146.728V47.121H148.228ZM148.228 80.865V82.365H149.728V80.865H148.228ZM134.02 80.865H135.52V2.60999H134.02H132.52V80.865H134.02ZM134.02 2.60999V4.10999H148.228V2.60999V1.10999H134.02V2.60999ZM148.228 2.60999H146.728V35.244H148.228H149.728V2.60999H148.228ZM148.228 35.244V36.744H188.521V35.244V33.744H148.228V35.244ZM188.521 35.244H190.021V2.60999H188.521H187.021V35.244H188.521ZM188.521 2.60999V4.10999H202.729V2.60999V1.10999H188.521V2.60999ZM202.729 2.60999H201.229V80.865H202.729H204.229V2.60999H202.729ZM202.729 80.865V79.365H188.521V80.865V82.365H202.729V80.865ZM188.521 80.865H190.021V47.121H188.521H187.021V80.865H188.521ZM188.521 47.121V45.621H148.228V47.121V48.621H188.521V47.121ZM148.228 47.121H146.728V80.865H148.228H149.728V47.121H148.228ZM148.228 80.865V79.365H134.02V80.865V82.365H148.228V80.865ZM213.655 80.865L212.289 80.2466L211.33 82.365H213.655V80.865ZM249.064 2.60999V1.10999H248.097L247.698 1.99162L249.064 2.60999ZM260.719 2.60999L262.086 1.99162L261.687 1.10999H260.719V2.60999ZM296.128 80.865V82.365H298.454L297.495 80.2466L296.128 80.865ZM281.698 80.865L280.32 81.4567L280.71 82.365H281.698V80.865ZM272.263 58.887L273.079 57.6283L268.939 54.9445L270.885 59.4787L272.263 58.887ZM278.257 62.772V64.272H283.33L279.073 61.5133L278.257 62.772ZM231.415 62.772L230.6 61.5133L226.343 64.272H231.415V62.772ZM237.409 58.887L238.79 59.4728L240.703 54.9649L236.594 57.6283L237.409 58.887ZM228.085 80.865V82.365H229.078L229.466 81.4508L228.085 80.865ZM254.725 18.039V16.539H253.729L253.343 17.4576L254.725 18.039ZM239.185 55.002L238.021 55.9479L239.599 57.8893L240.568 55.5833L239.185 55.002ZM236.299 51.45V49.95H233.148L235.135 52.3959L236.299 51.45ZM273.373 51.45L274.555 52.3735L276.449 49.95H273.373V51.45ZM270.598 55.002L269.217 55.5869L270.211 57.9342L271.78 55.9255L270.598 55.002ZM254.947 18.039L256.329 17.4541L255.941 16.539H254.947V18.039ZM213.655 80.865L215.022 81.4834L250.431 3.22835L249.064 2.60999L247.698 1.99162L212.289 80.2466L213.655 80.865ZM249.064 2.60999V4.10999H260.719V2.60999V1.10999H249.064V2.60999ZM260.719 2.60999L259.353 3.22835L294.762 81.4834L296.128 80.865L297.495 80.2466L262.086 1.99162L260.719 2.60999ZM296.128 80.865V79.365H281.698V80.865V82.365H296.128V80.865ZM281.698 80.865L283.077 80.2733L273.642 58.2953L272.263 58.887L270.885 59.4787L280.32 81.4567L281.698 80.865ZM272.263 58.887L271.448 60.1457L277.442 64.0307L278.257 62.772L279.073 61.5133L273.079 57.6283L272.263 58.887ZM278.257 62.772V61.272H231.415V62.772V64.272H278.257V62.772ZM231.415 62.772L232.231 64.0307L238.225 60.1457L237.409 58.887L236.594 57.6283L230.6 61.5133L231.415 62.772ZM237.409 58.887L236.029 58.3012L226.704 80.2792L228.085 80.865L229.466 81.4508L238.79 59.4728L237.409 58.887ZM228.085 80.865V79.365H213.655V80.865V82.365H228.085V80.865ZM254.725 18.039L253.343 17.4576L237.803 54.4206L239.185 55.002L240.568 55.5833L256.108 18.6203L254.725 18.039ZM239.185 55.002L240.35 54.0561L237.464 50.5041L236.299 51.45L235.135 52.3959L238.021 55.9479L239.185 55.002ZM236.299 51.45V52.95H273.373V51.45V49.95H236.299V51.45ZM273.373 51.45L272.191 50.5265L269.416 54.0785L270.598 55.002L271.78 55.9255L274.555 52.3735L273.373 51.45ZM270.598 55.002L271.98 54.4171L256.329 17.4541L254.947 18.039L253.566 18.6239L269.217 55.5869L270.598 55.002ZM254.947 18.039V16.539H254.725V18.039V19.539H254.947V18.039ZM317.109 80.865H315.609V82.365H317.109V80.865ZM317.109 14.487H318.609V12.987H317.109V14.487ZM290.247 14.487H288.747V15.987H290.247V14.487ZM290.247 2.60999V1.10999H288.747V2.60999H290.247ZM358.179 2.60999H359.679V1.10999H358.179V2.60999ZM358.179 14.487V15.987H359.679V14.487H358.179ZM331.317 14.487V12.987H329.817V14.487H331.317ZM331.317 80.865V82.365H332.817V80.865H331.317ZM317.109 80.865H318.609V14.487H317.109H315.609V80.865H317.109ZM317.109 14.487V12.987H290.247V14.487V15.987H317.109V14.487ZM290.247 14.487H291.747V2.60999H290.247H288.747V14.487H290.247ZM290.247 2.60999V4.10999H358.179V2.60999V1.10999H290.247V2.60999ZM358.179 2.60999H356.679V14.487H358.179H359.679V2.60999H358.179ZM358.179 14.487V12.987H331.317V14.487V15.987H358.179V14.487ZM331.317 14.487H329.817V80.865H331.317H332.817V14.487H331.317ZM331.317 80.865V79.365H317.109V80.865V82.365H331.317V80.865ZM423.072 80.865L421.658 81.3645L422.011 82.365H423.072V80.865ZM395.433 2.60999V1.10999H393.313L394.019 3.10953L395.433 2.60999ZM410.085 2.60999L411.507 2.13048L411.163 1.10999H410.085V2.60999ZM431.73 66.768V68.268H433.82L433.152 66.2885L431.73 66.768ZM427.29 66.768L425.876 66.2688L425.17 68.268H427.29V66.768ZM449.934 2.60999V1.10999H448.873L448.52 2.11075L449.934 2.60999ZM460.479 2.60999L461.899 2.12607L461.553 1.10999H460.479V2.60999ZM482.346 66.768V68.268H484.442L483.766 66.2841L482.346 66.768ZM478.461 66.768L477.042 66.2819L476.362 68.268H478.461V66.768ZM500.439 2.60999V1.10999H499.368L499.02 2.12388L500.439 2.60999ZM514.315 2.60999L515.728 3.11309L516.441 1.10999H514.315V2.60999ZM486.453 80.865V82.365H487.512L487.867 81.3681L486.453 80.865ZM474.688 80.865L473.272 81.3612L473.624 82.365H474.688V80.865ZM453.597 20.703V19.203H451.482L452.182 21.1992L453.597 20.703ZM456.15 20.703L457.564 21.2039L458.273 19.203H456.15V20.703ZM434.839 80.865V82.365H435.898L436.252 81.3659L434.839 80.865ZM423.072 80.865L424.487 80.3654L396.848 2.11044L395.433 2.60999L394.019 3.10953L421.658 81.3645L423.072 80.865ZM395.433 2.60999V4.10999H410.085V2.60999V1.10999H395.433V2.60999ZM410.085 2.60999L408.664 3.08949L430.309 67.2475L431.73 66.768L433.152 66.2885L411.507 2.13048L410.085 2.60999ZM431.73 66.768V65.268H427.29V66.768V68.268H431.73V66.768ZM427.29 66.768L428.705 67.2672L451.349 3.10922L449.934 2.60999L448.52 2.11075L425.876 66.2688L427.29 66.768ZM449.934 2.60999V4.10999H460.479V2.60999V1.10999H449.934V2.60999ZM460.479 2.60999L459.06 3.0939L480.927 67.2519L482.346 66.768L483.766 66.2841L461.899 2.12607L460.479 2.60999ZM482.346 66.768V65.268H478.461V66.768V68.268H482.346V66.768ZM478.461 66.768L479.881 67.2541L501.859 3.0961L500.439 2.60999L499.02 2.12388L477.042 66.2819L478.461 66.768ZM500.439 2.60999V4.10999H514.315V2.60999V1.10999H500.439V2.60999ZM514.315 2.60999L512.901 2.10688L485.04 80.3619L486.453 80.865L487.867 81.3681L515.728 3.11309L514.315 2.60999ZM486.453 80.865V79.365H474.688V80.865V82.365H486.453V80.865ZM474.688 80.865L476.103 80.3688L455.013 20.2068L453.597 20.703L452.182 21.1992L473.272 81.3612L474.688 80.865ZM453.597 20.703V22.203H456.15V20.703V19.203H453.597V20.703ZM456.15 20.703L454.737 20.2021L433.425 80.3641L434.839 80.865L436.252 81.3659L457.564 21.2039L456.15 20.703ZM434.839 80.865V79.365H423.072V80.865V82.365H434.839V80.865ZM527.333 80.865H525.833V82.365H527.333V80.865ZM527.333 2.60999V1.10999H525.833V2.60999H527.333ZM579.392 2.60999H580.892V1.10999H579.392V2.60999ZM579.392 13.932V15.432H580.892V13.932H579.392ZM540.986 13.932V12.432H539.486V13.932H540.986ZM540.986 35.466H539.486V36.966H540.986V35.466ZM576.95 35.466H578.45V33.966H576.95V35.466ZM576.95 46.788V48.288H578.45V46.788H576.95ZM540.986 46.788V45.288H539.486V46.788H540.986ZM540.986 69.543H539.486V71.043H540.986V69.543ZM579.392 69.543H580.892V68.043H579.392V69.543ZM579.392 80.865V82.365H580.892V80.865H579.392ZM527.333 80.865H528.833V2.60999H527.333H525.833V80.865H527.333ZM527.333 2.60999V4.10999H579.392V2.60999V1.10999H527.333V2.60999ZM579.392 2.60999H577.892V13.932H579.392H580.892V2.60999H579.392ZM579.392 13.932V12.432H540.986V13.932V15.432H579.392V13.932ZM540.986 13.932H539.486V35.466H540.986H542.486V13.932H540.986ZM540.986 35.466V36.966H576.95V35.466V33.966H540.986V35.466ZM576.95 35.466H575.45V46.788H576.95H578.45V35.466H576.95ZM576.95 46.788V45.288H540.986V46.788V48.288H576.95V46.788ZM540.986 46.788H539.486V69.543H540.986H542.486V46.788H540.986ZM540.986 69.543V71.043H579.392V69.543V68.043H540.986V69.543ZM579.392 69.543H577.892V80.865H579.392H580.892V69.543H579.392ZM579.392 80.865V79.365H527.333V80.865V82.365H579.392V80.865ZM647.458 79.2L646.878 80.5833L646.891 80.5889L646.905 80.5942L647.458 79.2ZM635.581 70.986L634.475 71.9996L634.481 72.0058L634.487 72.0119L635.581 70.986ZM628.033 58.221L626.621 58.7268L628.033 58.221ZM628.033 25.143L629.443 25.6556L629.445 25.6488L628.033 25.143ZM635.581 12.489L634.487 11.4631L634.486 11.4638L635.581 12.489ZM647.458 4.38599L648.019 5.7772L648.03 5.77255L647.458 4.38599ZM678.427 4.38599L677.847 5.76928L677.86 5.77488L677.874 5.78023L678.427 4.38599ZM690.304 12.378L689.209 13.4031L689.215 13.4093L689.221 13.4153L690.304 12.378ZM697.963 25.032L696.551 25.5378L696.553 25.5446L697.963 25.032ZM697.963 58.221L696.551 57.7151L697.963 58.221ZM690.304 70.986L689.21 69.9601L689.204 69.9662L689.198 69.9724L690.304 70.986ZM678.427 79.2L678.988 80.5912L678.999 80.5865L678.427 79.2ZM675.208 66.435L674.389 65.1786L674.382 65.1827L674.376 65.1869L675.208 66.435ZM682.978 56.778L681.604 56.1755L681.6 56.1857L681.596 56.1959L682.978 56.778ZM683.089 26.586L681.707 27.1681L681.71 27.1769L683.089 26.586ZM675.319 17.04L674.5 18.2964L674.509 18.3027L674.519 18.3089L675.319 17.04ZM650.788 17.04L651.588 18.3089L651.598 18.3027L651.608 18.2964L650.788 17.04ZM642.907 26.586L641.533 25.9835L641.528 25.9951L642.907 26.586ZM642.907 56.778L641.525 57.3601L641.529 57.3703L641.533 57.3805L642.907 56.778ZM650.788 66.435L651.608 65.1786L650.788 66.435ZM662.998 81.975V80.475C657.464 80.475 652.475 79.577 648.011 77.8058L647.458 79.2L646.905 80.5942C651.765 82.523 657.136 83.475 662.998 83.475V81.975ZM647.458 79.2L648.038 77.8167C643.641 75.9725 639.858 73.3547 636.675 69.9601L635.581 70.986L634.487 72.0119C637.964 75.7213 642.1 78.5795 646.878 80.5833L647.458 79.2ZM635.581 70.986L636.687 69.9724C633.578 66.5807 631.16 62.5028 629.445 57.7151L628.033 58.221L626.621 58.7268C628.458 63.8552 631.072 68.2872 634.475 71.9996L635.581 70.986ZM628.033 58.221L629.445 57.7151C627.736 52.9421 626.869 47.6034 626.869 41.682H625.369H623.869C623.869 47.8966 624.779 53.5839 626.621 58.7268L628.033 58.221ZM625.369 41.682H626.869C626.869 35.6838 627.736 30.3484 629.443 25.6556L628.033 25.143L626.623 24.6304C624.778 29.7055 623.869 35.3962 623.869 41.682H625.369ZM628.033 25.143L629.445 25.6488C631.159 20.8633 633.574 16.8274 636.676 13.5141L635.581 12.489L634.486 11.4638C631.076 15.1065 628.459 19.5066 626.621 24.6371L628.033 25.143ZM635.581 12.489L636.675 13.5149C639.854 10.1246 643.63 7.54696 648.019 5.77715L647.458 4.38599L646.897 2.99483C642.11 4.92501 637.968 7.74939 634.487 11.4631L635.581 12.489ZM647.458 4.38599L648.03 5.77255C652.489 3.93256 657.471 2.99999 662.998 2.99999V1.49999V-1.33514e-05C657.129 -1.33514e-05 651.751 0.991419 646.886 2.99943L647.458 4.38599ZM662.998 1.49999V2.99999C668.526 2.99999 673.467 3.9327 677.847 5.76928L678.427 4.38599L679.007 3.0027C674.211 0.991276 668.867 -1.33514e-05 662.998 -1.33514e-05V1.49999ZM678.427 4.38599L677.874 5.78023C682.341 7.55305 686.112 10.0951 689.209 13.4031L690.304 12.378L691.399 11.3528C687.984 7.70487 683.837 4.91893 678.98 2.99175L678.427 4.38599ZM690.304 12.378L689.221 13.4153C692.392 16.7274 694.839 20.7593 696.551 25.5378L697.963 25.032L699.375 24.5261C697.535 19.3886 694.876 14.9845 691.388 11.3406L690.304 12.378ZM697.963 25.032L696.553 25.5446C698.26 30.2374 699.127 35.5728 699.127 41.571H700.627H702.127C702.127 35.2852 701.218 29.5945 699.373 24.5194L697.963 25.032ZM700.627 41.571H699.127C699.127 47.5687 698.26 52.944 696.551 57.7151L697.963 58.221L699.375 58.7268C701.218 53.582 702.127 47.8573 702.127 41.571H700.627ZM697.963 58.221L696.551 57.7151C694.839 62.4958 692.388 66.5697 689.21 69.9601L690.304 70.986L691.398 72.0119C694.88 68.2982 697.536 63.8622 699.375 58.7268L697.963 58.221ZM690.304 70.986L689.198 69.9724C686.098 73.355 682.324 75.9692 677.855 77.8134L678.427 79.2L678.999 80.5865C683.855 78.5828 687.999 75.721 691.41 71.9996L690.304 70.986ZM678.427 79.2L677.866 77.8088C673.481 79.5769 668.533 80.475 662.998 80.475V81.975V83.475C668.859 83.475 674.197 82.5231 678.988 80.5912L678.427 79.2ZM662.998 69.765V71.265C668.044 71.265 672.418 70.098 676.04 67.6831L675.208 66.435L674.376 65.1869C671.339 67.212 667.573 68.265 662.998 68.265V69.765ZM675.208 66.435L676.028 67.6914C679.713 65.2877 682.484 61.8179 684.361 57.3601L682.978 56.778L681.596 56.1959C679.921 60.174 677.511 63.1423 674.389 65.1786L675.208 66.435ZM682.978 56.778L684.352 57.3805C686.304 52.9288 687.253 47.6816 687.253 41.682H685.753H684.253C684.253 47.3744 683.352 52.1912 681.604 56.1755L682.978 56.778ZM685.753 41.682H687.253C687.253 35.6194 686.345 30.3744 684.468 25.9951L683.089 26.586L681.71 27.1769C683.386 31.0856 684.253 35.9046 684.253 41.682H685.753ZM683.089 26.586L684.472 26.0039C682.593 21.543 679.818 18.1028 676.119 15.7711L675.319 17.04L674.519 18.3089C677.629 20.2691 680.033 23.1929 681.707 27.1681L683.089 26.586ZM675.319 17.04L676.139 15.7836C672.449 13.3773 668.045 12.21 662.998 12.21V13.71V15.21C667.571 15.21 671.381 16.2626 674.5 18.2964L675.319 17.04ZM662.998 13.71V12.21C658.02 12.21 653.655 13.3797 649.969 15.7836L650.788 17.04L651.608 18.2964C654.73 16.2602 658.504 15.21 662.998 15.21V13.71ZM650.788 17.04L649.988 15.7711C646.295 18.0992 643.486 21.532 641.533 25.9835L642.907 26.586L644.281 27.1885C646.028 23.204 648.473 20.2728 651.588 18.3089L650.788 17.04ZM642.907 26.586L641.528 25.9951C639.652 30.3744 638.743 35.6194 638.743 41.682H640.243H641.743C641.743 35.9046 642.611 31.0856 644.286 27.1769L642.907 26.586ZM640.243 41.682H638.743C638.743 47.6747 639.653 52.9144 641.525 57.3601L642.907 56.778L644.29 56.1959C642.609 52.2056 641.743 47.3813 641.743 41.682H640.243ZM642.907 56.778L641.533 57.3805C643.485 61.829 646.289 65.2914 649.969 67.6914L650.788 66.435L651.608 65.1786C648.479 63.1386 646.03 60.163 644.281 56.1755L642.907 56.778ZM650.788 66.435L649.969 67.6914C653.655 70.0952 658.02 71.265 662.998 71.265V69.765V68.265C658.504 68.265 654.73 67.2147 651.608 65.1786L650.788 66.435ZM717.294 80.865H715.794V82.365H717.294V80.865ZM717.294 2.60999V1.10999H715.794V2.60999H717.294ZM768.465 2.60999H769.965V1.10999H768.465V2.60999ZM768.465 13.932V15.432H769.965V13.932H768.465ZM731.502 13.932V12.432H730.002V13.932H731.502ZM731.502 36.021H730.002V37.521H731.502V36.021ZM766.134 36.021H767.634V34.521H766.134V36.021ZM766.134 47.343V48.843H767.634V47.343H766.134ZM731.502 47.343V45.843H730.002V47.343H731.502ZM731.502 80.865V82.365H733.002V80.865H731.502ZM717.294 80.865H718.794V2.60999H717.294H715.794V80.865H717.294ZM717.294 2.60999V4.10999H768.465V2.60999V1.10999H717.294V2.60999ZM768.465 2.60999H766.965V13.932H768.465H769.965V2.60999H768.465ZM768.465 13.932V12.432H731.502V13.932V15.432H768.465V13.932ZM731.502 13.932H730.002V36.021H731.502H733.002V13.932H731.502ZM731.502 36.021V37.521H766.134V36.021V34.521H731.502V36.021ZM766.134 36.021H764.634V47.343H766.134H767.634V36.021H766.134ZM766.134 47.343V45.843H731.502V47.343V48.843H766.134V47.343ZM731.502 47.343H730.002V80.865H731.502H733.002V47.343H731.502ZM731.502 80.865V79.365H717.294V80.865V82.365H731.502V80.865ZM781.844 80.865H780.344V82.365H781.844V80.865ZM781.844 2.60999V1.10999H780.344V2.60999H781.844ZM833.015 2.60999H834.515V1.10999H833.015V2.60999ZM833.015 13.932V15.432H834.515V13.932H833.015ZM796.052 13.932V12.432H794.552V13.932H796.052ZM796.052 36.021H794.552V37.521H796.052V36.021ZM830.684 36.021H832.184V34.521H830.684V36.021ZM830.684 47.343V48.843H832.184V47.343H830.684ZM796.052 47.343V45.843H794.552V47.343H796.052ZM796.052 80.865V82.365H797.552V80.865H796.052ZM781.844 80.865H783.344V2.60999H781.844H780.344V80.865H781.844ZM781.844 2.60999V4.10999H833.015V2.60999V1.10999H781.844V2.60999ZM833.015 2.60999H831.515V13.932H833.015H834.515V2.60999H833.015ZM833.015 13.932V12.432H796.052V13.932V15.432H833.015V13.932ZM796.052 13.932H794.552V36.021H796.052H797.552V13.932H796.052ZM796.052 36.021V37.521H830.684V36.021V34.521H796.052V36.021ZM830.684 36.021H829.184V47.343H830.684H832.184V36.021H830.684ZM830.684 47.343V45.843H796.052V47.343V48.843H830.684V47.343ZM796.052 47.343H794.552V80.865H796.052H797.552V47.343H796.052ZM796.052 80.865V79.365H781.844V80.865V82.365H796.052V80.865ZM846.393 80.865H844.893V82.365H846.393V80.865ZM846.393 2.60999V1.10999H844.893V2.60999H846.393ZM898.452 2.60999H899.952V1.10999H898.452V2.60999ZM898.452 13.932V15.432H899.952V13.932H898.452ZM860.046 13.932V12.432H858.546V13.932H860.046ZM860.046 35.466H858.546V36.966H860.046V35.466ZM896.01 35.466H897.51V33.966H896.01V35.466ZM896.01 46.788V48.288H897.51V46.788H896.01ZM860.046 46.788V45.288H858.546V46.788H860.046ZM860.046 69.543H858.546V71.043H860.046V69.543ZM898.452 69.543H899.952V68.043H898.452V69.543ZM898.452 80.865V82.365H899.952V80.865H898.452ZM846.393 80.865H847.893V2.60999H846.393H844.893V80.865H846.393ZM846.393 2.60999V4.10999H898.452V2.60999V1.10999H846.393V2.60999ZM898.452 2.60999H896.952V13.932H898.452H899.952V2.60999H898.452ZM898.452 13.932V12.432H860.046V13.932V15.432H898.452V13.932ZM860.046 13.932H858.546V35.466H860.046H861.546V13.932H860.046ZM860.046 35.466V36.966H896.01V35.466V33.966H860.046V35.466ZM896.01 35.466H894.51V46.788H896.01H897.51V35.466H896.01ZM896.01 46.788V45.288H860.046V46.788V48.288H896.01V46.788ZM860.046 46.788H858.546V69.543H860.046H861.546V46.788H860.046ZM860.046 69.543V71.043H898.452V69.543V68.043H860.046V69.543ZM898.452 69.543H896.952V80.865H898.452H899.952V69.543H898.452ZM898.452 80.865V79.365H846.393V80.865V82.365H898.452V80.865ZM914.844 80.865H913.344V82.365H914.844V80.865ZM914.844 2.60999V1.10999H913.344V2.60999H914.844ZM968.679 8.82598L967.683 9.94714L967.693 9.95596L968.679 8.82598ZM972.453 38.463L971.177 37.6753L971.17 37.6853L971.164 37.6953L972.453 38.463ZM963.351 46.455L963.981 47.8162L963.351 46.455ZM948.81 49.23L947.524 48.4582L946.161 50.73H948.81V49.23ZM949.809 47.565V46.065H948.96L948.523 46.7932L949.809 47.565ZM961.353 49.785L960.521 51.0331L960.53 51.0393L960.54 51.0454L961.353 49.785ZM967.347 56.778L966.024 57.4855L966.029 57.4946L967.347 56.778ZM980.445 80.865V82.365H982.968L981.763 80.1484L980.445 80.865ZM964.794 80.865L963.475 81.58L963.901 82.365H964.794V80.865ZM951.252 55.89L952.571 55.175L952.569 55.1717L951.252 55.89ZM948.255 52.116L947.273 53.2495L947.295 53.2689L947.318 53.2873L948.255 52.116ZM929.052 49.563V48.063H927.552V49.563H929.052ZM929.052 80.865V82.365H930.552V80.865H929.052ZM929.052 39.018H927.552V40.518H929.052V39.018ZM957.912 35.91L958.849 37.0813L958.853 37.0781L957.912 35.91ZM957.912 17.04L956.955 18.195L956.973 18.2098L956.991 18.224L957.912 17.04ZM929.052 13.821V12.321H927.552V13.821H929.052ZM914.844 80.865H916.344V2.60999H914.844H913.344V80.865H914.844ZM914.844 2.60999V4.10999H948.81V2.60999V1.10999H914.844V2.60999ZM948.81 2.60999V4.10999C957.165 4.10999 963.384 6.12582 967.683 9.9471L968.679 8.82598L969.676 7.70487C964.651 3.23815 957.623 1.10999 948.81 1.10999V2.60999ZM968.679 8.82598L967.693 9.95596C971.964 13.6852 974.172 18.9712 974.172 26.031H975.672H977.172C977.172 18.2907 974.718 12.1067 969.666 7.69601L968.679 8.82598ZM975.672 26.031H974.172C974.172 30.6127 973.152 34.4732 971.177 37.6753L972.453 38.463L973.73 39.2506C976.046 35.4968 977.172 31.0693 977.172 26.031H975.672ZM972.453 38.463L971.164 37.6953C969.261 40.8908 966.468 43.3591 962.721 45.0938L963.351 46.455L963.981 47.8162C968.226 45.8509 971.501 42.9912 973.742 39.2307L972.453 38.463ZM963.351 46.455L962.721 45.0938C958.971 46.8296 954.352 47.73 948.81 47.73V49.23V50.73C954.664 50.73 959.739 49.7803 963.981 47.8162L963.351 46.455ZM948.81 49.23L950.096 50.0017L951.095 48.3367L949.809 47.565L948.523 46.7932L947.524 48.4582L948.81 49.23ZM949.809 47.565V49.065H953.472V47.565V46.065H949.809V47.565ZM953.472 47.565V49.065C956.252 49.065 958.58 49.7391 960.521 51.0331L961.353 49.785L962.185 48.5369C959.686 46.8709 956.76 46.065 953.472 46.065V47.565ZM961.353 49.785L960.54 51.0454C962.562 52.35 964.405 54.4582 966.024 57.4855L967.347 56.778L968.67 56.0705C966.885 52.7338 964.732 50.18 962.166 48.5245L961.353 49.785ZM967.347 56.778L966.029 57.4946L979.127 81.5816L980.445 80.865L981.763 80.1484L968.665 56.0614L967.347 56.778ZM980.445 80.865V79.365H964.794V80.865V82.365H980.445V80.865ZM964.794 80.865L966.113 80.15L952.571 55.175L951.252 55.89L949.933 56.605L963.475 81.58L964.794 80.865ZM951.252 55.89L952.569 55.1717C951.613 53.4197 950.497 51.9886 949.192 50.9447L948.255 52.116L947.318 53.2873C948.233 54.0194 949.115 55.1043 949.935 56.6083L951.252 55.89ZM948.255 52.116L949.237 50.9825C947.956 49.8718 946.493 49.0964 944.863 48.6674L944.481 50.118L944.099 51.5686C945.281 51.8796 946.334 52.4361 947.273 53.2495L948.255 52.116ZM944.481 50.118L944.863 48.6674C943.304 48.2571 941.543 48.063 939.597 48.063V49.563V51.063C941.351 51.063 942.846 51.2389 944.099 51.5686L944.481 50.118ZM939.597 49.563V48.063H929.052V49.563V51.063H939.597V49.563ZM929.052 49.563H927.552V80.865H929.052H930.552V49.563H929.052ZM929.052 80.865V79.365H914.844V80.865V82.365H929.052V80.865ZM929.052 39.018V40.518H946.368V39.018V37.518H929.052V39.018ZM946.368 39.018V40.518C951.641 40.518 955.883 39.454 958.849 37.0813L957.912 35.91L956.975 34.7387C954.761 36.51 951.308 37.518 946.368 37.518V39.018ZM957.912 35.91L958.853 37.0781C961.952 34.5816 963.408 30.9195 963.408 26.364H961.908H960.408C960.408 30.2444 959.2 32.9464 956.971 34.7419L957.912 35.91ZM961.908 26.364H963.408C963.408 21.874 961.946 18.2769 958.833 15.856L957.912 17.04L956.991 18.224C959.207 19.947 960.408 22.5659 960.408 26.364H961.908ZM957.912 17.04L958.869 15.885C955.901 13.426 951.65 12.321 946.368 12.321V13.821V15.321C951.298 15.321 954.743 16.362 956.955 18.195L957.912 17.04ZM946.368 13.821V12.321H929.052V13.821V15.321H946.368V13.821ZM929.052 13.821H927.552V39.018H929.052H930.552V13.821H929.052Z" fill="black"/>
</svg>
