<svg width="1047" height="84" viewBox="0 0 1047 84" fill="none" xmlns="http://www.w3.org/2000/svg">
<path opacity="0.5" d="M29.7596 80.8652L28.3452 81.3648L28.6986 82.3652H29.7596V80.8652ZM2.12059 2.61023V1.11023H-7.59959e-06L0.706215 3.10977L2.12059 2.61023ZM16.7726 2.61023L18.1939 2.13073L17.8496 1.11023H16.7726V2.61023ZM38.4176 66.7682V68.2682H40.5067L39.8389 66.2887L38.4176 66.7682ZM33.9776 66.7682L32.5631 66.269L31.8575 68.2682H33.9776V66.7682ZM56.6216 2.61023V1.11023H55.5603L55.2071 2.111L56.6216 2.61023ZM67.1666 2.61023L68.5864 2.12632L68.2401 1.11023H67.1666V2.61023ZM89.0336 66.7682V68.2682H91.1296L90.4534 66.2843L89.0336 66.7682ZM85.1486 66.7682L83.7295 66.2821L83.0492 68.2682H85.1486V66.7682ZM107.127 2.61023V1.11023H106.055L105.708 2.12412L107.127 2.61023ZM121.002 2.61023L122.415 3.11334L123.128 1.11023H121.002V2.61023ZM93.1406 80.8652V82.3652H94.1988L94.5537 81.3683L93.1406 80.8652ZM81.3746 80.8652L79.9591 81.3615L80.3109 82.3652H81.3746V80.8652ZM60.2846 20.7032V19.2032H58.1693L58.869 21.1995L60.2846 20.7032ZM62.8376 20.7032L64.2515 21.2041L64.9603 19.2032H62.8376V20.7032ZM41.5256 80.8652V82.3652H42.5856L42.9395 81.3661L41.5256 80.8652ZM29.7596 80.8652L31.174 80.3657L3.53496 2.11068L2.12059 2.61023L0.706215 3.10977L28.3452 81.3648L29.7596 80.8652ZM2.12059 2.61023V4.11023H16.7726V2.61023V1.11023H2.12059V2.61023ZM16.7726 2.61023L15.3513 3.08973L36.9963 67.2477L38.4176 66.7682L39.8389 66.2887L18.1939 2.13073L16.7726 2.61023ZM38.4176 66.7682V65.2682H33.9776V66.7682V68.2682H38.4176V66.7682ZM33.9776 66.7682L35.3921 67.2675L58.0361 3.10946L56.6216 2.61023L55.2071 2.111L32.5631 66.269L33.9776 66.7682ZM56.6216 2.61023V4.11023H67.1666V2.61023V1.11023H56.6216V2.61023ZM67.1666 2.61023L65.7468 3.09414L87.6138 67.2521L89.0336 66.7682L90.4534 66.2843L68.5864 2.12632L67.1666 2.61023ZM89.0336 66.7682V65.2682H85.1486V66.7682V68.2682H89.0336V66.7682ZM85.1486 66.7682L86.5676 67.2543L108.546 3.09634L107.127 2.61023L105.708 2.12412L83.7295 66.2821L85.1486 66.7682ZM107.127 2.61023V4.11023H121.002V2.61023V1.11023H107.127V2.61023ZM121.002 2.61023L119.588 2.10712L91.7275 80.3621L93.1406 80.8652L94.5537 81.3683L122.415 3.11334L121.002 2.61023ZM93.1406 80.8652V79.3652H81.3746V80.8652V82.3652H93.1406V80.8652ZM81.3746 80.8652L82.7901 80.369L61.7001 20.207L60.2846 20.7032L58.869 21.1995L79.9591 81.3615L81.3746 80.8652ZM60.2846 20.7032V22.2032H62.8376V20.7032V19.2032H60.2846V20.7032ZM62.8376 20.7032L61.4237 20.2024L40.1117 80.3644L41.5256 80.8652L42.9395 81.3661L64.2515 21.2041L62.8376 20.7032ZM41.5256 80.8652V79.3652H29.7596V80.8652V82.3652H41.5256V80.8652ZM134.02 80.8652H132.52V82.3652H134.02V80.8652ZM134.02 2.61023V1.11023H132.52V2.61023H134.02ZM148.228 2.61023H149.728V1.11023H148.228V2.61023ZM148.228 35.2442H146.728V36.7442H148.228V35.2442ZM188.521 35.2442V36.7442H190.021V35.2442H188.521ZM188.521 2.61023V1.11023H187.021V2.61023H188.521ZM202.729 2.61023H204.229V1.11023H202.729V2.61023ZM202.729 80.8652V82.3652H204.229V80.8652H202.729ZM188.521 80.8652H187.021V82.3652H188.521V80.8652ZM188.521 47.1212H190.021V45.6212H188.521V47.1212ZM148.228 47.1212V45.6212H146.728V47.1212H148.228ZM148.228 80.8652V82.3652H149.728V80.8652H148.228ZM134.02 80.8652H135.52V2.61023H134.02H132.52V80.8652H134.02ZM134.02 2.61023V4.11023H148.228V2.61023V1.11023H134.02V2.61023ZM148.228 2.61023H146.728V35.2442H148.228H149.728V2.61023H148.228ZM148.228 35.2442V36.7442H188.521V35.2442V33.7442H148.228V35.2442ZM188.521 35.2442H190.021V2.61023H188.521H187.021V35.2442H188.521ZM188.521 2.61023V4.11023H202.729V2.61023V1.11023H188.521V2.61023ZM202.729 2.61023H201.229V80.8652H202.729H204.229V2.61023H202.729ZM202.729 80.8652V79.3652H188.521V80.8652V82.3652H202.729V80.8652ZM188.521 80.8652H190.021V47.1212H188.521H187.021V80.8652H188.521ZM188.521 47.1212V45.6212H148.228V47.1212V48.6212H188.521V47.1212ZM148.228 47.1212H146.728V80.8652H148.228H149.728V47.1212H148.228ZM148.228 80.8652V79.3652H134.02V80.8652V82.3652H148.228V80.8652ZM240.739 80.8652H239.239V82.3652H240.739V80.8652ZM240.739 40.5722L242.155 40.0759L239.239 40.5722H240.739ZM243.736 49.1192L242.514 49.9886L245.152 48.6229L243.736 49.1192ZM210.658 2.61023V1.11023H207.751L209.436 3.4796L210.658 2.61023ZM227.197 2.61023L228.424 1.74688L227.976 1.11023H227.197V2.61023ZM249.619 34.4672V35.9672H252.509L250.846 33.6039L249.619 34.4672ZM246.511 34.4672L245.287 33.601L243.613 35.9672H246.511V34.4672ZM269.044 2.61023V1.11023H268.268L267.82 1.74403L269.044 2.61023ZM284.917 2.61023L286.142 3.47571L287.814 1.11023H284.917V2.61023ZM252.061 49.1192L250.64 48.6394L253.286 49.9847L252.061 49.1192ZM254.947 40.5722H256.447L253.526 40.0924L254.947 40.5722ZM254.947 80.8652V82.3652H256.447V80.8652H254.947ZM240.739 80.8652H242.239V40.5722H240.739H239.239V80.8652H240.739ZM240.739 40.5722L239.324 41.0686L242.321 49.6156L243.736 49.1192L245.152 48.6229L242.155 40.0759L240.739 40.5722ZM243.736 49.1192L244.959 48.2499L211.881 1.74086L210.658 2.61023L209.436 3.4796L242.514 49.9886L243.736 49.1192ZM210.658 2.61023V4.11023H227.197V2.61023V1.11023H210.658V2.61023ZM227.197 2.61023L225.971 3.47358L248.393 35.3306L249.619 34.4672L250.846 33.6039L228.424 1.74688L227.197 2.61023ZM249.619 34.4672V32.9672H246.511V34.4672V35.9672H249.619V34.4672ZM246.511 34.4672L247.736 35.3334L270.269 3.47643L269.044 2.61023L267.82 1.74403L245.287 33.601L246.511 34.4672ZM269.044 2.61023V4.11023H284.917V2.61023V1.11023H269.044V2.61023ZM284.917 2.61023L283.692 1.74475L250.836 48.2537L252.061 49.1192L253.286 49.9847L286.142 3.47571L284.917 2.61023ZM252.061 49.1192L253.483 49.5991L256.369 41.0521L254.947 40.5722L253.526 40.0924L250.64 48.6394L252.061 49.1192ZM254.947 40.5722H253.447V80.8652H254.947H256.447V40.5722H254.947ZM254.947 80.8652V79.3652H240.739V80.8652V82.3652H254.947V80.8652ZM340.495 77.0912L339.745 78.3905L339.755 78.3962L339.765 78.4017L340.495 77.0912ZM327.175 63.1052L325.839 63.7891L325.843 63.7957L327.175 63.1052ZM327.175 20.3702L328.506 21.0607L327.175 20.3702ZM340.495 6.49523L341.232 7.80171L341.237 7.79861L340.495 6.49523ZM376.348 3.94223L375.853 5.35839L375.86 5.36076L376.348 3.94223ZM388.003 10.9352L389.39 11.5064L389.77 10.5817L389.063 9.87457L388.003 10.9352ZM383.341 22.2572L382.373 23.4033L383.944 24.7304L384.728 22.8284L383.341 22.2572ZM373.129 16.1522L372.592 17.553L372.605 17.558L372.618 17.5628L373.129 16.1522ZM343.825 21.3692L344.953 22.357L344.961 22.3483L343.825 21.3692ZM343.825 62.1062L342.688 63.0853L343.825 62.1062ZM373.129 67.4342L373.639 68.8448L373.652 68.84L373.665 68.835L373.129 67.4342ZM383.341 61.2182L384.728 60.6471L383.944 58.7451L382.373 60.0722L383.341 61.2182ZM388.003 72.5402L389.05 73.6139L389.775 72.9062L389.39 71.9691L388.003 72.5402ZM376.348 79.5332L376.842 80.9494L376.855 80.9448L376.348 79.5332ZM361.474 81.9752V80.4752C353.534 80.4752 346.804 78.8882 341.224 75.7808L340.495 77.0912L339.765 78.4017C345.877 81.8062 353.133 83.4752 361.474 83.4752V81.9752ZM340.495 77.0912L341.244 75.792C335.724 72.6071 331.484 68.158 328.506 62.4148L327.175 63.1052L325.843 63.7957C329.081 70.0405 333.721 74.9153 339.745 78.3905L340.495 77.0912ZM327.175 63.1052L328.51 62.4214C325.53 56.6042 324.013 49.7067 324.013 41.6822H322.513H321.013C321.013 50.0858 322.603 57.4703 325.839 63.789L327.175 63.1052ZM322.513 41.6822H324.013C324.013 33.6571 325.53 26.8 328.506 21.0607L327.175 20.3702L325.843 19.6798C322.603 25.9285 321.013 33.2793 321.013 41.6822H322.513ZM327.175 20.3702L328.506 21.0607C331.483 15.3203 335.718 10.9117 341.232 7.8017L340.495 6.49523L339.758 5.18876C333.727 8.5908 329.082 13.4322 325.843 19.6798L327.175 20.3702ZM340.495 6.49523L341.237 7.79861C346.814 4.622 353.539 3.00023 361.474 3.00023V1.50023V0.000230789C353.128 0.000230789 345.867 1.70847 339.752 5.19185L340.495 6.49523ZM361.474 1.50023V3.00023C366.57 3.00023 371.36 3.78934 375.853 5.35837L376.348 3.94223L376.842 2.52609C372.011 0.839121 366.885 0.000230789 361.474 0.000230789V1.50023ZM376.348 3.94223L375.86 5.36076C380.416 6.92696 384.094 9.14808 386.942 11.9959L388.003 10.9352L389.063 9.87457C385.843 6.65438 381.751 4.21351 376.835 2.5237L376.348 3.94223ZM388.003 10.9352L386.616 10.3641L381.954 21.6861L383.341 22.2572L384.728 22.8284L389.39 11.5064L388.003 10.9352ZM383.341 22.2572L384.308 21.1112C380.866 18.2046 377.311 16.0698 373.639 14.7417L373.129 16.1522L372.618 17.5628C375.903 18.7507 379.155 20.6858 382.373 23.4033L383.341 22.2572ZM373.129 16.1522L373.665 14.7514C370.004 13.3492 366.083 12.6542 361.918 12.6542V14.1542V15.6542C365.744 15.6542 369.297 16.2913 372.592 17.553L373.129 16.1522ZM361.918 14.1542V12.6542C353.68 12.6542 347.185 15.1701 342.688 20.3902L343.825 21.3692L344.961 22.3483C348.752 17.9484 354.319 15.6542 361.918 15.6542V14.1542ZM343.825 21.3692L342.696 20.3815C338.232 25.4829 336.109 32.6573 336.109 41.6822H337.609H339.109C339.109 33.0951 341.129 26.7275 344.953 22.357L343.825 21.3692ZM337.609 41.6822H336.109C336.109 50.709 338.233 57.9138 342.688 63.0853L343.825 62.1062L344.961 61.1272C341.128 56.6787 339.109 50.2675 339.109 41.6822H337.609ZM343.825 62.1062L342.688 63.0853C347.185 68.3054 353.68 70.8212 361.918 70.8212V69.3212V67.8212C354.319 67.8212 348.752 65.5271 344.961 61.1272L343.825 62.1062ZM361.918 69.3212V70.8212C366.073 70.8212 369.984 70.1666 373.639 68.8448L373.129 67.4342L372.618 66.0237C369.317 67.2179 365.754 67.8212 361.918 67.8212V69.3212ZM373.129 67.4342L373.665 68.835C377.324 67.4336 380.871 65.2667 384.308 62.3643L383.341 61.2182L382.373 60.0722C379.15 62.7938 375.889 64.7708 372.592 66.0334L373.129 67.4342ZM383.341 61.2182L381.954 61.7894L386.616 73.1114L388.003 72.5402L389.39 71.9691L384.728 60.6471L383.341 61.2182ZM388.003 72.5402L386.955 71.4666C384.101 74.2511 380.411 76.4789 375.84 78.1216L376.348 79.5332L376.855 80.9448C381.756 79.1836 385.836 76.7494 389.05 73.6139L388.003 72.5402ZM376.348 79.5332L375.853 78.1171C371.36 79.6861 366.57 80.4752 361.474 80.4752V81.9752V83.4752C366.885 83.4752 372.011 82.6363 376.842 80.9494L376.348 79.5332ZM402.622 80.8652H401.122V82.3652H402.622V80.8652ZM402.622 2.61023V1.11023H401.122V2.61023H402.622ZM416.83 2.61023H418.33V1.11023H416.83V2.61023ZM416.83 35.2442H415.33V36.7442H416.83V35.2442ZM457.123 35.2442V36.7442H458.623V35.2442H457.123ZM457.123 2.61023V1.11023H455.623V2.61023H457.123ZM471.331 2.61023H472.831V1.11023H471.331V2.61023ZM471.331 80.8652V82.3652H472.831V80.8652H471.331ZM457.123 80.8652H455.623V82.3652H457.123V80.8652ZM457.123 47.1212H458.623V45.6212H457.123V47.1212ZM416.83 47.1212V45.6212H415.33V47.1212H416.83ZM416.83 80.8652V82.3652H418.33V80.8652H416.83ZM402.622 80.8652H404.122V2.61023H402.622H401.122V80.8652H402.622ZM402.622 2.61023V4.11023H416.83V2.61023V1.11023H402.622V2.61023ZM416.83 2.61023H415.33V35.2442H416.83H418.33V2.61023H416.83ZM416.83 35.2442V36.7442H457.123V35.2442V33.7442H416.83V35.2442ZM457.123 35.2442H458.623V2.61023H457.123H455.623V35.2442H457.123ZM457.123 2.61023V4.11023H471.331V2.61023V1.11023H457.123V2.61023ZM471.331 2.61023H469.831V80.8652H471.331H472.831V2.61023H471.331ZM471.331 80.8652V79.3652H457.123V80.8652V82.3652H471.331V80.8652ZM457.123 80.8652H458.623V47.1212H457.123H455.623V80.8652H457.123ZM457.123 47.1212V45.6212H416.83V47.1212V48.6212H457.123V47.1212ZM416.83 47.1212H415.33V80.8652H416.83H418.33V47.1212H416.83ZM416.83 80.8652V79.3652H402.622V80.8652V82.3652H416.83V80.8652ZM510.23 79.2002L509.65 80.5835L509.663 80.5891L509.677 80.5945L510.23 79.2002ZM498.353 70.9862L497.247 71.9998L497.253 72.006L497.259 72.0121L498.353 70.9862ZM490.805 58.2212L489.393 58.7271L490.805 58.2212ZM490.805 25.1432L492.215 25.6559L492.217 25.6491L490.805 25.1432ZM498.353 12.4892L497.259 11.4633L497.258 11.4641L498.353 12.4892ZM510.23 4.38623L510.791 5.77744L510.802 5.77279L510.23 4.38623ZM541.199 4.38623L540.619 5.76952L540.632 5.77513L540.646 5.78047L541.199 4.38623ZM553.076 12.3782L551.981 13.4034L551.987 13.4095L551.993 13.4156L553.076 12.3782ZM560.735 25.0322L559.323 25.5381L559.325 25.5448L560.735 25.0322ZM560.735 58.2212L559.323 57.7154L560.735 58.2212ZM553.076 70.9862L551.982 69.9603L551.976 69.9665L551.97 69.9726L553.076 70.9862ZM541.199 79.2002L541.76 80.5914L541.771 80.5868L541.199 79.2002ZM537.98 66.4352L537.161 65.1788L537.154 65.183L537.148 65.1872L537.98 66.4352ZM545.75 56.7782L544.376 56.1757L544.372 56.1859L544.368 56.1961L545.75 56.7782ZM545.861 26.5862L544.479 27.1683L544.482 27.1771L545.861 26.5862ZM538.091 17.0402L537.272 18.2966L537.281 18.303L537.291 18.3091L538.091 17.0402ZM513.56 17.0402L514.36 18.3091L514.37 18.303L514.379 18.2966L513.56 17.0402ZM505.679 26.5862L504.305 25.9837L504.3 25.9954L505.679 26.5862ZM505.679 56.7782L504.297 57.3603L504.301 57.3706L504.305 57.3807L505.679 56.7782ZM513.56 66.4352L514.379 65.1788L513.56 66.4352ZM525.77 81.9752V80.4752C520.236 80.4752 515.247 79.5773 510.783 77.806L510.23 79.2002L509.677 80.5945C514.537 82.5232 519.908 83.4752 525.77 83.4752V81.9752ZM510.23 79.2002L510.81 77.8169C506.412 75.9727 502.63 73.3549 499.447 69.9603L498.353 70.9862L497.259 72.0121C500.736 75.7215 504.872 78.5797 509.65 80.5835L510.23 79.2002ZM498.353 70.9862L499.459 69.9726C496.35 66.581 493.932 62.503 492.217 57.7154L490.805 58.2212L489.393 58.7271C491.23 63.8554 493.844 68.2875 497.247 71.9998L498.353 70.9862ZM490.805 58.2212L492.217 57.7154C490.507 52.9423 489.641 47.6036 489.641 41.6822H488.141H486.641C486.641 47.8968 487.551 53.5841 489.393 58.7271L490.805 58.2212ZM488.141 41.6822H489.641C489.641 35.684 490.508 30.3487 492.215 25.6558L490.805 25.1432L489.395 24.6306C487.55 29.7058 486.641 35.3965 486.641 41.6822H488.141ZM490.805 25.1432L492.217 25.6491C493.931 20.8636 496.346 16.8277 499.448 13.5144L498.353 12.4892L497.258 11.4641C493.848 15.1068 491.231 19.5069 489.393 24.6374L490.805 25.1432ZM498.353 12.4892L499.447 13.5151C502.626 10.1248 506.402 7.5472 510.791 5.7774L510.23 4.38623L509.669 2.99507C504.882 4.92526 500.74 7.74964 497.259 11.4633L498.353 12.4892ZM510.23 4.38623L510.802 5.77279C515.261 3.9328 520.243 3.00023 525.77 3.00023V1.50023V0.000230789C519.901 0.000230789 514.523 0.991663 509.658 2.99967L510.23 4.38623ZM525.77 1.50023V3.00023C531.298 3.00023 536.239 3.93294 540.619 5.76952L541.199 4.38623L541.779 3.00294C536.983 0.99152 531.638 0.000230789 525.77 0.000230789V1.50023ZM541.199 4.38623L540.646 5.78047C545.113 7.55329 548.884 10.0953 551.981 13.4034L553.076 12.3782L554.171 11.3531C550.756 7.70512 546.609 4.91917 541.752 2.992L541.199 4.38623ZM553.076 12.3782L551.993 13.4156C555.164 16.7277 557.611 20.7596 559.323 25.5381L560.735 25.0322L562.147 24.5264C560.307 19.3889 557.648 14.9848 554.159 11.3409L553.076 12.3782ZM560.735 25.0322L559.325 25.5448C561.032 30.2377 561.899 35.573 561.899 41.5712H563.399H564.899C564.899 35.2855 563.99 29.5948 562.145 24.5196L560.735 25.0322ZM563.399 41.5712H561.899C561.899 47.5689 561.032 52.9442 559.323 57.7154L560.735 58.2212L562.147 58.7271C563.99 53.5823 564.899 47.8575 564.899 41.5712H563.399ZM560.735 58.2212L559.323 57.7154C557.61 62.4961 555.16 66.57 551.982 69.9603L553.076 70.9862L554.17 72.0121C557.652 68.2985 560.308 63.8624 562.147 58.7271L560.735 58.2212ZM553.076 70.9862L551.97 69.9726C548.87 73.3552 545.096 75.9694 540.627 77.8137L541.199 79.2002L541.771 80.5868C546.627 78.583 550.77 75.7213 554.182 71.9998L553.076 70.9862ZM541.199 79.2002L540.638 77.8091C536.253 79.5771 531.305 80.4752 525.77 80.4752V81.9752V83.4752C531.631 83.4752 536.969 82.5233 541.76 80.5914L541.199 79.2002ZM525.77 69.7652V71.2652C530.816 71.2652 535.19 70.0983 538.812 67.6833L537.98 66.4352L537.148 65.1872C534.11 67.2122 530.345 68.2652 525.77 68.2652V69.7652ZM537.98 66.4352L538.799 67.6917C542.485 65.288 545.255 61.8182 547.133 57.3603L545.75 56.7782L544.368 56.1961C542.693 60.1743 540.283 63.1425 537.161 65.1788L537.98 66.4352ZM545.75 56.7782L547.124 57.3807C549.076 52.929 550.025 47.6818 550.025 41.6822H548.525H547.025C547.025 47.3747 546.124 52.1915 544.376 56.1757L545.75 56.7782ZM548.525 41.6822H550.025C550.025 35.6196 549.117 30.3747 547.24 25.9954L545.861 26.5862L544.482 27.1771C546.157 31.0858 547.025 35.9048 547.025 41.6822H548.525ZM545.861 26.5862L547.243 26.0041C545.365 21.5433 542.59 18.1031 538.891 15.7713L538.091 17.0402L537.291 18.3091C540.4 20.2694 542.805 23.1932 544.479 27.1683L545.861 26.5862ZM538.091 17.0402L538.91 15.7838C535.221 13.3776 530.817 12.2102 525.77 12.2102V13.7102V15.2102C530.343 15.2102 534.153 16.2629 537.272 18.2966L538.091 17.0402ZM525.77 13.7102V12.2102C520.792 12.2102 516.427 13.38 512.741 15.7838L513.56 17.0402L514.379 18.2966C517.502 16.2605 521.276 15.2102 525.77 15.2102V13.7102ZM513.56 17.0402L512.76 15.7713C509.067 18.0995 506.258 21.5322 504.305 25.9837L505.679 26.5862L507.053 27.1887C508.8 23.2043 511.245 20.273 514.36 18.3091L513.56 17.0402ZM505.679 26.5862L504.3 25.9954C502.423 30.3747 501.515 35.6196 501.515 41.6822H503.015H504.515C504.515 35.9048 505.383 31.0858 507.058 27.1771L505.679 26.5862ZM503.015 41.6822H501.515C501.515 47.6749 502.425 52.9146 504.297 57.3603L505.679 56.7782L507.061 56.1961C505.381 52.2058 504.515 47.3815 504.515 41.6822H503.015ZM505.679 56.7782L504.305 57.3807C506.256 61.8292 509.061 65.2916 512.741 67.6917L513.56 66.4352L514.379 65.1788C511.251 63.1388 508.802 60.1632 507.053 56.1757L505.679 56.7782ZM513.56 66.4352L512.741 67.6917C516.427 70.0955 520.792 71.2652 525.77 71.2652V69.7652V68.2652C521.276 68.2652 517.502 67.215 514.379 65.1788L513.56 66.4352ZM599.602 79.2002L599.022 80.5835L599.036 80.5891L599.049 80.5945L599.602 79.2002ZM587.725 70.9862L586.62 71.9998L586.625 72.006L586.631 72.0121L587.725 70.9862ZM580.177 58.2212L578.765 58.7271L580.177 58.2212ZM580.177 25.1432L581.587 25.6559L581.589 25.6491L580.177 25.1432ZM587.725 12.4892L586.631 11.4633L586.63 11.4641L587.725 12.4892ZM599.602 4.38623L600.163 5.77744L600.175 5.77279L599.602 4.38623ZM630.571 4.38623L629.991 5.76952L630.005 5.77513L630.018 5.78047L630.571 4.38623ZM642.448 12.3782L641.353 13.4034L641.359 13.4095L641.365 13.4156L642.448 12.3782ZM650.107 25.0322L648.695 25.5381L648.698 25.5448L650.107 25.0322ZM650.107 58.2212L648.695 57.7154L650.107 58.2212ZM642.448 70.9862L641.354 69.9603L641.348 69.9665L641.343 69.9726L642.448 70.9862ZM630.571 79.2002L631.132 80.5914L631.144 80.5868L630.571 79.2002ZM627.352 66.4352L626.533 65.1788L626.527 65.183L626.52 65.1872L627.352 66.4352ZM635.122 56.7782L633.749 56.1757L633.744 56.1859L633.74 56.1961L635.122 56.7782ZM635.233 26.5862L633.851 27.1683L633.855 27.1771L635.233 26.5862ZM627.463 17.0402L626.644 18.2966L626.654 18.303L626.663 18.3091L627.463 17.0402ZM602.932 17.0402L603.732 18.3091L603.742 18.303L603.752 18.2966L602.932 17.0402ZM595.051 26.5862L593.678 25.9837L593.673 25.9954L595.051 26.5862ZM595.051 56.7782L593.669 57.3603L593.673 57.3706L593.678 57.3807L595.051 56.7782ZM602.932 66.4352L603.752 65.1788L602.932 66.4352ZM615.142 81.9752V80.4752C609.608 80.4752 604.619 79.5773 600.156 77.806L599.602 79.2002L599.049 80.5945C603.909 82.5232 609.28 83.4752 615.142 83.4752V81.9752ZM599.602 79.2002L600.182 77.8169C595.785 75.9727 592.002 73.3549 588.82 69.9603L587.725 70.9862L586.631 72.0121C590.109 75.7215 594.244 78.5797 599.022 80.5835L599.602 79.2002ZM587.725 70.9862L588.831 69.9726C585.722 66.581 583.304 62.503 581.589 57.7154L580.177 58.2212L578.765 58.7271C580.602 63.8554 583.217 68.2875 586.62 71.9998L587.725 70.9862ZM580.177 58.2212L581.589 57.7154C579.88 52.9423 579.013 47.6036 579.013 41.6822H577.513H576.013C576.013 47.8968 576.923 53.5841 578.765 58.7271L580.177 58.2212ZM577.513 41.6822H579.013C579.013 35.684 579.881 30.3487 581.587 25.6558L580.177 25.1432L578.768 24.6306C576.922 29.7058 576.013 35.3965 576.013 41.6822H577.513ZM580.177 25.1432L581.589 25.6491C583.304 20.8636 585.719 16.8277 588.82 13.5144L587.725 12.4892L586.63 11.4641C583.22 15.1068 580.603 19.5069 578.765 24.6374L580.177 25.1432ZM587.725 12.4892L588.82 13.5151C591.998 10.1248 595.774 7.5472 600.163 5.7774L599.602 4.38623L599.041 2.99507C594.255 4.92526 590.113 7.74964 586.631 11.4633L587.725 12.4892ZM599.602 4.38623L600.175 5.77279C604.633 3.9328 609.615 3.00023 615.142 3.00023V1.50023V0.000230789C609.273 0.000230789 603.896 0.991663 599.03 2.99967L599.602 4.38623ZM615.142 1.50023V3.00023C620.67 3.00023 625.612 3.93294 629.991 5.76952L630.571 4.38623L631.151 3.00294C626.355 0.99152 621.011 0.000230789 615.142 0.000230789V1.50023ZM630.571 4.38623L630.018 5.78047C634.486 7.55329 638.256 10.0953 641.353 13.4034L642.448 12.3782L643.543 11.3531C640.128 7.70512 635.981 4.91917 631.125 2.992L630.571 4.38623ZM642.448 12.3782L641.365 13.4156C644.536 16.7277 646.984 20.7596 648.695 25.5381L650.107 25.0322L651.519 24.5264C649.679 19.3889 647.021 14.9848 643.532 11.3409L642.448 12.3782ZM650.107 25.0322L648.698 25.5448C650.404 30.2377 651.271 35.573 651.271 41.5712H652.771H654.271C654.271 35.2855 653.363 29.5948 651.517 24.5196L650.107 25.0322ZM652.771 41.5712H651.271C651.271 47.5689 650.404 52.9442 648.695 57.7154L650.107 58.2212L651.519 58.7271C653.362 53.5823 654.271 47.8575 654.271 41.5712H652.771ZM650.107 58.2212L648.695 57.7154C646.983 62.4961 644.532 66.57 641.354 69.9603L642.448 70.9862L643.543 72.0121C647.024 68.2985 649.68 63.8624 651.519 58.7271L650.107 58.2212ZM642.448 70.9862L641.343 69.9726C638.242 73.3552 634.468 75.9694 629.999 77.8137L630.571 79.2002L631.144 80.5868C635.999 78.583 640.143 75.7213 643.554 71.9998L642.448 70.9862ZM630.571 79.2002L630.01 77.8091C625.626 79.5771 620.677 80.4752 615.142 80.4752V81.9752V83.4752C621.004 83.4752 626.341 82.5233 631.132 80.5914L630.571 79.2002ZM615.142 69.7652V71.2652C620.188 71.2652 624.562 70.0983 628.184 67.6833L627.352 66.4352L626.52 65.1872C623.483 67.2122 619.717 68.2652 615.142 68.2652V69.7652ZM627.352 66.4352L628.172 67.6917C631.857 65.288 634.628 61.8182 636.505 57.3603L635.122 56.7782L633.74 56.1961C632.065 60.1743 629.655 63.1425 626.533 65.1788L627.352 66.4352ZM635.122 56.7782L636.496 57.3807C638.449 52.929 639.397 47.6818 639.397 41.6822H637.897H636.397C636.397 47.3747 635.496 52.1915 633.749 56.1757L635.122 56.7782ZM637.897 41.6822H639.397C639.397 35.6196 638.489 30.3747 636.612 25.9954L635.233 26.5862L633.855 27.1771C635.53 31.0858 636.397 35.9048 636.397 41.6822H637.897ZM635.233 26.5862L636.616 26.0041C634.738 21.5433 631.962 18.1031 628.263 15.7713L627.463 17.0402L626.663 18.3091C629.773 20.2694 632.177 23.1932 633.851 27.1683L635.233 26.5862ZM627.463 17.0402L628.283 15.7838C624.593 13.3776 620.189 12.2102 615.142 12.2102V13.7102V15.2102C619.716 15.2102 623.526 16.2629 626.644 18.2966L627.463 17.0402ZM615.142 13.7102V12.2102C610.165 12.2102 605.799 13.38 602.113 15.7838L602.932 17.0402L603.752 18.2966C606.874 16.2605 610.648 15.2102 615.142 15.2102V13.7102ZM602.932 17.0402L602.132 15.7713C598.44 18.0995 595.63 21.5322 593.678 25.9837L595.051 26.5862L596.425 27.1887C598.173 23.2043 600.617 20.273 603.732 18.3091L602.932 17.0402ZM595.051 26.5862L593.673 25.9954C591.796 30.3747 590.887 35.6196 590.887 41.6822H592.387H593.887C593.887 35.9048 594.755 31.0858 596.43 27.1771L595.051 26.5862ZM592.387 41.6822H590.887C590.887 47.6749 591.797 52.9146 593.669 57.3603L595.051 56.7782L596.434 56.1961C594.754 52.2058 593.887 47.3815 593.887 41.6822H592.387ZM595.051 56.7782L593.678 57.3807C595.629 61.8292 598.433 65.2916 602.113 67.6917L602.932 66.4352L603.752 65.1788C600.624 63.1388 598.174 60.1632 596.425 56.1757L595.051 56.7782ZM602.932 66.4352L602.113 67.6917C605.799 70.0955 610.165 71.2652 615.142 71.2652V69.7652V68.2652C610.648 68.2652 606.874 67.215 603.752 65.1788L602.932 66.4352ZM684.646 80.8652L684.934 79.3933L684.923 79.391L684.911 79.389L684.646 80.8652ZM674.323 77.8682L673.732 79.247L673.744 79.2519L674.323 77.8682ZM665.998 73.0952L664.598 72.5549L664.192 73.6087L665.092 74.2909L665.998 73.0952ZM670.327 61.8842L671.184 60.6536L669.616 59.5605L668.927 61.3439L670.327 61.8842ZM677.986 66.3242L677.345 67.6806L677.368 67.6912L677.39 67.701L677.986 66.3242ZM686.644 69.0992L686.322 70.5644L686.343 70.5688L686.363 70.5727L686.644 69.0992ZM709.177 67.1012L710.055 68.3173L710.066 68.3093L710.077 68.3012L709.177 67.1012ZM711.952 55.1132L710.692 55.9281L710.704 55.9457L710.716 55.963L711.952 55.1132ZM700.63 49.6742L700.323 51.1425L700.333 51.1445L700.342 51.1465L700.63 49.6742ZM688.42 47.1212L688.111 48.5891L688.113 48.5895L688.42 47.1212ZM672.658 39.6842L671.575 40.7221L671.586 40.7336L671.597 40.7449L672.658 39.6842ZM671.437 12.9332L670.216 12.0614V12.0614L671.437 12.9332ZM682.204 4.49723L681.605 3.12198L682.204 4.49723ZM708.289 2.61023L707.956 4.07293L707.975 4.07726L707.995 4.0811L708.289 2.61023ZM717.391 5.71823L716.706 7.05258L716.727 7.06355L716.749 7.07384L717.391 5.71823ZM724.717 10.6022L726.106 11.1668L726.496 10.2076L725.737 9.50304L724.717 10.6022ZM720.388 21.2582L719.427 22.4106L721.005 23.7249L721.777 21.8228L720.388 21.2582ZM710.176 15.4862L709.668 16.8976L709.68 16.9021L709.693 16.9064L710.176 15.4862ZM689.197 14.9312L689.747 16.3268L689.197 14.9312ZM683.536 19.0382L682.336 18.1382L682.329 18.1466L683.536 19.0382ZM684.313 31.5812L683.299 32.687L683.312 32.6987L683.325 32.7101L684.313 31.5812ZM693.415 35.2442L693.724 33.7765L693.719 33.7753L693.415 35.2442ZM705.514 37.7972L705.825 36.3299L705.823 36.3296L705.514 37.7972ZM721.831 45.1232L720.805 46.2175L720.81 46.2228L720.816 46.228L721.831 45.1232ZM723.496 70.7642L722.272 69.8972L723.496 70.7642ZM712.729 79.0892L713.309 80.4726L713.32 80.4679L712.729 79.0892ZM696.412 81.9752V80.4752C692.433 80.4752 688.608 80.1136 684.934 79.3933L684.646 80.8652L684.357 82.3372C688.232 83.0969 692.25 83.4752 696.412 83.4752V81.9752ZM684.646 80.8652L684.911 79.389C681.309 78.7406 677.975 77.7708 674.902 76.4846L674.323 77.8682L673.744 79.2519C677.035 80.6297 680.582 81.6579 684.38 82.3415L684.646 80.8652ZM674.323 77.8682L674.914 76.4895C671.906 75.2006 669.239 73.6688 666.904 71.8996L665.998 73.0952L665.092 74.2909C667.641 76.2216 670.523 77.8718 673.732 79.2469L674.323 77.8682ZM665.998 73.0952L667.397 73.6356L671.726 62.4246L670.327 61.8842L668.927 61.3439L664.598 72.5549L665.998 73.0952ZM670.327 61.8842L669.469 63.1148C671.979 64.8643 674.605 66.3865 677.345 67.6806L677.986 66.3242L678.626 64.9679C676.039 63.746 673.558 62.3082 671.184 60.6536L670.327 61.8842ZM677.986 66.3242L677.39 67.701C680.22 68.9247 683.198 69.8786 686.322 70.5644L686.644 69.0992L686.965 67.6341C684.021 66.9879 681.227 66.0918 678.581 64.9474L677.986 66.3242ZM686.644 69.0992L686.363 70.5727C689.57 71.1836 692.921 71.4872 696.412 71.4872V69.9872V68.4872C693.095 68.4872 689.933 68.1988 686.924 67.6257L686.644 69.0992ZM696.412 69.9872V71.4872C702.357 71.4872 707.003 70.5214 710.055 68.3173L709.177 67.1012L708.298 65.8852C706.022 67.529 702.159 68.4872 696.412 68.4872V69.9872ZM709.177 67.1012L710.077 68.3012C713.087 66.0435 714.673 63.0602 714.673 59.4422H713.173H711.673C711.673 62.0402 710.594 64.163 708.277 65.9012L709.177 67.1012ZM713.173 59.4422H714.673C714.673 57.494 714.203 55.7408 713.188 54.2634L711.952 55.1132L710.716 55.963C711.328 56.8536 711.673 57.9864 711.673 59.4422H713.173ZM711.952 55.1132L713.211 54.2984C712.201 52.7379 710.615 51.507 708.605 50.542L707.956 51.8942L707.307 53.2465C708.996 54.0575 710.074 54.9726 710.692 55.9281L711.952 55.1132ZM707.956 51.8942L708.605 50.542C706.598 49.5784 704.02 48.8074 700.917 48.202L700.63 49.6742L700.342 51.1465C703.308 51.725 705.614 52.434 707.307 53.2465L707.956 51.8942ZM700.63 49.6742L700.937 48.206L688.727 45.653L688.42 47.1212L688.113 48.5895L700.323 51.1425L700.63 49.6742ZM688.42 47.1212L688.729 45.6534C681.859 44.2072 676.916 41.8215 673.718 38.6236L672.658 39.6842L671.597 40.7449C675.355 44.503 680.92 47.0752 688.111 48.5891L688.42 47.1212ZM672.658 39.6842L673.741 38.6464C670.65 35.4215 669.052 31.1552 669.052 25.6982H667.552H666.052C666.052 31.7853 667.857 36.843 671.575 40.7221L672.658 39.6842ZM667.552 25.6982H669.052C669.052 21.0953 670.267 17.1522 672.657 13.8051L671.437 12.9332L670.216 12.0614C667.427 15.9663 666.052 20.5331 666.052 25.6982H667.552ZM671.437 12.9332L672.657 13.8051C675.071 10.4264 678.432 7.77572 682.803 5.87248L682.204 4.49723L681.605 3.12198C676.799 5.21474 672.983 8.18811 670.216 12.0614L671.437 12.9332ZM682.204 4.49723L682.803 5.87248C687.168 3.97137 692.249 3.00023 698.077 3.00023V1.50023V0.000230789C691.917 0.000230789 686.415 1.0271 681.605 3.12198L682.204 4.49723ZM698.077 1.50023V3.00023C701.524 3.00023 704.816 3.35924 707.956 4.07293L708.289 2.61023L708.621 1.14753C705.249 0.381219 701.734 0.000230789 698.077 0.000230789V1.50023ZM708.289 2.61023L707.995 4.0811C711.202 4.72267 714.103 5.71611 716.706 7.05258L717.391 5.71823L718.076 4.38388C715.203 2.90835 712.035 1.82979 708.583 1.13936L708.289 2.61023ZM717.391 5.71823L716.749 7.07384C719.436 8.34675 721.747 9.89165 723.696 11.7014L724.717 10.6022L725.737 9.50304C723.542 7.46482 720.97 5.75371 718.033 4.36262L717.391 5.71823ZM724.717 10.6022L723.327 10.0377L718.998 20.6937L720.388 21.2582L721.777 21.8228L726.106 11.1668L724.717 10.6022ZM720.388 21.2582L721.348 20.1059C718.104 17.4023 714.539 15.3854 710.659 14.0661L710.176 15.4862L709.693 16.9064C713.213 18.1031 716.456 19.9341 719.427 22.4106L720.388 21.2582ZM710.176 15.4862L710.684 14.0749C706.801 12.6772 702.557 11.9882 697.966 11.9882V13.4882V14.9882C702.255 14.9882 706.15 15.6313 709.668 16.8976L710.176 15.4862ZM697.966 13.4882V11.9882C694.427 11.9882 691.307 12.4875 688.647 13.5356L689.197 14.9312L689.747 16.3268C691.97 15.4509 694.697 14.9882 697.966 14.9882V13.4882ZM689.197 14.9312L688.647 13.5356C685.994 14.5807 683.863 16.1023 682.336 18.1382L683.536 19.0382L684.736 19.9382C685.873 18.4221 687.515 17.2058 689.747 16.3268L689.197 14.9312ZM683.536 19.0382L682.329 18.1466C680.858 20.1372 680.149 22.4943 680.149 25.1432H681.649H683.149C683.149 23.0562 683.697 21.3433 684.742 19.9298L683.536 19.0382ZM681.649 25.1432H680.149C680.149 28.1782 681.179 30.7431 683.299 32.687L684.313 31.5812L685.326 30.4755C683.895 29.1634 683.149 27.4362 683.149 25.1432H681.649ZM684.313 31.5812L683.325 32.7101C685.4 34.5257 688.749 35.8106 693.111 36.7131L693.415 35.2442L693.719 33.7753C689.497 32.9019 686.778 31.7448 685.3 30.4524L684.313 31.5812ZM693.415 35.2442L693.105 36.7119L705.204 39.2649L705.514 37.7972L705.823 36.3296L693.724 33.7766L693.415 35.2442ZM705.514 37.7972L705.202 39.2646C712.393 40.7899 717.533 43.1497 720.805 46.2175L721.831 45.1232L722.857 44.0289C719.025 40.4367 713.286 37.9126 705.825 36.3299L705.514 37.7972ZM721.831 45.1232L720.816 46.228C724.092 49.2363 725.77 53.2541 725.77 58.4432H727.27H728.77C728.77 52.5324 726.822 47.6702 722.845 44.0184L721.831 45.1232ZM727.27 58.4432H725.77C725.77 62.8179 724.595 66.6171 722.272 69.8972L723.496 70.7642L724.72 71.6313C727.428 67.8074 728.77 63.3925 728.77 58.4432H727.27ZM723.496 70.7642L722.272 69.8972C719.94 73.1885 716.588 75.8032 712.138 77.7105L712.729 79.0892L713.32 80.4679C718.193 78.3793 722.019 75.444 724.72 71.6313L723.496 70.7642ZM712.729 79.0892L712.149 77.7059C707.786 79.5355 702.553 80.4752 696.412 80.4752V81.9752V83.4752C702.85 83.4752 708.496 82.491 713.309 80.4725L712.729 79.0892ZM741.684 80.8652H740.184V82.3652H741.684V80.8652ZM741.684 2.61023V1.11023H740.184V2.61023H741.684ZM793.743 2.61023H795.243V1.11023H793.743V2.61023ZM793.743 13.9322V15.4322H795.243V13.9322H793.743ZM755.337 13.9322V12.4322H753.837V13.9322H755.337ZM755.337 35.4662H753.837V36.9662H755.337V35.4662ZM791.301 35.4662H792.801V33.9662H791.301V35.4662ZM791.301 46.7882V48.2882H792.801V46.7882H791.301ZM755.337 46.7882V45.2882H753.837V46.7882H755.337ZM755.337 69.5432H753.837V71.0432H755.337V69.5432ZM793.743 69.5432H795.243V68.0432H793.743V69.5432ZM793.743 80.8652V82.3652H795.243V80.8652H793.743ZM741.684 80.8652H743.184V2.61023H741.684H740.184V80.8652H741.684ZM741.684 2.61023V4.11023H793.743V2.61023V1.11023H741.684V2.61023ZM793.743 2.61023H792.243V13.9322H793.743H795.243V2.61023H793.743ZM793.743 13.9322V12.4322H755.337V13.9322V15.4322H793.743V13.9322ZM755.337 13.9322H753.837V35.4662H755.337H756.837V13.9322H755.337ZM755.337 35.4662V36.9662H791.301V35.4662V33.9662H755.337V35.4662ZM791.301 35.4662H789.801V46.7882H791.301H792.801V35.4662H791.301ZM791.301 46.7882V45.2882H755.337V46.7882V48.2882H791.301V46.7882ZM755.337 46.7882H753.837V69.5432H755.337H756.837V46.7882H755.337ZM755.337 69.5432V71.0432H793.743V69.5432V68.0432H755.337V69.5432ZM793.743 69.5432H792.243V80.8652H793.743H795.243V69.5432H793.743ZM793.743 80.8652V79.3652H741.684V80.8652V82.3652H793.743V80.8652ZM850.154 73.6502L849.094 74.7109L849.101 74.7179L849.108 74.7248L850.154 73.6502ZM841.719 2.61023V1.11023H840.219V2.61023H841.719ZM855.927 2.61023H857.427V1.11023H855.927V2.61023ZM860.7 64.5482L859.582 65.5491L859.593 65.5614L859.604 65.5734L860.7 64.5482ZM888.783 64.5482L889.889 65.5608L889.895 65.555L889.9 65.5491L888.783 64.5482ZM893.555 2.61023V1.11023H892.055V2.61023H893.555ZM907.653 2.61023H909.153V1.11023H907.653V2.61023ZM899.328 73.6502L900.388 74.7109L900.395 74.7038L899.328 73.6502ZM874.797 81.9752V80.4752C864.318 80.4752 856.533 77.7688 851.201 72.5757L850.154 73.6502L849.108 74.7248C855.172 80.6316 863.815 83.4752 874.797 83.4752V81.9752ZM850.154 73.6502L851.215 72.5896C845.965 67.3393 843.219 59.4936 843.219 48.7862H841.719H840.219C840.219 59.9829 843.096 68.7132 849.094 74.7109L850.154 73.6502ZM841.719 48.7862H843.219V2.61023H841.719H840.219V48.7862H841.719ZM841.719 2.61023V4.11023H855.927V2.61023V1.11023H841.719V2.61023ZM855.927 2.61023H854.427V48.6752H855.927H857.427V2.61023H855.927ZM855.927 48.6752H854.427C854.427 55.9031 856.059 61.6166 859.582 65.5491L860.7 64.5482L861.817 63.5474C858.976 60.3759 857.427 55.5073 857.427 48.6752H855.927ZM860.7 64.5482L859.604 65.5734C863.22 69.4359 868.366 71.2652 874.797 71.2652V69.7652V68.2652C868.943 68.2652 864.691 66.6166 861.795 63.5231L860.7 64.5482ZM874.797 69.7652V71.2652C881.225 71.2652 886.343 69.4365 889.889 65.5608L888.783 64.5482L887.676 63.5357C884.858 66.616 880.652 68.2652 874.797 68.2652V69.7652ZM888.783 64.5482L889.9 65.5491C893.423 61.6166 895.055 55.9031 895.055 48.6752H893.555H892.055C892.055 55.5073 890.506 60.3759 887.665 63.5474L888.783 64.5482ZM893.555 48.6752H895.055V2.61023H893.555H892.055V48.6752H893.555ZM893.555 2.61023V4.11023H907.653V2.61023V1.11023H893.555V2.61023ZM907.653 2.61023H906.153V48.7862H907.653H909.153V2.61023H907.653ZM907.653 48.7862H906.153C906.153 59.4986 903.44 67.347 898.26 72.5966L899.328 73.6502L900.395 74.7038C906.315 68.7054 909.153 59.9778 909.153 48.7862H907.653ZM899.328 73.6502L898.267 72.5896C893.09 77.766 885.356 80.4752 874.797 80.4752V81.9752V83.4752C885.845 83.4752 894.465 80.6345 900.388 74.7109L899.328 73.6502ZM941.65 80.8652L941.938 79.3933L941.927 79.391L941.915 79.389L941.65 80.8652ZM931.327 77.8682L930.736 79.247L930.748 79.2519L931.327 77.8682ZM923.002 73.0952L921.602 72.5549L921.196 73.6087L922.096 74.2909L923.002 73.0952ZM927.331 61.8842L928.188 60.6536L926.62 59.5605L925.931 61.3439L927.331 61.8842ZM934.99 66.3242L934.349 67.6806L934.372 67.6912L934.394 67.701L934.99 66.3242ZM943.648 69.0992L943.326 70.5644L943.347 70.5688L943.367 70.5727L943.648 69.0992ZM966.181 67.1012L967.059 68.3173L967.07 68.3093L967.081 68.3012L966.181 67.1012ZM968.956 55.1132L967.696 55.9281L967.708 55.9457L967.72 55.963L968.956 55.1132ZM957.634 49.6742L957.327 51.1425L957.337 51.1445L957.346 51.1465L957.634 49.6742ZM945.424 47.1212L945.115 48.5891L945.117 48.5895L945.424 47.1212ZM929.662 39.6842L928.579 40.7221L928.59 40.7336L928.601 40.7449L929.662 39.6842ZM928.441 12.9332L927.22 12.0614V12.0614L928.441 12.9332ZM939.208 4.49723L938.609 3.12198L939.208 4.49723ZM965.293 2.61023L964.96 4.07293L964.979 4.07726L964.999 4.0811L965.293 2.61023ZM974.395 5.71823L973.71 7.05258L973.731 7.06355L973.753 7.07384L974.395 5.71823ZM981.721 10.6022L983.11 11.1668L983.5 10.2076L982.741 9.50304L981.721 10.6022ZM977.392 21.2582L976.431 22.4106L978.009 23.7249L978.781 21.8228L977.392 21.2582ZM967.18 15.4862L966.672 16.8976L966.684 16.9021L966.697 16.9064L967.18 15.4862ZM946.201 14.9312L946.751 16.3268L946.201 14.9312ZM940.54 19.0382L939.34 18.1382L939.333 18.1466L940.54 19.0382ZM941.317 31.5812L940.303 32.687L940.316 32.6987L940.329 32.7101L941.317 31.5812ZM950.419 35.2442L950.728 33.7765L950.723 33.7753L950.419 35.2442ZM962.518 37.7972L962.829 36.3299L962.827 36.3296L962.518 37.7972ZM978.835 45.1232L977.809 46.2175L977.814 46.2228L977.82 46.228L978.835 45.1232ZM980.5 70.7642L979.276 69.8972L980.5 70.7642ZM969.733 79.0892L970.313 80.4726L970.324 80.4679L969.733 79.0892ZM953.416 81.9752V80.4752C949.437 80.4752 945.612 80.1136 941.938 79.3933L941.65 80.8652L941.361 82.3372C945.236 83.0969 949.254 83.4752 953.416 83.4752V81.9752ZM941.65 80.8652L941.915 79.389C938.313 78.7406 934.979 77.7708 931.906 76.4846L931.327 77.8682L930.748 79.2519C934.039 80.6297 937.586 81.6579 941.384 82.3415L941.65 80.8652ZM931.327 77.8682L931.918 76.4895C928.91 75.2006 926.243 73.6688 923.908 71.8996L923.002 73.0952L922.096 74.2909C924.645 76.2216 927.527 77.8718 930.736 79.2469L931.327 77.8682ZM923.002 73.0952L924.401 73.6356L928.73 62.4246L927.331 61.8842L925.931 61.3439L921.602 72.5549L923.002 73.0952ZM927.331 61.8842L926.473 63.1148C928.983 64.8643 931.609 66.3865 934.349 67.6806L934.99 66.3242L935.63 64.9679C933.043 63.746 930.562 62.3082 928.188 60.6536L927.331 61.8842ZM934.99 66.3242L934.394 67.701C937.224 68.9247 940.202 69.8786 943.326 70.5644L943.648 69.0992L943.969 67.6341C941.025 66.9879 938.231 66.0918 935.585 64.9474L934.99 66.3242ZM943.648 69.0992L943.367 70.5727C946.574 71.1836 949.925 71.4872 953.416 71.4872V69.9872V68.4872C950.099 68.4872 946.937 68.1988 943.928 67.6257L943.648 69.0992ZM953.416 69.9872V71.4872C959.361 71.4872 964.007 70.5214 967.059 68.3173L966.181 67.1012L965.302 65.8852C963.026 67.529 959.163 68.4872 953.416 68.4872V69.9872ZM966.181 67.1012L967.081 68.3012C970.091 66.0435 971.677 63.0602 971.677 59.4422H970.177H968.677C968.677 62.0402 967.598 64.163 965.281 65.9012L966.181 67.1012ZM970.177 59.4422H971.677C971.677 57.494 971.208 55.7408 970.192 54.2634L968.956 55.1132L967.72 55.963C968.332 56.8536 968.677 57.9864 968.677 59.4422H970.177ZM968.956 55.1132L970.215 54.2984C969.205 52.7379 967.619 51.507 965.609 50.542L964.96 51.8942L964.311 53.2465C966 54.0575 967.078 54.9726 967.696 55.9281L968.956 55.1132ZM964.96 51.8942L965.609 50.542C963.602 49.5784 961.024 48.8074 957.921 48.202L957.634 49.6742L957.346 51.1465C960.312 51.725 962.618 52.434 964.311 53.2465L964.96 51.8942ZM957.634 49.6742L957.941 48.206L945.731 45.653L945.424 47.1212L945.117 48.5895L957.327 51.1425L957.634 49.6742ZM945.424 47.1212L945.733 45.6534C938.863 44.2072 933.92 41.8215 930.722 38.6236L929.662 39.6842L928.601 40.7449C932.359 44.503 937.924 47.0752 945.115 48.5891L945.424 47.1212ZM929.662 39.6842L930.745 38.6464C927.654 35.4215 926.056 31.1552 926.056 25.6982H924.556H923.056C923.056 31.7853 924.861 36.843 928.579 40.7221L929.662 39.6842ZM924.556 25.6982H926.056C926.056 21.0953 927.271 17.1522 929.661 13.8051L928.441 12.9332L927.22 12.0614C924.431 15.9663 923.056 20.5331 923.056 25.6982H924.556ZM928.441 12.9332L929.661 13.8051C932.075 10.4264 935.436 7.77572 939.807 5.87248L939.208 4.49723L938.609 3.12198C933.803 5.21474 929.987 8.18811 927.22 12.0614L928.441 12.9332ZM939.208 4.49723L939.807 5.87248C944.172 3.97137 949.253 3.00023 955.081 3.00023V1.50023V0.000230789C948.921 0.000230789 943.419 1.0271 938.609 3.12198L939.208 4.49723ZM955.081 1.50023V3.00023C958.528 3.00023 961.82 3.35924 964.96 4.07293L965.293 2.61023L965.625 1.14753C962.253 0.381219 958.738 0.000230789 955.081 0.000230789V1.50023ZM965.293 2.61023L964.999 4.0811C968.206 4.72267 971.107 5.71611 973.71 7.05258L974.395 5.71823L975.08 4.38388C972.207 2.90835 969.039 1.82979 965.587 1.13936L965.293 2.61023ZM974.395 5.71823L973.753 7.07384C976.44 8.34675 978.751 9.89165 980.7 11.7014L981.721 10.6022L982.741 9.50304C980.546 7.46482 977.974 5.75371 975.037 4.36262L974.395 5.71823ZM981.721 10.6022L980.331 10.0377L976.002 20.6937L977.392 21.2582L978.781 21.8228L983.11 11.1668L981.721 10.6022ZM977.392 21.2582L978.352 20.1059C975.108 17.4023 971.543 15.3854 967.663 14.0661L967.18 15.4862L966.697 16.9064C970.217 18.1031 973.46 19.9341 976.431 22.4106L977.392 21.2582ZM967.18 15.4862L967.688 14.0749C963.805 12.6772 959.561 11.9882 954.97 11.9882V13.4882V14.9882C959.259 14.9882 963.154 15.6313 966.672 16.8976L967.18 15.4862ZM954.97 13.4882V11.9882C951.431 11.9882 948.312 12.4875 945.651 13.5356L946.201 14.9312L946.751 16.3268C948.974 15.4509 951.701 14.9882 954.97 14.9882V13.4882ZM946.201 14.9312L945.651 13.5356C942.998 14.5807 940.867 16.1023 939.34 18.1382L940.54 19.0382L941.74 19.9382C942.877 18.4221 944.519 17.2058 946.751 16.3268L946.201 14.9312ZM940.54 19.0382L939.333 18.1466C937.862 20.1372 937.153 22.4943 937.153 25.1432H938.653H940.153C940.153 23.0562 940.701 21.3433 941.746 19.9298L940.54 19.0382ZM938.653 25.1432H937.153C937.153 28.1782 938.183 30.7431 940.303 32.687L941.317 31.5812L942.33 30.4755C940.899 29.1634 940.153 27.4362 940.153 25.1432H938.653ZM941.317 31.5812L940.329 32.7101C942.404 34.5257 945.753 35.8106 950.115 36.7131L950.419 35.2442L950.723 33.7753C946.501 32.9019 943.782 31.7448 942.305 30.4524L941.317 31.5812ZM950.419 35.2442L950.109 36.7119L962.208 39.2649L962.518 37.7972L962.827 36.3296L950.728 33.7766L950.419 35.2442ZM962.518 37.7972L962.206 39.2646C969.397 40.7899 974.537 43.1497 977.809 46.2175L978.835 45.1232L979.861 44.0289C976.029 40.4367 970.29 37.9126 962.829 36.3299L962.518 37.7972ZM978.835 45.1232L977.82 46.228C981.096 49.2363 982.774 53.2541 982.774 58.4432H984.274H985.774C985.774 52.5324 983.826 47.6702 979.849 44.0184L978.835 45.1232ZM984.274 58.4432H982.774C982.774 62.8179 981.599 66.6171 979.276 69.8972L980.5 70.7642L981.724 71.6313C984.432 67.8074 985.774 63.3925 985.774 58.4432H984.274ZM980.5 70.7642L979.276 69.8972C976.944 73.1885 973.592 75.8032 969.142 77.7105L969.733 79.0892L970.324 80.4679C975.197 78.3793 979.023 75.444 981.724 71.6313L980.5 70.7642ZM969.733 79.0892L969.153 77.7059C964.79 79.5355 959.557 80.4752 953.416 80.4752V81.9752V83.4752C959.854 83.4752 965.5 82.491 970.313 80.4725L969.733 79.0892ZM1031.83 57.6662L1030.33 57.7838L1030.44 59.1662H1031.83V57.6662ZM1027.5 2.61023V1.11023H1025.87L1026 2.72781L1027.5 2.61023ZM1044.59 2.61023L1046.09 2.72781L1046.21 1.11023H1044.59V2.61023ZM1040.26 57.6662V59.1662H1041.65L1041.76 57.7838L1040.26 57.6662ZM1028.27 80.8652H1026.77V82.3652H1028.27V80.8652ZM1028.27 65.4362V63.9362H1026.77V65.4362H1028.27ZM1043.81 65.4362H1045.31V63.9362H1043.81V65.4362ZM1043.81 80.8652V82.3652H1045.31V80.8652H1043.81ZM1031.83 57.6662L1033.32 57.5487L1028.99 2.49265L1027.5 2.61023L1026 2.72781L1030.33 57.7838L1031.83 57.6662ZM1027.5 2.61023V4.11023H1044.59V2.61023V1.11023H1027.5V2.61023ZM1044.59 2.61023L1043.09 2.49265L1038.77 57.5487L1040.26 57.6662L1041.76 57.7838L1046.09 2.72781L1044.59 2.61023ZM1040.26 57.6662V56.1662H1031.83V57.6662V59.1662H1040.26V57.6662ZM1028.27 80.8652H1029.77V65.4362H1028.27H1026.77V80.8652H1028.27ZM1028.27 65.4362V66.9362H1043.81V65.4362V63.9362H1028.27V65.4362ZM1043.81 65.4362H1042.31V80.8652H1043.81H1045.31V65.4362H1043.81ZM1043.81 80.8652V79.3652H1028.27V80.8652V82.3652H1043.81V80.8652Z" fill="black"/>
</svg>
